<svg xmlns="http://www.w3.org/2000/svg" height="1024" preserveAspectRatio="none" style="display: block;" version="1.1" viewBox="0 0 2048 2048" width="1024">
<path d="M 933.493 0 L 1131.54 0 L 1132.5 0.167761 C 1146.5 2.5228 1166.69 3.64525 1181.52 5.39359 C 1216.44 9.24951 1251.11 15.116 1285.36 22.964 C 1518.18 77.8878 1711.43 216.303 1851.61 409.6 C 1934.68 524.141 2006.56 667.988 2032.3 808.134 C 2037.73 837.127 2041.93 866.337 2044.9 895.685 C 2045.7 904.336 2046.66 937.594 2048 943.193 L 2048 1142.48 C 2046.44 1150.89 2045.74 1164.86 2045.02 1173.75 C 2043.77 1191.04 2041.94 1208.29 2039.52 1225.47 C 2034.16 1262.16 2024.85 1295.43 2019.41 1329.97 C 2038.2 1350.3 2043.03 1364.24 2048 1391.38 L 2048 1402.57 C 2044.79 1428.99 2049.05 1458.73 2046.07 1485.66 C 2043.58 1508.21 2038.85 1529.26 2033.86 1551.28 C 2033.41 1559.37 2035.91 1569.94 2036.52 1577.59 C 2038.5 1602.55 2048.55 1640.67 2042.45 1664.74 C 2033.85 1698.67 1987.07 1720.46 1958.77 1731.87 C 1959.18 1756.39 1957.83 1776.17 1957 1800.49 C 1954.3 1879.21 1855.82 1862.94 1816.57 1823.71 C 1807.6 1814.75 1804.4 1799.73 1793.25 1792.05 C 1781.67 1783.29 1775.07 1772.14 1770.61 1758.29 C 1754.38 1764.14 1743.35 1776.38 1730.58 1787.72 C 1716.27 1800.44 1701.72 1812.89 1686.94 1825.06 C 1664.72 1843.04 1641.92 1860.29 1618.57 1876.78 C 1508.06 1952.75 1383.25 2005.47 1251.73 2031.72 C 1226.12 2036.57 1200.36 2040.63 1174.49 2043.88 C 1166.39 2044.87 1143.84 2046.46 1137.45 2048 L 912.072 2048 C 905.004 2046.46 869.318 2044.08 859.607 2043.07 C 828.45 2039.68 797.49 2034.67 766.852 2028.07 C 585.9 1987.64 405.821 1879.1 275.85 1748.36 C 268.223 1764.07 245.587 1810.27 234.912 1822.33 C 213.414 1844.31 181.019 1855.78 151.423 1856.7 C 76.9366 1859.02 85.66 1787.09 85.4987 1731.99 C 55.2416 1718.47 17.6615 1697.59 5.77499 1663.99 C -0.148278 1647.24 7.65704 1629.45 7.2518 1612.8 C 6.2665 1572.32 5.13727 1531.72 3.91492 1491.24 C 2.9242 1462.91 3.93996 1430.89 0.148689 1402.99 L 0 1401.95 L 0 1388.42 C 5.08594 1362.9 10.3153 1347.61 29.451 1329.55 C 19.1174 1279.69 9.59887 1235.86 5.35243 1185.04 C 3.74247 1164.29 2.47823 1143.53 1.56023 1122.74 C 1.17476 1112.66 1.43124 1096.72 0 1087.53 L 0 948.153 C 0.849023 943.982 1.32053 937.89 1.50097 933.606 C 3.0689 896.378 8.43999 861.338 15.5433 824.698 C 47.1972 665.876 114.758 516.398 213.058 387.698 C 349.652 207.128 542.854 73.3168 764.858 23.5121 C 802.068 15.3956 839.655 9.11082 877.482 4.68059 C 895.393 2.74641 916.214 2.37977 933.493 0 z M 1818.3 506.508 C 1799.39 520.042 1786.86 520.012 1768.93 503.831 C 1748.66 485.528 1730.59 465.091 1712.61 444.585 L 1655.34 379.693 L 1606.31 324.762 C 1590.49 307.134 1565.82 286.152 1569.76 260.58 C 1570.83 253.607 1575.05 249.443 1579.22 243.961 C 1571.47 242.303 1550.71 257.052 1545.97 263.377 C 1536.95 279.137 1545.19 305.227 1556.11 317.967 C 1602.82 372.455 1650.19 426.829 1698.55 479.881 C 1711.11 493.632 1723.04 507.661 1736.25 520.454 C 1741.65 525.657 1747.73 530.122 1754.31 533.732 C 1783.98 549.972 1808.43 537.899 1818.3 506.508 L 1818.81 506.149 L 1818.3 506.508 z M 731.169 528.77 C 753.558 530.592 761.612 540.805 779.427 551.373 L 779.843 551.809 L 779.427 551.373 C 776.5 545.309 754.294 513.498 749.353 506.008 L 685.665 407.646 C 655.217 360.086 625.349 312.094 595.973 263.878 C 594.645 261.699 592.022 262.197 589.97 262.235 C 589.884 268.942 627.14 335.254 632.534 345.235 L 688.502 449.64 C 702.783 476.03 717.541 502.03 731.169 528.77 z M 1132.66 669.355 L 1132.25 669.777 L 1132.66 669.355 C 1139.17 663.801 1186.79 612.919 1189.42 607.789 C 1196.34 594.321 1200.05 577.09 1204.73 562.585 L 1238.34 456.795 C 1257.84 397.145 1276.87 337.345 1295.44 277.4 C 1300.83 259.998 1313.31 225.309 1316.88 209.6 L 1313.44 209.214 C 1309.48 211.826 1295.58 250.061 1292.39 258.017 L 1259.32 340.085 C 1230.16 411.725 1202.05 483.781 1174.98 556.232 C 1165.95 580.44 1156.75 604.583 1147.37 628.658 C 1143.17 639.584 1135.39 658.471 1132.66 669.355 z M 714.81 1288.66 C 737.737 1273.4 767.217 1257.71 791.528 1243.48 C 806.35 1234.81 843.882 1211.05 858.405 1204.76 C 850.175 1213.12 830.455 1228.61 820.925 1236.47 C 796.977 1256.25 772.915 1275.89 748.742 1295.39 C 768.467 1298.91 788.401 1300.53 807.353 1303.86 C 823.848 1289.37 840.663 1275.24 857.787 1261.49 C 867.916 1253.34 881.623 1243.06 890.75 1234.33 C 885.071 1243.45 874.875 1254.16 867.69 1262.36 C 855.343 1276.46 842.089 1291.04 831.301 1306.4 C 849.583 1308.45 866.114 1309.23 884.218 1310.76 C 890.448 1302.23 912.405 1273.55 919.555 1266.27 C 915.313 1279.15 902.183 1298.94 896 1311.87 C 910.225 1312.18 930.412 1314.06 943.301 1313.69 C 949.313 1302.66 954.444 1292.24 959.929 1280.95 C 956.985 1291.54 952.814 1303.65 950.243 1313.95 C 965.667 1314.15 981.093 1314.19 996.519 1314.06 C 997.925 1307.1 999.355 1299.09 1001.12 1292.31 C 1000.92 1299.84 1000.85 1306.61 999.88 1314.07 C 1014.43 1314.37 1033.27 1315.39 1047.3 1313.87 C 1046.25 1306.8 1045.41 1300.8 1045.31 1293.62 C 1047.86 1301.84 1048.57 1305.54 1049.85 1314.11 C 1062.55 1314.13 1084.07 1314.67 1095.94 1313.22 C 1093.24 1302.36 1089.61 1291.25 1086.29 1280.52 C 1092.42 1291.01 1096.78 1301.81 1100.92 1313.21 C 1116.5 1312.76 1132.08 1311.85 1147.61 1310.48 C 1144 1302.64 1129.94 1276.38 1128.61 1270.66 C 1132.62 1274.31 1154.99 1304.55 1159.85 1310.91 C 1176.33 1309.47 1192.79 1307.81 1209.23 1305.94 C 1198.86 1289.77 1182.29 1272.1 1170.68 1256.46 C 1166.19 1250.42 1160.08 1244.23 1156.67 1237.6 C 1181.11 1258.75 1209.17 1282.49 1232.25 1304.25 C 1250.61 1301.06 1270.03 1298.67 1288.56 1296.23 C 1250.85 1266.81 1214.29 1235.6 1177.65 1204.75 C 1194.55 1212.04 1212.33 1223.97 1228.71 1232.63 C 1262.74 1250.59 1297.75 1272.23 1331.75 1289.53 C 1350.95 1284.46 1377.29 1279.49 1397.32 1275.04 C 1344.19 1250.53 1294.04 1222.01 1241.83 1196.89 C 1180.73 1167.49 1111.58 1146.09 1049.97 1117.88 C 1036.89 1111.89 1039.95 1058.2 1039.66 1045.35 C 1036.88 1052.44 1032.05 1066.27 1026.44 1070.55 C 1001.98 1089.18 968.949 1104.16 941.994 1118.8 C 868.343 1158.83 793.576 1195.97 722.678 1240.76 C 707.324 1250.46 675.035 1268.42 662.93 1279.01 C 680.289 1281.87 697.586 1285.09 714.81 1288.66 z M 1635.19 1325.45 C 1663.05 1307.67 1710.2 1298.38 1741.54 1289.17 C 1749.2 1286.92 1760.46 1288.02 1768.25 1285.37 C 1780.08 1281.49 1775.47 1269.3 1769.32 1262.65 C 1762.8 1255.59 1756.9 1253.25 1747.25 1253.18 C 1728.81 1253.5 1708.88 1259.23 1691.01 1263.37 C 1654.85 1271.74 1619.15 1281.73 1583.23 1291.06 C 1540.38 1301.99 1497.38 1312.35 1454.24 1322.12 C 1247.38 1368.98 1034.34 1382.27 823.262 1361.48 C 714.276 1350.79 606.247 1331.92 500.088 1305.04 C 465.327 1295.84 430.72 1286.07 396.284 1275.73 C 374.805 1269.4 353.75 1262.83 331.847 1258.02 C 298.446 1250.68 278.77 1259.06 289.685 1296.4 C 292.969 1292.24 295.873 1287.26 301.158 1287.17 C 327.879 1286.7 367.692 1311.89 388.638 1326.78 C 364.796 1317.34 338.628 1308.33 312.971 1308 C 313.334 1311.56 313.649 1315.68 314.235 1319.17 C 330.094 1328.96 368.98 1350.34 381.397 1362.25 C 358.989 1354.75 339.673 1345.77 316.182 1340.25 C 315.895 1347.94 315.762 1356.49 315.185 1364.09 C 331.879 1371.08 339 1375.14 353.709 1386.09 C 340.029 1381 329.347 1377.18 315.131 1373.36 L 313.586 1398.92 L 349.532 1414.04 C 337.161 1411.85 325.245 1410.68 312.743 1409.54 C 311.921 1419.42 311.309 1429.31 310.906 1439.22 C 325.271 1443.84 339.144 1450.35 352.498 1457.38 C 336.605 1453.06 326.529 1450.49 309.907 1450.63 L 309.073 1471.82 C 326.301 1478.06 345.727 1488.07 362.355 1496.13 C 343.733 1492.07 326.952 1489.24 308.231 1486 L 307.692 1507.47 C 320.861 1512.14 353.513 1526.15 364.869 1534.24 C 344.982 1530.19 327.644 1525.9 308.029 1520.79 C 307.51 1528.18 306.937 1535.13 307.011 1542.55 C 337.81 1554.92 365.059 1567 395.321 1580.04 C 385.017 1577.37 310.907 1557.43 306.261 1559.06 C 306.404 1564.61 325.399 1570.74 330.919 1573.01 C 367.074 1587.9 400.664 1607.13 434.912 1625.93 C 403.752 1615.56 306.617 1577.88 280.335 1590.86 C 275.496 1593.24 271.983 1597.16 270.255 1602.28 C 269.046 1605.86 268.949 1609.24 269.452 1612.94 C 274.983 1616.23 277.147 1606.65 286.552 1607.59 C 333.346 1612.23 383.72 1636.74 427.743 1652.48 C 455.128 1662.03 482.748 1670.89 510.579 1679.06 C 694.632 1732.48 886.112 1755.8 1077.61 1748.11 C 1267.71 1741.54 1455.83 1707.2 1635.99 1646.15 C 1667.65 1635.74 1701.95 1623.48 1729.44 1604.72 C 1740.99 1596.84 1748.14 1590.44 1757.44 1605.89 C 1768.09 1623.59 1777.66 1628.27 1794.55 1639.67 C 1791.01 1639.36 1786.14 1638.3 1783.46 1639.63 C 1783.15 1643.11 1785.88 1647.32 1788.94 1645.9 C 1856.02 1614.95 1926.77 1587.4 2003.83 1599.65 C 1971.67 1574.6 1937.72 1572.8 1899.74 1585.93 C 1928.18 1566.64 1972.78 1564.47 2004.34 1577.37 C 1979.47 1555.8 1956.61 1547.09 1924.18 1555.34 C 1945.46 1542.82 1979.68 1547.57 2002.24 1553.64 C 1981.59 1525.59 1947.84 1527.62 1916.96 1531.2 C 1945.47 1520.76 1973.45 1519.96 2002.53 1528.21 L 2002.84 1528.76 L 2002.53 1528.21 C 1992.07 1505.31 1953 1501.22 1931.02 1503.65 L 1931.61 1503.51 C 1961.58 1494.17 1974.01 1496.22 2004.74 1502.34 C 1990.87 1487.51 1971.86 1480.74 1952.35 1477.18 C 1971.72 1476.3 1988.9 1481.29 2006.38 1481.49 C 2006.41 1479.04 2005.7 1477.82 2004.33 1475.8 C 1992.72 1458.59 1971.02 1452.63 1951.97 1449.03 C 1972.6 1446.97 1991.15 1448.47 2010.15 1457.24 C 1993.53 1437.99 1983.67 1432.71 1958.43 1427.91 C 1974.52 1426.18 1996.23 1428.1 2011.52 1434.3 C 1993.08 1410.84 1966.62 1405.14 1938.25 1404.73 C 1966.73 1396.24 1983.77 1398.41 2011.73 1408.3 C 1994.11 1378.62 1953.5 1382.36 1924.36 1387.22 C 1874.66 1395.5 1822.31 1407.44 1779.95 1435.54 C 1806.31 1425.3 1864.43 1411.61 1892.27 1410.11 C 1860.07 1420.33 1805.35 1439.43 1779.65 1459.57 C 1804.74 1448.83 1848.72 1440.19 1876.8 1437.92 C 1847.73 1448.02 1809.69 1462.68 1783.35 1478.35 C 1801.52 1472.14 1859.97 1460.51 1879.54 1460.95 C 1871.63 1464.34 1863.12 1466.3 1855.03 1469.14 C 1831.57 1477.4 1805.03 1485.6 1784.12 1499.09 C 1812.45 1489.91 1825.43 1489.22 1855.24 1488.55 C 1861.14 1488.42 1867.66 1487.1 1873.45 1487.05 C 1845.43 1495.77 1811.02 1506.35 1784.36 1517.8 C 1813.15 1511.93 1837.62 1514.95 1869.16 1509.34 C 1856.51 1515.15 1842.42 1519.15 1829.38 1523.65 C 1818.22 1527.49 1793.69 1531.69 1785.07 1538.13 L 1784.01 1538.81 L 1785.07 1538.13 C 1800.74 1535.59 1840.74 1537.34 1859.32 1536.88 C 1830.97 1546.24 1813.69 1551.34 1784.81 1556.97 C 1803.58 1561.33 1822.47 1563.67 1841.6 1560.62 C 1826.76 1566.95 1809.63 1570.49 1793.57 1571.75 C 1797.51 1575.03 1798.1 1575.29 1800.63 1579.59 L 1800.77 1581.96 L 1799.66 1582.96 C 1792.23 1582.1 1787.03 1578.63 1781.89 1582.03 L 1781.11 1584.53 L 1781.81 1585.33 C 1784.18 1584.01 1785.53 1582.52 1787.98 1583.78 C 1792.31 1586.01 1796.13 1592.25 1798.34 1596.38 C 1793.38 1593.45 1788.9 1586.95 1782.85 1589.55 C 1781.29 1597.03 1793.92 1607.25 1794.69 1615.71 L 1793.48 1616.67 C 1787.38 1615.36 1788.18 1607.18 1779.61 1601.78 C 1775.83 1601.59 1777.59 1601.14 1774.27 1603.59 C 1779.89 1610.69 1784.98 1621.12 1791.72 1626.44 C 1794.68 1628.77 1798.75 1631.36 1801.89 1633.69 C 1777.29 1625.73 1783.5 1622.3 1770.8 1600.8 C 1762.7 1587.1 1754.02 1584.22 1739.88 1580.82 C 1728.12 1583.72 1717.07 1589.56 1705.68 1593.91 C 1679.71 1603.81 1653.24 1610.88 1625.39 1612.3 C 1658.39 1592.64 1698.71 1581.24 1732.53 1561.67 L 1735.43 1546.81 C 1710.4 1559 1678.43 1570.62 1651.84 1578.55 C 1670.39 1567.08 1718.48 1539.51 1737.24 1531.89 C 1738.08 1526.16 1738.4 1518.1 1738.8 1512.17 C 1717.89 1520.62 1704.76 1524.92 1683.3 1530.5 C 1696.39 1523.28 1726.77 1507.08 1739.04 1502.1 C 1739.24 1496.6 1739.03 1490 1738.97 1484.43 C 1712.94 1494.12 1697.6 1499.25 1670.48 1504.6 C 1693.58 1494.96 1716.13 1481.46 1739.28 1472.24 C 1739.15 1464.58 1738.86 1456.92 1738.41 1449.27 C 1716.04 1457.65 1695.25 1464.68 1671.41 1467.43 C 1692.52 1459.91 1717.23 1447.57 1737.88 1437.9 C 1737.2 1430.67 1736.81 1422.94 1736.3 1415.66 C 1724.1 1418.76 1714.6 1420.03 1702.28 1421.53 C 1713.48 1417.23 1724.51 1412.48 1735.33 1407.29 C 1734.32 1395.81 1733.53 1384.31 1732.96 1372.8 C 1716.95 1377.13 1697.62 1383.77 1681.58 1385.04 C 1695.57 1378.12 1717.09 1371.15 1733.52 1363.28 L 1733.82 1350.71 C 1719.21 1354.56 1705.43 1356.05 1690.83 1359.3 C 1675.08 1362.82 1659.25 1369.17 1644.25 1375.11 C 1661.52 1362.61 1680.65 1352.91 1700.93 1346.35 C 1707.95 1344.01 1729.74 1340.08 1733.33 1336.38 C 1733.54 1335.11 1734.58 1330.03 1732.5 1329.79 C 1705.38 1326.58 1671.75 1335.77 1645.89 1342.94 C 1667.35 1331.13 1689.32 1324.6 1712.8 1318.56 C 1717.27 1317.41 1731.96 1314.52 1735.16 1312.47 C 1736.02 1309.92 1736.47 1309.35 1736.37 1306.71 C 1723.48 1298.57 1652.3 1321.46 1636.13 1325.23 L 1635.19 1325.45 z M 164.591 1411.98 C 183.667 1413.58 202.549 1416.98 220.987 1422.13 C 230.011 1424.65 250.048 1431.42 258.358 1432.26 L 258.995 1432.75 L 258.358 1432.26 C 223.836 1409.17 113.668 1376.5 72.1097 1385.34 C 55.2046 1388.93 44.7077 1394.42 33.8456 1408.31 C 71.2671 1399.55 72.3193 1396.84 112.548 1404.36 C 85.3131 1405.38 48.7588 1412.18 33.4679 1437.39 C 61.7194 1427.56 74.842 1428.57 104.501 1432.92 C 75.7078 1435.71 48.5752 1438.78 32.8831 1466.45 C 61.8596 1455.46 77.2132 1458.84 106.818 1464.42 C 76.9083 1465.89 51.7575 1466.57 32.9676 1493.87 C 63.2527 1482.9 81.8774 1489.93 112.539 1496.13 C 82.3972 1494 58.681 1493.96 36.73 1517.62 C 64.9388 1510.96 82.7471 1515.7 110.384 1522.53 C 77.8374 1523.83 61.7578 1520.64 36.8712 1544.69 C 67.3795 1536.37 93.3429 1543.39 123.432 1550.49 C 95.539 1550.78 61.4752 1546.16 40.5351 1569.19 L 40.155 1569.75 L 40.5351 1569.19 C 67.6147 1566.04 103.309 1569.92 129.346 1578.73 C 98.5205 1579.93 62.2373 1572.77 38.6027 1598.15 L 37.6776 1599.16 C 66.8077 1591.13 82.7942 1592.44 112.541 1599.16 C 165.538 1611.15 216.116 1629.8 265.941 1651.26 C 265 1645.97 263.69 1641.12 267.562 1636.56 C 277.765 1624.55 301.453 1629.42 314.632 1633.64 C 351.279 1645.37 386.196 1662.73 422.613 1675.3 C 484.34 1698.61 546.085 1716.01 610.206 1731.45 C 664.915 1744.23 720.235 1754.24 775.954 1761.43 C 1036.45 1796.32 1301.39 1775.13 1553.02 1699.29 C 1588.14 1688.64 1728.04 1646.35 1745.93 1623.1 C 1747.72 1620.77 1748.15 1617.29 1747.47 1614.41 C 1747.14 1612.98 1746.96 1612.83 1746.32 1611.73 C 1741.93 1611.01 1732.6 1619.17 1727.86 1621.63 C 1719.67 1625.88 1711.87 1629.46 1703.4 1633.06 C 1644.67 1657.45 1584.56 1678.4 1523.39 1695.81 C 1332.25 1748.71 1134.02 1771.47 935.86 1763.29 C 825.307 1758.74 697.364 1742.56 589.662 1715.9 C 536.769 1703.07 484.566 1687.56 433.256 1669.4 C 410.723 1661.37 388.263 1653.13 365.88 1644.68 C 343.836 1636.4 320.019 1626.74 296.755 1622.61 C 284.886 1620.5 277.77 1623.33 267.784 1628.74 C 257.592 1621.91 253.098 1621.11 241.079 1617.85 C 247.828 1618.54 255.371 1620.38 262.009 1621.88 C 260.034 1615.39 256.226 1612.82 255.315 1608.87 C 257.901 1608.13 256.877 1608.88 258.681 1607.03 L 257.846 1598.7 C 250.636 1593.8 247.656 1592.58 239.715 1589.22 L 257.133 1591.81 L 257.039 1580.16 C 245.313 1574.5 224.297 1568.33 215.199 1561.77 C 223.305 1563.94 246.142 1566.86 254.65 1566.9 L 255.462 1565.36 C 251.839 1558.23 196.02 1537.07 186.221 1532.97 C 207.727 1537.05 235.081 1540.49 257.072 1543.73 C 227.633 1532.44 204.939 1519.66 175.579 1508.53 C 203.053 1512.01 228.427 1516.05 255.719 1520.09 C 241.434 1513.76 227.306 1507.01 212.953 1500.83 C 202.629 1496.39 191.746 1492.76 181.637 1487.91 C 205.873 1487.93 233.942 1491.87 257.486 1497.27 C 229.126 1481.27 204.752 1474.33 174.706 1464.72 C 188.475 1466.35 203.038 1466.75 216.77 1468.52 C 230.404 1470.28 245.006 1473.3 258.549 1476 C 229.76 1459.99 202.942 1450.87 172.972 1437.89 C 186.799 1441.08 200.058 1442.3 213.913 1444.66 C 228.175 1447.09 243.557 1450.49 257.558 1454.12 C 231.06 1438.3 193.786 1422.29 164.591 1411.98 z M 58.3168 1642.66 C 51.6862 1651.3 47.1728 1658.19 42.8701 1668.26 C 64.0429 1692.08 91.8508 1699.67 120.983 1710.31 C 134.458 1715.36 147.871 1720.58 161.218 1725.96 C 191.969 1738.24 206.812 1744.86 221.239 1775.64 C 221.184 1757.36 218.477 1737.12 218.942 1720.61 C 217.472 1724.07 216.173 1728.6 213.195 1730.5 C 210.247 1727.79 211.456 1716.41 211.3 1712.05 C 208.194 1716.5 204.615 1721.88 201.344 1726.07 C 201.865 1718.18 202.194 1712.21 202.011 1704.33 C 196.682 1711.91 193.933 1715.66 187.142 1722.19 C 188.964 1716.25 190.82 1711.41 191.154 1705.21 L 190.2 1704.1 C 185.694 1706.66 180.849 1713.2 175.957 1717.36 C 177.767 1710.13 179.877 1702.35 181.425 1695.11 C 175.115 1702.42 171.578 1706.44 164.537 1712.82 C 167.739 1700.64 168.63 1698.58 174.097 1687.19 C 161.018 1696.15 160.905 1701.42 150.991 1713.17 C 154.253 1705.73 159.246 1696 159.042 1688.07 L 157.864 1687.37 C 151.971 1691.9 148.085 1700.35 143.551 1702.79 C 142.572 1697.31 148.597 1684.2 150.976 1678.31 C 145.446 1684.09 135.138 1695.96 129.761 1700.45 C 132.31 1690.25 135.211 1683.01 138.068 1673.35 C 130.569 1681.27 126.786 1687.2 120.212 1695.06 C 121.147 1682.86 124.537 1677.39 126.615 1666.16 C 118.997 1675.82 116.176 1679.52 106.663 1687.31 C 108.006 1681.9 114.631 1673.01 113.287 1667.53 C 109.203 1668.54 95.8813 1684.49 91.3233 1689.04 C 93.6038 1682.28 101.066 1669.03 98.9907 1663.04 C 91.0383 1669.87 93.1661 1676.51 81.3288 1683.17 C 84.9045 1670.39 90.2733 1661.27 94.3476 1648.98 C 88.2212 1656.38 78.4642 1673.74 71.9266 1678.25 L 70.8919 1677.61 C 70.7186 1667.88 80.186 1656.45 82.513 1643.36 L 82.7746 1641.85 C 81.3442 1644.76 79.7932 1647.62 78.1257 1650.4 C 75.2875 1655.09 67.643 1666.84 63.5848 1671.23 C 62.4719 1671.51 61.3591 1671.79 60.2462 1672.07 L 59.4314 1670.64 C 60.6776 1661.86 69.1704 1650.13 73.0921 1640.66 L 73.5965 1639.42 C 64.5152 1648.73 58.7659 1663.56 50.0267 1670.44 L 48.5767 1670.19 C 48.2333 1662.98 55.7787 1650.46 58.3168 1642.66 L 58.7957 1642.01 L 58.3168 1642.66 z M 1914.25 1666.01 L 1914.87 1666.53 C 1916.82 1676.62 1916.66 1683.04 1920.73 1692.43 C 1914.25 1685.95 1908.48 1678.8 1903.51 1671.11 C 1904.57 1678.82 1905.83 1686.5 1907.31 1694.14 C 1901.53 1686.95 1894.88 1679.27 1890.42 1671.28 C 1892.24 1679.78 1893.36 1687.73 1894.61 1696.3 C 1891.18 1690.87 1882.85 1685.16 1876.77 1677.64 C 1880.02 1688.47 1880.71 1694.38 1881.14 1705.63 C 1876.1 1700.05 1872.62 1693.29 1868.9 1686.75 C 1868.82 1696.97 1869.11 1702.36 1870.19 1712.67 C 1866.43 1707.5 1863.99 1702.4 1859.54 1697.88 L 1858.46 1698.49 C 1857.8 1704.12 1858.9 1709.98 1859.61 1715.67 C 1854.51 1709.41 1850.91 1704.25 1846.34 1697.55 C 1847.47 1706.08 1848.52 1714.62 1849.49 1723.17 C 1842.56 1716.67 1840.69 1712.99 1835.6 1704.9 C 1836.86 1712.5 1838.39 1720.21 1837.32 1727.87 L 1836.29 1728 C 1833.03 1723.54 1831.06 1716.24 1829.2 1710.8 C 1828.47 1724.72 1827.68 1737.91 1827.86 1751.85 C 1852.19 1729.94 1915.96 1712.33 1947.79 1702.8 C 1969.51 1695.52 1991.54 1685.8 2006.95 1668.33 C 2005.47 1665.69 2002.98 1660.28 1999.8 1660.17 C 2000.08 1663.72 2000.08 1664.02 2001.55 1667.23 L 2005.31 1675.54 C 1993.83 1667.42 1990.01 1659.68 1982.28 1648.04 C 1984.74 1658.18 1989.63 1667.1 1994.26 1676.39 C 1984.56 1671.12 1979.54 1667.39 1975.48 1657.68 C 1974.71 1655.85 1972.56 1655.27 1970.68 1654.9 C 1970.28 1657.19 1974.09 1663.4 1975.46 1666.04 C 1978.34 1671.63 1978.06 1674.66 1978.39 1680.9 C 1969.46 1672.52 1965.66 1663.23 1958.33 1653.03 C 1960.62 1664.5 1966.76 1671.65 1968.49 1680.87 L 1967.21 1681.97 L 1964.62 1681.37 C 1957.44 1675.57 1951.91 1661.89 1947.01 1653.05 C 1949.35 1663.78 1953.66 1674.26 1956.25 1685.55 C 1946.93 1677.04 1941.99 1667.68 1934.1 1657.66 C 1936.47 1670.07 1940.12 1678.79 1944.57 1690.5 C 1936.96 1679.19 1931.09 1670.42 1922.81 1659.39 L 1923.04 1660.3 C 1925.7 1671.1 1928.82 1679.23 1932.64 1689.64 C 1926.79 1682.37 1920.42 1673.11 1914.87 1666.53 L 1914.25 1666.01 z M 272.082 1699.33 C 269.677 1701.33 270.467 1700.12 269.524 1703 C 270.07 1707.86 271.163 1709.35 275.825 1710.1 L 273.594 1712.08 C 272.349 1718.69 275.474 1719.96 281.238 1720.44 L 283.171 1718.15 C 283.597 1715.12 283.416 1715.28 282.116 1712.43 C 278.501 1709.49 280.519 1710.26 275.825 1710.1 C 279.006 1706.76 279.12 1706.67 278.367 1702.43 C 275.816 1699.82 275.581 1700.06 272.082 1699.33 z M 1915.47 1735.48 C 1917.17 1740.07 1919.29 1741.4 1923.41 1743.43 L 1923.82 1743.79 L 1923.41 1743.43 C 1921.33 1739.02 1919.77 1737.31 1915.47 1735.48 z M 1856.4 1745.77 C 1850.26 1747.93 1831.71 1755.6 1829.65 1761.71 C 1821.44 1786.01 1836.94 1805.97 1860.36 1817.71 C 1876.51 1825.81 1929.92 1836.33 1928.28 1801.29 C 1928.16 1798.58 1922.07 1795.01 1919.83 1794.62 C 1910.28 1789.27 1891.44 1802.92 1888.39 1797.74 C 1888.9 1793.99 1889.53 1794.1 1888.12 1791.3 C 1882.03 1790.8 1877.73 1797.57 1871.74 1794.4 C 1874.57 1788.88 1889.86 1783.62 1891.25 1776.85 C 1888.53 1774.88 1889.95 1775.7 1886.07 1775.33 C 1876.15 1780.98 1870.96 1788.05 1858.33 1793.92 C 1864.74 1787.75 1877.27 1776.8 1880.48 1769.12 L 1879.69 1768 C 1873.55 1769.18 1856.79 1781.58 1850.61 1785.96 C 1858.67 1773.84 1865.78 1768.31 1875.34 1757.76 C 1876.09 1756.93 1875.94 1754.53 1875.89 1753.35 C 1868.89 1750.89 1850.5 1777.21 1843.76 1782.46 C 1849.09 1767.41 1861.52 1753.12 1872.91 1742.3 C 1857.17 1750.28 1851.89 1757.95 1840.48 1770.85 C 1842.73 1763.59 1851.34 1751.5 1856.4 1745.77 L 1856.99 1745.25 L 1856.4 1745.77 z M 165.511 1758.54 L 163.456 1759.17 L 163.005 1759.76 L 163.456 1759.17 L 165.511 1758.54 L 165.948 1757.01 L 165.511 1758.54 z M 176.04 1758 L 174.769 1759.14 C 169.005 1763.57 160.739 1766.76 157.737 1769.3 L 158.152 1769.86 C 164.758 1769.23 171.963 1769.66 176.247 1764.95 C 176.738 1761.13 176.947 1763.05 174.769 1759.14 L 176.04 1758 C 179.232 1758.63 178.108 1759.77 182.171 1759.96 L 185.78 1755.67 L 182.064 1753.74 C 178.399 1754.4 179.243 1754.62 176.04 1758 z M 135.095 1770.95 C 140.858 1769.3 150.826 1768.2 154.663 1763.78 C 151.692 1759.34 134.4 1759.71 129.414 1763.85 C 122.88 1769.28 122.546 1782.74 118.341 1786.62 C 116.536 1778.52 119.323 1768.97 123.717 1762.05 L 131.894 1748.99 C 120.315 1757.27 108.314 1775.07 115.925 1790.41 C 118.412 1795.42 131.4 1799.08 137.189 1801.1 C 126.209 1799.34 120.302 1799.65 113.208 1791.12 C 114.33 1802.43 115.554 1811.53 125.008 1819.32 C 141.01 1832.52 168.225 1826.04 185.836 1819.69 C 198.939 1813.99 206.918 1809.07 212.787 1794.99 C 213.471 1793.3 214.084 1791.59 214.625 1789.85 C 211.614 1783.44 210.447 1781.45 206.36 1775.66 C 191.003 1783.91 179.442 1791.32 162.185 1794.45 C 170.847 1787.44 199.113 1783.12 201.331 1771.11 L 200.157 1769.19 C 198.299 1768.77 195.896 1768.11 194.532 1769.95 C 188.377 1778.25 183.967 1781.62 175.088 1786.85 C 179.612 1780.25 181.199 1778.15 183.964 1770.72 L 186.792 1772.32 C 189.815 1770.76 191.552 1768.11 193.774 1765.44 C 193.485 1762.35 194.024 1763.83 191.351 1761.22 C 185.295 1761.27 181.6 1775.05 168.059 1774.32 C 156.783 1773.71 146.105 1770.41 135.095 1770.95 z M 1907.73 1765.58 C 1910.45 1772.51 1916.93 1777 1924.12 1778.53 C 1929.3 1783.68 1927.34 1785.4 1930.97 1787.6 L 1931.94 1786.69 C 1930.95 1775.46 1931.03 1767.56 1926.41 1757.1 C 1925.86 1756.37 1924.85 1755.44 1924.17 1754.76 C 1923.53 1761.09 1932.59 1774.6 1928.11 1780.21 L 1924.12 1778.53 C 1922.51 1774.97 1911.87 1766.6 1907.73 1765.58 z M 971.674 26.4427 C 932.07 28.3194 896.542 31.3629 857.818 41.2901 C 821.293 50.6537 782.412 75.7633 801.943 119.675 C 841.231 102.515 806.054 77.0771 880.239 71.7926 L 952.234 63.5778 C 969.543 61.5483 1011.98 53.5756 1026.6 65.7206 C 1042.91 79.2731 1025.78 97.692 1053.36 104.504 C 1065.05 47.439 1021.64 24.2185 971.674 26.4427 z M 1034.54 26.756 C 1048.7 37.1217 1053.13 41.9644 1064.68 54.7419 C 1101.73 61.8383 1139.32 66.0413 1176.54 72.0864 C 1192.73 74.7167 1212.59 78.1446 1222.51 92.7023 C 1226.57 98.7149 1229.08 107.121 1231.08 114.082 C 1235.21 115.332 1238.96 116.897 1243.17 116.594 L 1244.28 115.787 C 1247.32 96.0359 1247.11 82.2962 1234.66 65.2057 C 1220.35 45.5758 1201.53 41.3107 1178.95 38.1354 C 1131.11 31.2198 1082.87 27.4186 1034.54 26.756 z M 1242.29 53.5576 C 1247.75 60.706 1251.34 65.8348 1254.99 74.1823 C 1282.75 80.0289 1312.92 89.5575 1340.26 97.4488 C 1356.49 102.132 1372.8 108.274 1389.26 112.092 C 1395 108.56 1396.85 107.399 1403.22 104.964 C 1406.28 104.037 1408.69 103.996 1410.1 101.957 C 1406.13 99.3087 1389.03 93.8427 1383.89 92.1571 C 1340.37 77.8924 1287.18 60.9928 1242.29 53.5576 z M 798.59 55.1718 C 741.372 67.6949 685.161 84.4409 630.418 105.272 L 642.254 108.603 C 648.118 110.995 652.294 112.622 657.804 115.767 C 672.439 111.716 688.273 105.031 703.129 100.225 C 731.261 91.0253 759.725 82.8709 788.461 75.7785 C 791.327 67.8556 795.778 62.9115 800.385 55.8234 L 799.554 55.0036 L 798.59 55.1718 z M 993.695 73.4196 C 992.12 74.1947 990.943 74.3305 990.621 75.668 C 988.408 84.8507 991.185 100.901 995.22 108.865 C 1001.6 121.458 1017.41 131.495 1030.82 134.789 C 1052.57 140.131 1080.56 140.613 1103.34 142.421 C 1129.18 144.472 1158.75 148.021 1184.25 148.215 L 1186.19 147.729 C 1183.33 141.897 1179.94 137.496 1176.67 132.05 C 1149.98 129.271 1122.36 128.199 1096.21 125.496 C 1075.31 123.335 1042.56 123.47 1028.79 106.301 C 1012.51 86.0109 1028.66 72.8535 993.695 73.4196 z M 850.804 88.7667 C 846.205 91.0675 843.937 92.059 839.771 95.1942 C 836.568 105.976 831.795 122.066 820.719 127.819 C 808.492 134.17 793.981 137.859 781.06 142.728 C 747.525 153.546 714.427 166.698 680.728 176.823 C 671.32 178.785 662.692 181.126 653.281 179.223 C 636.61 175.852 635.165 146.162 615.716 155.556 C 603.875 161.275 607.763 180.542 613.664 189.265 C 621.824 197.737 628.438 201.425 639.076 205.819 C 669.291 218.298 703.372 205.345 732.804 194.223 C 767.847 180.98 813.446 171.273 842.554 147.181 C 857.168 135.086 866.271 106.501 855.486 90.4979 C 854.678 89.221 852.383 88.8273 850.804 88.7667 z M 1188.01 89.2987 C 1184.67 102.66 1181.62 119.066 1190.13 131.413 C 1209.66 159.201 1248.68 171.646 1279.59 182.33 C 1307.96 192.14 1337.06 202.476 1366.12 209.796 C 1399.9 218.303 1419.81 205.409 1438.98 178.59 C 1441.96 174.189 1445.91 168.655 1448.53 164.2 C 1437.63 158.792 1431.12 157.019 1419.19 154.288 C 1410.24 172.423 1402.66 186.061 1380.11 179.066 C 1335.61 165.262 1291.9 148.986 1247.59 134.512 C 1229.53 128.615 1215.65 124.796 1210.15 104.753 L 1209.69 103.038 C 1209.2 101.324 1208.73 99.6054 1208.27 97.8842 C 1200.55 92.945 1197.26 91.4061 1188.01 89.2987 z M 1421.72 113.232 C 1398.83 119.758 1374.37 136.224 1378.29 163.518 C 1378.66 166.07 1390.04 167.975 1393.35 164.781 C 1403.75 154.746 1404.45 137.697 1423.72 141.018 C 1473.11 157.819 1528.33 189.188 1571.87 218.067 C 1579.17 222.908 1585.5 229.087 1590.15 235.145 C 1597.86 250.18 1597.76 262.443 1591.27 277.641 C 1601.25 268.553 1613.47 256.323 1614.09 242.011 C 1614.83 225.076 1601.98 202.806 1590.57 190.814 C 1567.04 166.071 1466.2 113.796 1433.07 112.644 C 1429.31 112.513 1425.47 112.918 1421.72 113.232 z M 606.082 116.385 C 596.453 117.225 587.894 119.249 578.811 122.569 C 547.982 133.837 462.81 179.252 442.824 203.008 C 431.834 216.07 428.187 233.853 429.785 250.55 C 431.089 264.171 437.203 279.61 447.917 288.586 C 449.423 289.848 450.93 290.48 452.745 291.174 L 455.353 290.835 C 459.844 283.013 443.517 257.027 457.792 234.061 C 461.106 230.294 464.404 227.09 468.474 224.153 C 488.551 209.658 602.007 143.172 620.947 142.127 C 630.507 141.599 639.314 145.198 646.187 151.752 C 649.981 155.369 652.761 159.779 655.29 164.329 C 663.388 163.458 666.45 162.905 674.306 160.786 C 666.744 127.241 637.727 114.494 606.082 116.385 z M 984.538 120.422 C 945.482 124.821 905.069 128.148 866.408 132.843 C 863.16 138.706 860.052 144.623 856.24 150.132 L 869.927 148.297 L 1000.03 133.69 C 997.229 130.544 989.909 121.384 986.986 120.024 L 984.538 120.422 z M 1022.31 144.37 C 1018.93 154.2 1018.18 247.261 1017.58 264.203 C 1013.2 370.911 1009.51 477.646 1006.5 584.402 C 1004.46 661.816 1003.36 740.314 1007.24 817.828 C 1007.86 830.13 1021.2 888.756 1026.12 899.025 L 1026.96 899.505 L 1027.17 897.249 L 1026.04 847.277 C 1025.47 824.895 1022.22 802.579 1030.69 781.227 C 1034.11 772.615 1042.21 762.498 1047.77 754.605 L 1031.07 286.99 C 1029.87 254.097 1028.5 221.21 1026.96 188.33 C 1026.63 180.378 1026.48 151.226 1024.65 145.698 L 1022.31 144.37 z M 1168.08 161.613 C 1160.7 192.4 1155.05 223.553 1148.9 254.599 L 1132.14 335.496 C 1106.48 455.762 1084.09 576.701 1064.98 698.18 C 1063.91 705.007 1057.34 740.308 1058.94 744.502 C 1059.33 744.306 1060.81 743.62 1061.09 743.376 C 1073 731.159 1088.48 715.181 1099.63 702.409 C 1102.74 688.59 1105.26 667.167 1107.27 652.775 L 1118.59 570.842 C 1130.91 484.988 1142.63 399.051 1153.77 313.035 L 1167.87 209.248 C 1168.99 201.111 1173.8 169.727 1173.4 163.267 C 1171.27 161.538 1170.93 161.854 1168.08 161.613 z M 874.791 162.105 C 875.296 178.771 880.879 211.507 883.044 229.509 C 891.701 297.808 901.193 365.997 911.518 434.063 L 935.074 593.646 C 937.822 611.936 942.769 653.919 947.19 669.303 C 972.059 684.85 980.009 694.061 987.959 723.907 C 990.361 732.925 992.213 746.991 994.79 755.303 C 994.872 719.459 980.898 658.803 973.893 620.754 C 961.045 553.761 947.321 486.939 932.724 420.305 L 895.92 245.175 C 891.255 223.929 887.086 202.575 882.341 181.359 C 880.917 174.99 880.793 169.779 878.202 163.775 C 876.329 162.584 876.862 162.745 874.791 162.105 z M 732.884 209.315 L 730.538 212.666 C 732.314 221.028 743.676 252.384 747.121 263.143 C 759.795 303.786 772.89 344.297 786.404 384.669 C 798.422 420.108 810.136 455.649 821.545 491.289 C 833.459 529.151 845.051 568.72 857.863 606.082 L 910.045 643.782 C 910.363 642.891 791.599 348.098 780.445 320.514 L 753.108 253.054 C 750.15 245.768 737.886 212.447 732.884 209.315 z M 618.397 215.124 C 588.797 230.982 548.38 251.021 520.268 268.208 C 521.269 272.846 521.459 277.499 524.566 280.42 C 527.194 280.115 527.065 280.08 529.457 278.885 C 557.669 265.184 585.104 247.783 612.917 233.085 C 619.003 229.869 625.256 226.226 631.043 222.503 C 626.197 219.267 623.799 217.653 618.397 215.124 z M 1419.89 215.667 L 1414.46 218.5 C 1417.29 221.434 1444.63 236.422 1449.76 239.383 C 1474.81 253.855 1499.77 267.608 1524.31 283.052 L 1525.65 283.291 C 1525.99 277.963 1525.13 273.055 1525.37 267.629 C 1492.8 252.532 1451.66 232.317 1419.89 215.667 z M 1560.06 228.659 C 1557.19 232.166 1553.01 236.647 1551.41 240.682 C 1553.58 241.093 1554.1 240.007 1556.63 238.34 C 1560.17 236.697 1562.44 235.711 1565.69 233.609 L 1565.79 232.208 C 1563.23 230.241 1562.96 230.068 1560.06 228.659 z M 478.364 236.033 C 447.351 250.417 478.729 273.982 471.543 293.735 C 468.916 300.956 443.554 316.906 434.528 322.558 C 394.563 347.583 341.216 389.975 296.582 403.118 C 302.439 413.128 305.851 418.43 317.847 421.471 C 328.782 421.146 337.844 418.459 347.808 414.062 C 377.929 400.771 472.825 339.015 493.283 317.141 C 502.273 307.527 507.639 297.096 506.943 283.598 C 506.326 271.639 501.406 249.279 492.593 241.097 C 488.621 237.408 483.62 236.331 478.364 236.033 z M 1454.12 256.455 C 1413.34 331.235 1364.64 403.221 1321.78 476.927 C 1313.07 491.904 1303.55 507.2 1294.25 521.801 L 1305.68 522.071 C 1313.07 523.485 1316.27 524.5 1323.22 527.636 C 1337.09 498.171 1459.6 265.14 1459.65 261.011 C 1458.1 258.395 1456.75 257.959 1454.12 256.455 z M 1582.26 258.709 C 1581.07 262.365 1580.6 263.085 1581.17 266.962 C 1581.69 267.638 1582.64 268.959 1583.21 269.492 C 1583.85 265.771 1584.66 263.409 1583.48 259.858 L 1582.26 258.709 z M 1715.34 330.399 C 1695.9 332.588 1680.69 346.117 1668.87 361.071 C 1667.82 362.4 1666.84 363.782 1665.93 365.21 L 1673.73 373.593 C 1685.41 366.275 1713.37 348.437 1725.19 344.994 C 1744.93 342.348 1761.24 351.522 1777.31 361.86 L 1784.61 356.298 C 1758.54 340.398 1746.63 331.328 1715.34 330.399 z M 472.75 354.611 C 471.962 357.837 471.337 358.262 473.668 361.695 C 478.311 368.531 483.998 375.399 489.179 381.861 L 518.678 418.655 C 557.341 467.477 596.641 515.791 636.567 563.585 L 649.436 557.073 L 658.12 553.014 C 641.434 533.542 623.17 514.713 605.391 496.196 C 561.637 450.626 519.245 403.947 476.69 357.268 C 475.648 356.126 474.154 355.207 472.75 354.611 z M 1567.78 354.462 C 1527.57 402.41 1483.02 449.495 1442.34 497.256 C 1427.51 514.676 1406.17 535.807 1393.48 553.933 L 1405.72 558.981 C 1410.02 560.706 1414.32 562.405 1418.64 564.079 C 1431.09 549.678 1445.77 528.578 1457.75 513.018 L 1539.77 407.209 C 1551.52 391.961 1562.81 375.357 1574.83 360.502 C 1572.19 357.882 1570.98 356.159 1567.78 354.462 z M 1724.94 359.175 C 1722.21 360.639 1720.74 360.697 1720.04 362.848 C 1738.95 375.109 1742.59 375.815 1759.93 394.005 C 1768.06 402.533 1786.27 423.038 1794.36 428.735 C 1798.65 429.339 1804.74 430.007 1808.8 431.041 L 1811.1 431.539 C 1810.67 429.355 1749.35 364.633 1742.66 359.059 C 1737.03 359.02 1730.5 358.795 1724.94 359.175 z M 272.281 376.637 C 258.426 394.207 245.427 412.435 233.331 431.259 L 244.127 429.28 C 247.265 428.864 251.212 428.219 254.291 427.974 C 263.963 415.167 272.258 401.878 282.517 389.613 C 280.03 385.9 275.827 378.914 272.281 376.637 z M 406.882 394.953 C 382.799 410.771 365.463 424.282 337.515 432.735 C 324.911 449.082 312.51 466.087 299.131 481.776 C 279.703 504.556 265.054 520.691 233.118 516.055 C 236.002 519.385 237.74 521.63 241.213 524.372 C 262.99 535.406 293.111 534.567 312.334 517.897 C 336.158 497.236 353.806 464.881 374.327 440.706 C 379.174 434.717 407.229 399.127 406.882 394.953 z M 1742.78 398.264 L 1711.3 422.33 L 1718.06 429.537 C 1722.25 427.959 1741.44 408.447 1745.66 403.893 C 1745.83 401.495 1744.62 399.996 1742.78 398.264 z M 242.42 442.268 C 179.955 452.414 158.303 530.804 130.491 578.406 C 111.412 611.062 115.45 648.427 147.219 670.698 C 153.185 675.043 167.786 685.741 173.687 676.829 C 173.302 674.288 172.469 672.709 170.322 671.158 C 148.838 654.818 139.548 639.695 150.582 611.914 C 156.67 598.416 164.221 584.801 171.531 571.936 C 187.853 543.21 201.32 513.164 222.463 487.52 C 239.058 467.392 257.66 466.779 281.737 469.907 C 274.899 450.199 264.775 440.025 242.42 442.268 z M 1795.65 442.072 C 1778.59 446.846 1773.08 459.799 1764.24 474.296 C 1775.55 470.202 1789.2 464.98 1800.96 470.325 C 1809.97 474.364 1817.97 480.336 1824.41 487.818 C 1830.85 495.451 1846.28 525.282 1852.43 536.148 L 1877.12 579.326 C 1896.53 612.887 1914.15 636.826 1875.9 666.767 C 1875.61 666.995 1875.41 670.38 1875.41 670.889 L 1877.9 682.386 C 1893.54 674.548 1917.25 658.366 1922.66 640.886 C 1925.55 631.531 1926.43 612.237 1923.08 602.853 C 1910.36 567.294 1887.07 530.909 1869.91 497.271 C 1855.01 468.039 1838.28 454.234 1807.37 443.399 C 1803.66 442.101 1799.54 441.929 1795.65 442.072 z M 1668.09 468.845 C 1616.7 512.938 1559.13 556.007 1506.71 600.305 L 1518.35 604.952 C 1522.81 606.675 1527.54 608.604 1532.04 610.159 C 1542.71 602.554 1554.6 590.003 1564.18 580.719 C 1600.27 545.758 1638.28 512.455 1673.72 476.862 C 1672.37 474.693 1669.88 470.158 1668.09 468.845 z M 369.587 471.166 C 369.329 472.297 368.149 475.821 368.938 476.483 C 409.839 510.834 449.539 547.094 490.11 581.966 C 502.837 592.905 515.369 605.381 528.635 615.054 L 540.484 608.937 C 543.669 607.198 547.22 605.369 550.238 603.409 C 528.932 584.797 493.918 561.819 469.641 543.79 L 408.814 498.595 C 399.953 492.004 378.997 476.072 369.587 471.166 z M 1786.89 479.991 L 1770.65 488.984 C 1778.41 495.743 1786.48 500.014 1796.7 501.78 C 1802.9 500.62 1808.82 500.263 1809.11 492.888 C 1805.89 485.714 1794.52 479.05 1786.89 479.991 z M 260.699 481.31 C 251.88 482.497 233.443 488.3 233.496 498.988 C 236.965 504.237 243.673 503.142 249.565 502.945 C 261.695 498.999 268.795 492.06 277.892 483.476 C 271.932 481.935 267.016 480.626 260.699 481.31 z M 1294.96 535.203 C 1272.17 540.186 1264.78 551.748 1249.58 567.896 C 1237.64 580.641 1225.63 593.31 1213.53 605.9 L 1103.62 718.72 C 1085.6 737.173 1064.92 756.611 1049.22 776.803 C 1037.36 792.052 1039.26 815.883 1040.33 833.433 L 1042.73 876.11 C 1044.9 919.501 1047.24 962.842 1049.71 1006.21 C 1051.42 1036.24 1055.07 1068.85 1055.1 1098.68 C 1057.38 1102.14 1059.78 1105.96 1062.14 1109.31 C 1074.92 1111.64 1095.7 1120.98 1108.6 1126.27 L 1165.68 1149.45 C 1238.44 1178.93 1311.16 1208.68 1383.59 1238.98 C 1401.56 1246.5 1419.49 1255.58 1437.28 1263.64 C 1444.26 1262.55 1450.32 1261.5 1457.23 1260.04 C 1465.64 1258.12 1475.79 1256.07 1483.9 1253.56 C 1476.27 1249.13 1467.11 1243.64 1459.13 1240.01 C 1453.8 1241.62 1448.06 1243.45 1442.73 1244.89 C 1456.24 1223.99 1472.16 1206.72 1487.42 1187.16 L 1573.01 1076.35 C 1624.32 1009.55 1619.76 1016.45 1633.86 933.03 L 1653.6 819.074 L 1666.42 747.636 C 1670.57 725.002 1682.45 691.908 1656.9 678.22 C 1642.4 670.452 1627.04 664.407 1611.89 657.976 C 1583.44 645.848 1554.9 633.937 1526.27 622.242 C 1475.85 601.427 1425.22 581.119 1374.39 561.32 C 1356.18 554.233 1312.03 533.58 1294.96 535.203 z M 294.351 541.136 C 288.457 542.586 282.335 544.193 276.443 545.533 C 266.781 562.881 257.607 580.833 248.416 598.46 C 241.799 611.151 233.132 626.266 227.515 639.394 C 230.111 645.868 232.294 651.047 234.094 657.799 L 235.38 658.745 C 238.129 656.114 244.021 642.182 245.977 638.108 C 259.665 609.601 273.986 581.536 289.364 553.902 C 291.552 549.971 294.204 546.028 295.905 541.933 C 294.852 540.981 295.416 541.126 294.351 541.136 z M 717.854 542.251 C 702.833 545.084 672.836 561.357 657.359 568.643 L 511.276 639.046 C 482.121 652.99 453.048 667.106 424.059 681.394 C 406.025 690.236 379.723 699.445 368.051 715.883 C 356.759 731.786 359.834 747.018 363.395 764.681 C 378.338 835.697 393.657 906.633 409.352 977.487 C 415.305 1004.84 421.736 1032.09 428.642 1059.22 C 431.075 1068.99 433.976 1083.66 437.021 1092.76 C 444.945 1100.23 469.574 1116.86 479.362 1123.76 L 563.552 1183.15 C 583.869 1197.64 603.438 1212.79 624.149 1226.83 C 642.569 1239.33 646.655 1247.82 671.968 1244.45 C 683.964 1240.82 702.755 1229.35 714.589 1223.22 L 811.295 1172.12 L 947.497 1100.18 C 969.1 1088.62 991.424 1077.45 1011.97 1064.17 C 1016.22 1061.42 1020.92 1050.52 1023.86 1045.74 C 1032.33 1031.95 1025.39 1007 1022.76 991.15 L 1009.72 916.475 C 1002.47 873.634 994.733 830.878 986.505 788.214 C 981.138 759.713 977.558 730.727 966.447 703.951 C 964.105 698.306 957.909 694.215 953.298 690.35 C 926.033 670.322 897.364 651.508 869.814 632.022 C 841.452 611.702 812.864 591.698 784.058 572.013 C 762.48 557.14 745.359 539.765 717.854 542.251 z M 1753.9 548.168 C 1760.36 559.577 1812.45 650.634 1814.92 652.654 C 1815.74 650.614 1815.58 651.588 1815.61 649.774 C 1817.19 644.216 1818.69 638.786 1820.56 633.312 C 1802.04 604.813 1787.77 582.806 1771.74 552.725 C 1764.66 551.31 1760.74 550.403 1753.9 548.168 z M 283.945 590.255 C 282.776 593.528 282.009 593.727 282.94 596.215 C 295.643 605.406 311.998 614.814 325.466 623.563 C 342.075 634.446 358.888 645.017 375.896 655.268 C 384.95 660.8 396.732 668.38 406.202 672.721 C 411.814 671.145 413.723 670.591 419.106 668.015 L 422.775 665.485 L 422.766 663.839 C 414.399 658.022 376.298 639.048 365.492 633.559 C 339.224 620.215 310.026 602.631 283.945 590.255 z M 1762.45 592.927 C 1749.16 600.524 1648.16 653.522 1646.47 657.963 C 1648.81 659.721 1649.21 660.113 1651.83 661.336 L 1661.13 665.386 C 1671.33 658.91 1762.19 601.905 1765.13 597.046 C 1764.39 594.522 1764.42 594.711 1762.45 592.927 z M 1873.62 604.881 C 1856.45 613.552 1835.56 630.093 1829.48 649.585 C 1819.54 681.453 1844.3 722.517 1854.28 753.002 C 1862.85 779.181 1875.33 805.001 1886.42 830.018 C 1897.23 851.564 1912.22 865.446 1937.33 866.106 C 1947.46 864.584 1951.45 863.762 1961.05 859.273 C 1959.21 855.671 1957.27 851.637 1955.29 848.161 C 1938.07 846.352 1926.22 841.634 1919.72 824.41 C 1901.97 777.374 1881.58 731.061 1864.77 683.717 C 1857.43 663.049 1859.87 640.07 1878.06 625.695 C 1879.89 624.262 1881.75 622.863 1883.63 621.499 C 1882.23 615.323 1881.67 609.551 1876.91 605.338 C 1876.1 605.211 1874.36 604.882 1873.62 604.881 z M 170.217 617.098 C 167.413 618.425 164.928 618.876 163.942 621.026 C 176.632 637.452 190.697 646.763 187.269 670.413 C 185.48 682.757 130.106 815.314 121.464 830.067 C 118.183 835.668 112.717 840.308 107.459 844.038 C 103.527 846.826 88.513 852.716 87.5351 854.56 C 92.6567 858.69 106.467 856.999 113.038 856.387 C 130.753 852.369 150.114 843.124 159.163 826.633 C 172.954 801.502 185.099 772.21 195.325 745.219 C 205.107 719.397 226.129 684.576 219.46 656.908 C 213.583 632.526 196.011 616.506 170.217 617.098 z M 1937.41 629.785 C 1936.09 643.069 1933.7 649.124 1927.42 660.907 C 1945.04 701.41 1964.9 749.233 1974.59 792.274 C 1981.14 795.767 1984.03 797.552 1989.71 802.642 L 1992.86 805.821 L 1993.74 805.325 C 1991.95 792.766 1987.58 779.705 1984.37 767.447 C 1974.48 729.717 1961.1 693.827 1947.35 657.416 C 1945.41 652.27 1939.42 631.994 1937.41 629.785 z M 159.231 634.576 C 160.274 643.441 164.799 657.806 175.566 658.521 C 172.564 650.509 166.159 639.692 159.231 634.576 z M 1883.44 636.61 C 1880.29 640.421 1876.66 644.29 1876.34 649.349 L 1877.25 650.292 C 1880.34 646.191 1883.01 643.301 1884.63 638.452 C 1884.23 637.838 1883.84 637.224 1883.44 636.61 z M 108.581 637.711 C 96.2387 670.814 84.9562 704.303 74.7506 738.126 C 68.603 757.838 59.0885 787.544 55.9757 807.997 L 61.6519 803.039 C 66.8388 798.914 72.1015 794.885 77.4372 790.954 C 85.1029 762.703 93.7174 734.718 103.266 707.046 C 107.969 692.983 115.555 674.031 119.077 660.494 C 116.884 656.494 109.047 638.164 108.581 637.711 z M 1830.27 734.056 C 1778.56 750.315 1726.12 762.881 1675.44 779.065 C 1673.93 784.627 1669.78 796.654 1671.65 801.646 L 1673.34 801.696 C 1716.34 786.107 1760.09 770.09 1801.8 751.467 C 1808.46 748.497 1827.11 740.856 1832.22 737.195 L 1832.82 735.317 C 1832 734.846 1831.1 734.189 1830.27 734.056 z M 216.69 738.266 C 215.443 742.571 214.664 742.407 215.992 745.592 C 223.932 749.759 236.876 754.395 245.679 757.795 L 300.414 778.592 C 313.819 783.672 344.697 796.681 356.746 799.801 C 357.34 795.656 354.76 785.084 353.82 780.461 C 315.282 769.69 277.005 756.664 238.619 745.251 C 231.422 743.111 223.886 740.087 216.69 738.266 z M 105.581 795.368 C 79.6299 798.733 48.1951 824.48 43.5434 849.526 C 34.5956 897.702 33.7397 955.341 32.2796 1003.93 C 35.0367 1000.93 37.9334 997.649 40.7971 994.796 L 48.6017 988.703 C 55.5089 946.205 60.4728 903.275 70.5786 861.39 C 74.7441 844.126 80.1434 827.227 94.7292 816.182 C 102.864 809.564 116.088 810.926 120.058 804.103 C 119.311 796.241 112.057 795.94 105.581 795.368 z M 1953.68 801.328 C 1944.15 802.574 1937.33 804.36 1928.29 807.89 C 1929.56 812.468 1930.41 817.589 1933.41 821.014 C 1936.62 821.963 1942.24 821.828 1944.27 822.585 C 1975.45 834.217 1977.23 878.124 1980.95 905.025 C 1984.15 928.23 1983.11 975.024 1992.6 993.843 C 1991.88 998.967 1991.04 1004.3 1990.48 1009.42 C 1997.44 1005.31 2001.04 1003.15 2008.49 1000.18 C 1992.66 1022.42 1981.85 1040.27 1951.1 1038.89 C 1949.66 1041.87 1947.14 1046.26 1946.93 1049.38 C 1949 1052.78 1951.4 1053.74 1955.22 1054.66 C 1966.85 1057.48 1977.88 1055.99 1987.94 1049.36 C 2002.71 1039.62 2013.4 1021.95 2016.46 1004.64 C 2020.64 980.994 2012.51 893.039 2006.78 868.151 C 2002.96 851.534 1997.93 834.492 1987.88 820.473 C 1981.1 811.024 1971.46 802.737 1959.47 801.399 C 1957.61 801.192 1955.54 801.156 1953.68 801.328 z M 110.715 820.883 C 102.394 824.712 95.5458 828.887 90.7629 837.079 L 90.9171 838.881 L 92.4797 839.16 C 99.4714 835.528 110.086 830.298 112.506 822.256 C 111.326 820.915 111.99 821.268 110.715 820.883 z M 1944.9 835.62 L 1946.01 835.868 L 1944.9 835.62 z M 157.604 846.81 C 146.474 855.299 140.277 859.784 127.157 864.783 C 127.58 889.272 122.227 919.365 118.933 943.966 C 116.119 964.985 113.065 989.041 107.278 1009.34 C 104.711 1018.34 101.936 1023.3 96.051 1030.16 C 87.5345 1040.1 71.9387 1040.69 68.2903 1048.58 C 68.5089 1052.73 67.8608 1050.85 70.6302 1054.29 L 74.7446 1055.71 C 90.9113 1057.9 103.479 1056.31 116.741 1046.15 C 133.789 1033.09 145.925 1006.44 146.013 984.825 C 146.142 953.012 170.298 872.885 157.604 846.81 z M 1889.9 856.748 C 1893.12 873.956 1894.22 893.793 1895.17 911.392 C 1896.92 943.909 1900.61 976.573 1902.41 1009 C 1905.05 1004.95 1907.38 1001 1910.68 997.461 C 1913.4 995.104 1916.12 992.63 1918.99 990.48 C 1913.68 950.08 1910.69 912.914 1911.63 871.964 C 1902.47 868.222 1896.59 864.22 1889.9 856.748 z M 1872.66 885.406 C 1830.58 890.438 1787.25 897.841 1744.83 903.515 L 1688.59 911.029 C 1677.06 912.574 1661.78 914.215 1650.8 916.984 C 1649.56 921.845 1645.16 935.465 1647.67 939.253 C 1648.65 939.184 1650.3 939.113 1651.22 938.974 C 1712.82 926.197 1774.25 912.608 1835.49 898.212 C 1841.88 896.699 1874.69 890.181 1877.51 887.533 L 1877.52 885.698 C 1874.61 884.555 1876.16 884.839 1872.66 885.406 z M 175.32 889.958 L 174.395 894.453 C 174.917 894.95 175.342 895.573 175.96 895.944 C 179.838 898.265 365.374 934.417 386.663 937.525 C 386.315 931.827 383.393 922.563 381.771 916.708 C 338.877 911.659 296.037 906.156 253.259 900.201 C 229.66 897.116 198.332 894.034 175.32 889.958 z M 1952.89 987.161 C 1899.04 1000.54 1899.17 1050.54 1897.68 1095.66 C 1896.57 1129 1892.74 1163.12 1892.91 1196.59 C 1898.74 1190.81 1900.99 1188.65 1907.96 1184.15 L 1918.13 1178.84 C 1921.12 1139.03 1924.69 1098.39 1931.74 1059.12 C 1935.17 1040.01 1944.56 1020.76 1958.94 1007.68 C 1965.25 1001.81 1973.81 1000.25 1978.75 995.41 C 1976.95 986.819 1959.9 986.413 1952.89 987.161 z M 82.7004 988.396 C 53.2903 991.69 32.0016 1012.68 29.5325 1042 C 25.7977 1086.36 36.0172 1134.72 40.9846 1178.68 C 45.3432 1217.24 67.1503 1252.15 110.897 1247.69 L 122.928 1244.77 C 121.08 1239.3 119.124 1233.04 116.993 1227.76 C 99.9545 1232.8 89.1659 1228.77 83.0353 1211.16 C 66.2846 1163.07 65.1536 1109.33 57.7907 1059.13 C 53.2467 1027.32 65.8817 1010.01 95.9757 1001.09 C 96.9951 997.32 98.273 994.731 96.8618 991.251 C 92.6914 987.648 88.4813 988.463 82.7004 988.396 z M 1980.99 1007.91 C 1972.76 1012.13 1963.3 1016.59 1959.34 1025.3 L 1959.42 1027.03 C 1967.51 1024.68 1983.35 1019.29 1980.99 1007.91 z M 89.8993 1017.12 C 84.2642 1018.99 74.3548 1023.69 73.7392 1030.53 L 74.5718 1031.11 C 81.1295 1027.7 85.9869 1024.93 90.4412 1018.73 C 90.2605 1018.19 90.0799 1017.65 89.8993 1017.12 z M 144.791 1031.7 C 139.783 1040.72 138.136 1043.13 130.158 1050.42 C 133.828 1079.05 137.111 1106.29 138.926 1135.19 C 139.85 1149.9 139.803 1164.37 140.59 1178.81 C 144.02 1181.66 148.908 1185.48 151.908 1188.58 L 158.564 1195.97 C 158.034 1175.5 153.87 1040.83 144.791 1031.7 z M 1620.93 1034.55 C 1615.08 1042.01 1609.51 1049.68 1604.23 1057.55 C 1688.87 1058.05 1782.25 1052.34 1867.45 1049.85 C 1874.13 1049.47 1880.46 1049.46 1886.86 1047.51 L 1887.49 1046.47 C 1881.7 1044.46 1872.19 1044.12 1865.91 1043.96 C 1784.58 1041.8 1702.16 1036.21 1620.93 1034.55 z M 394.315 1037.57 C 363.798 1039.08 172.062 1044.73 163.391 1049.72 L 163.123 1051.25 C 169.336 1056.34 175.013 1054.68 182.987 1054.64 C 258.59 1054.54 340.021 1057.03 414.799 1054.99 C 413.397 1048.95 412.091 1042.9 410.882 1036.82 C 405.498 1037.04 399.642 1037.17 394.315 1037.57 z M 2013.8 1040.17 C 2007.26 1047.64 2003.25 1051.6 1995.47 1057.89 C 1994.61 1086.66 1992.35 1115.36 1988.69 1143.9 C 1985.2 1172.9 1981.47 1202.47 1959.97 1225.1 C 1954.01 1231.37 1944.08 1231.33 1935.87 1232.03 C 1934.62 1235.25 1929.99 1243.95 1932.21 1246.34 C 1951.56 1248.6 1967.69 1248.12 1984.74 1235.16 C 2019.23 1208.94 2006.71 1151.7 2011.86 1113.07 C 2013.54 1100.41 2015.88 1050.54 2013.8 1040.17 z M 1550.32 1128.67 C 1544.05 1136.32 1536.32 1146.12 1529.5 1153.13 C 1556.75 1157.26 1583.88 1163.42 1611.52 1167.68 C 1695.76 1180.29 1780.2 1191.51 1864.81 1201.34 C 1873.04 1202.33 1878.3 1202.86 1886.53 1202.92 C 1859.15 1193.38 1822.09 1190.02 1793.2 1182.77 C 1736.12 1168.45 1678.14 1155.34 1620.57 1143.07 C 1605.85 1139.93 1564.43 1129.99 1550.32 1128.67 z M 470.406 1134.12 C 397.071 1153.88 321.648 1169.41 247.699 1186.89 C 225.755 1192.08 203.551 1196.35 181.386 1200.41 C 178.284 1200.98 175.367 1202.19 172.887 1204.14 L 173.005 1205.71 C 179.546 1208.88 196.271 1204.9 204.237 1203.54 C 264.545 1195.45 324.808 1186.04 385.07 1177.31 C 425.863 1171.39 469.179 1166.65 509.492 1159.77 C 505.25 1157.38 469.718 1134.09 470.406 1134.12 z M 88.7936 1184.4 C 88.339 1187.77 92.8325 1198.4 94.2413 1202.18 C 105.162 1202.95 115.598 1206.02 123.041 1214.57 C 136.277 1229.79 145.308 1296.86 152.836 1320.63 C 164.207 1324.01 175.339 1326.8 186.837 1329.71 C 186.86 1320.45 174.661 1282.42 171.818 1270.52 C 159.293 1218.08 153.457 1180.54 88.7936 1184.4 z M 1935.99 1187.25 C 1884.02 1197.5 1890.65 1239.14 1875.33 1280.9 C 1870.49 1294.08 1865.73 1311.56 1862.1 1325.25 C 1871.62 1323.35 1881.16 1321.3 1890.77 1320.03 C 1899.85 1315.12 1917.32 1223.16 1934.48 1212.09 C 1947.35 1203.78 1944.09 1204.79 1959.05 1203.85 C 1961.17 1199.53 1964.05 1194.06 1965.86 1189.76 C 1952.67 1186.92 1949.17 1186.12 1935.99 1187.25 z M 569.812 1203.96 C 546.509 1214.32 519.017 1225.71 495.344 1235.33 C 509.296 1239.11 523.27 1242.8 537.266 1246.41 L 550.807 1249.62 C 569.671 1243.55 588.313 1236.81 606.698 1229.41 C 600.716 1225.5 572.742 1204.22 569.812 1203.96 z M 1486.93 1209.84 C 1482.06 1215.81 1476.41 1223.08 1471.2 1228.58 C 1481.9 1235.19 1494.18 1242.51 1504.47 1249.58 L 1539.12 1241.03 L 1561.77 1235.46 C 1543.18 1227.82 1507.04 1215.45 1486.93 1209.84 z M 99.4307 1215.19 C 103.28 1220.46 103.845 1220.07 110.365 1219.95 C 105.959 1216.62 104.868 1216.13 99.4307 1215.19 z M 1949.53 1216.78 C 1946.22 1218.45 1945.04 1218.34 1943.27 1221 L 1944.62 1221.79 C 1947.53 1220.43 1950.57 1219.72 1951.8 1217.48 L 1949.53 1216.78 z M 50.1145 1236.88 C 53.9985 1263.89 59.1384 1290.71 65.5174 1317.25 L 90.865 1315.09 C 90.7358 1307.46 79.286 1266.87 77.1013 1256.93 C 63.5823 1252.35 59.3249 1246.92 50.1145 1236.88 z M 1997.71 1240.01 C 1989.5 1248.77 1982.37 1252.9 1971.33 1257.91 C 1969.28 1266.27 1957.42 1311.48 1957.93 1315.47 L 1959.78 1315.81 C 1966.92 1316.46 1975.21 1317.01 1982.16 1318.24 C 1984.04 1309.8 1999.57 1243.03 1997.71 1240.01 z M 632.047 1247.81 C 624.635 1255.34 618.04 1258.93 609.255 1264.7 C 619.978 1267.5 630.648 1270.51 641.259 1273.71 L 652.65 1267.34 C 661 1262.94 670.985 1258.01 679.032 1253.34 C 659.385 1256.44 650.409 1257.59 632.047 1247.81 z M 52.4631 1363.34 C 45.6736 1364.05 41.398 1364.6 35.1406 1368.08 C 30.3876 1370.72 24.039 1379.13 26.6334 1384.68 C 29.9343 1384.97 37.2376 1379.82 43.1687 1378.31 C 53.0225 1375.79 60.956 1374.28 71.2787 1374.1 C 130.591 1373.04 194.209 1387.1 249.738 1406.57 C 257.37 1409.5 264.984 1412.48 272.582 1415.51 L 275.183 1404.49 C 203.849 1379.9 128.421 1359.44 52.4631 1363.34 z M 1943.59 1364.41 C 1901.19 1367.37 1818.53 1385.26 1778.35 1400.02 L 1778.05 1413.29 C 1800.66 1404 1824.57 1395.36 1848.59 1390.5 C 1895.7 1378.93 1963.73 1366.03 2011.62 1381.2 C 2014.86 1382.23 2020.52 1386.3 2023.05 1384.59 C 2024.62 1374.13 2008.08 1364.7 1998.43 1364.43 C 1981.12 1363.95 1960.74 1362.48 1943.59 1364.41 z M 1785.29 1477.5 L 1786.49 1477.5 L 1785.29 1477.5 z M 1785.44 1572.67 C 1789.57 1578.66 1790.65 1579.74 1797.68 1581.04 C 1794.69 1576.26 1791.62 1572.56 1785.44 1572.67 z M 72.2105 1603.39 C 56.2346 1604.88 43.109 1608.12 31.9072 1621.25 C 23.6287 1630.95 23.022 1640.19 21.349 1651.96 C 28.5178 1638.37 38.726 1622.55 54.3778 1617.98 C 90.4691 1607.44 188.303 1639.34 223.742 1654.06 C 240.384 1660.97 257.138 1668.05 273.39 1675.84 C 288.954 1683.29 304.349 1691.6 320.312 1698.14 C 338.847 1705.74 358.416 1710.58 377.25 1717.35 C 405.109 1727.35 434.495 1741.8 460.008 1756.82 C 465.8 1760.23 470.764 1763.55 474.576 1769.22 C 472.273 1786.37 459.611 1801.6 477.468 1813.74 C 487.627 1800.42 497.648 1786.99 507.528 1773.46 C 472.714 1755.01 439.52 1737.47 402.492 1723.56 C 374.668 1713.1 345.99 1706.07 318.628 1695.07 C 300.008 1687.59 279.245 1672.53 261.412 1663.37 C 216.976 1640.57 120.711 1604.73 72.2105 1603.39 z M 1952.82 1606.41 C 1886.39 1611.35 1816.77 1642.13 1762.44 1679.39 C 1783.92 1673.26 1823.37 1653.99 1847.11 1644.97 C 1885.56 1630.49 1954.6 1602.69 1992.6 1621.21 C 2009.9 1629.63 2018.33 1639.58 2029.39 1654.6 C 2029.05 1649.37 2028.84 1642.78 2027.15 1637.9 C 2017.23 1609.16 1979.67 1604.41 1953.95 1606.32 L 1952.82 1606.41 z M 1764.09 1628.41 C 1763.93 1632.45 1762.95 1638.35 1764.75 1641.18 L 1768.57 1638.75 L 1769.63 1637.41 C 1768.26 1633.82 1767.37 1630.15 1764.09 1628.41 z M 1772.82 1631.25 C 1772.18 1635.61 1771.38 1635.63 1773.13 1638.49 C 1776.22 1639.31 1778.6 1639.71 1781.72 1640.24 C 1780.08 1633.89 1778.74 1633.79 1772.82 1631.25 z M 1751.31 1644.52 L 1751.61 1645.93 L 1752.13 1645.66 L 1752.09 1644.28 L 1751.31 1644.52 z M 1763.69 1642.42 C 1763.88 1647.36 1763.62 1651.77 1765.5 1656.26 L 1768.07 1657.74 L 1767.05 1650.03 C 1766.53 1646.23 1766.2 1645.49 1763.69 1642.42 z M 1775.47 1642.53 C 1774.8 1645.53 1774.09 1647.24 1774.92 1650.19 C 1777.36 1652.29 1777.63 1651.79 1781.12 1651.05 C 1781.59 1646.83 1781.95 1648.76 1780.12 1645.03 C 1777.82 1643.56 1777.95 1643.47 1775.47 1642.53 z M 1995.41 1649.68 C 1996.38 1653.88 1997.03 1656.15 2001.02 1658.52 C 1999.82 1654.49 1999.55 1651.63 1995.41 1649.68 z M 1763.97 1658.35 L 1764.27 1658.86 L 1763.97 1658.35 z M 1890.43 1671.5 L 1891.14 1671.5 L 1890.43 1671.5 z M 1800.9 1678.99 C 1797.22 1680.66 1790.18 1682.95 1787.66 1685.75 C 1787.69 1688.22 1787.81 1689.02 1790.21 1691.44 C 1794.59 1690.58 1799.21 1690.19 1802.73 1687.7 C 1803.98 1684.74 1803.2 1681.22 1800.9 1678.99 z M 240.906 1681.05 L 241.583 1683.91 C 244.102 1684.85 244.031 1684.76 246.75 1684.84 C 245.262 1689.56 235.103 1693.71 242.645 1702.73 C 245.128 1701.04 245.079 1700.99 247.025 1698.66 C 249.706 1694.09 249.691 1693.02 250.321 1687.7 C 252.238 1688.31 254.131 1688.78 256.112 1689.14 L 256.951 1687.63 C 254.742 1683.56 245.385 1680.8 240.906 1681.05 z M 1782.32 1686.66 C 1781.42 1686.95 1780.76 1687.73 1780.62 1688.67 C 1780.48 1689.61 1780.88 1690.55 1781.66 1691.09 C 1782.44 1691.64 1783.46 1691.69 1784.29 1691.24 C 1785.43 1690.62 1785.91 1689.24 1785.4 1688.05 C 1784.89 1686.87 1783.55 1686.26 1782.32 1686.66 z M 1776.5 1687.67 C 1772.34 1689.85 1772.3 1689.06 1770.19 1692.46 C 1771.66 1695.66 1770.6 1694.3 1773.84 1696.39 C 1777.71 1694.2 1777.75 1694.97 1779.61 1691.68 C 1778.56 1689.13 1778.74 1689.21 1776.5 1687.67 z M 264.161 1688.77 C 265.452 1692.72 264.794 1692.96 267.474 1695.03 C 270.495 1694.94 270.521 1694.93 273.429 1694.08 C 270.605 1690.77 268.594 1689.78 264.161 1688.77 z M 1696.73 1691.94 C 1666.35 1712.86 1587.75 1748.08 1552.43 1757.96 C 1550.88 1761.14 1549.12 1765.05 1547.45 1768.09 C 1535.83 1773.26 1420.47 1826.99 1417.96 1829.96 C 1418.83 1830.62 1419.26 1831.07 1420.23 1831.52 C 1423.6 1832.96 1425.69 1834.74 1428.4 1833.4 C 1434.35 1830.44 1440.57 1827.29 1446.5 1824.31 C 1458.37 1818.38 1470.3 1812.56 1482.28 1806.86 C 1525.06 1786.25 1566.34 1763.47 1609.46 1743.86 C 1638.19 1730.79 1666.48 1716.14 1696.03 1705.08 C 1696.11 1703.34 1696.79 1692.78 1696.73 1691.94 z M 1760.04 1692.23 C 1758.52 1695.39 1757.95 1696.09 1757.85 1699.66 C 1759.53 1703.1 1759.05 1702.56 1763.63 1704.55 C 1763.89 1700.19 1764.53 1697.33 1762.68 1693.43 L 1760.04 1692.23 z M 1795.66 1692.92 C 1790.37 1696.31 1791.99 1695.69 1784.54 1695.03 C 1775.88 1699.71 1780.67 1708.73 1771.12 1697.7 L 1769.99 1697.95 C 1768.66 1704.37 1769.32 1705.88 1770.23 1712.33 C 1772.72 1709.93 1776.63 1705.98 1779.57 1704.35 C 1785.71 1700.95 1798.28 1701.92 1803.42 1697.16 L 1803.42 1695.55 C 1800.43 1692.73 1801.25 1692.77 1795.66 1692.92 z M 255.747 1694.61 C 253.772 1695.69 253.018 1698.15 254.045 1700.15 C 255.072 1702.15 257.507 1702.97 259.537 1702 C 260.898 1701.35 261.798 1700.01 261.886 1698.5 C 261.974 1696.99 261.237 1695.55 259.961 1694.75 C 258.685 1693.94 257.072 1693.89 255.747 1694.61 z M 1750.94 1695.4 C 1748.15 1698.36 1746.99 1698.47 1746.74 1701.61 C 1748.85 1703.6 1748.93 1703.65 1751.44 1705.1 C 1754.38 1702.56 1753.34 1704.13 1754.23 1699.97 C 1752.99 1696 1754.17 1697.38 1750.94 1695.4 z M 277.703 1696.93 C 280.993 1699.25 281.533 1699.74 283.936 1702.97 C 287.662 1704.27 285.669 1704 290.209 1702.73 C 288.127 1696.32 283.563 1698.69 277.703 1696.93 z M 248.34 1701.54 C 240.516 1710.62 242.381 1723.45 243.25 1735.56 C 243.924 1744.14 244.657 1752.71 245.45 1761.27 C 247.407 1755.18 249.28 1749.25 251.521 1743.25 C 253.798 1735.88 253.295 1737.09 250.356 1728.84 L 251.467 1728.27 C 254.442 1726.7 255.935 1726.36 257.238 1723.33 C 256.715 1719.35 257.475 1721 255.272 1718.02 C 252.108 1717.1 250.977 1717.63 247.778 1718.32 L 247.005 1717.05 C 249.058 1711.7 260.861 1705.55 248.34 1701.54 z M 297.091 1701.48 C 298.182 1705.64 298.547 1709.16 301.49 1712.09 C 304.718 1713.82 306.066 1713.28 309.716 1712.83 C 305.758 1704.75 306.326 1703.37 297.091 1701.48 z M 1791.02 1702.72 C 1788.57 1707.15 1789.67 1712.57 1793.72 1715.52 C 1796.16 1714.76 1796.85 1713.52 1798.6 1711.57 L 1799.5 1712.73 C 1798.9 1717.04 1799.66 1716.3 1797.23 1719.05 C 1794.85 1718.96 1794.08 1718.88 1791.73 1718.45 C 1790.63 1721.55 1791.03 1722.68 1792.07 1726.26 C 1797.73 1727.72 1799.86 1729.55 1804.21 1733.55 C 1804.46 1729.63 1804.69 1725.41 1804.91 1721.52 C 1805.66 1708.44 1803.71 1705.22 1791.02 1702.72 z M 262.363 1704.62 C 258.896 1707.68 257.715 1707.57 257.044 1711.09 L 258.01 1712.33 C 259.554 1714.32 260.934 1716.1 262.163 1718.31 C 265.517 1714.88 266.22 1714.61 267.026 1710.13 C 266.134 1706.28 267.002 1707.97 264.093 1705 L 262.363 1704.62 z M 287.663 1704.28 C 284.063 1708.97 284.914 1712.44 289.033 1716.66 L 292.323 1717.15 C 296.753 1712.96 293.718 1709.16 290.324 1705.18 L 287.663 1704.28 z M 1742.5 1704.33 C 1740.57 1707.37 1738.24 1710.09 1738.41 1713.53 C 1742.12 1717.75 1745.42 1715.76 1750.3 1721.63 C 1751.11 1716.97 1750.5 1715.96 1752.08 1711.13 C 1750.75 1705.43 1748.24 1706.13 1742.5 1704.33 z M 1785.32 1704.68 C 1782.28 1706.33 1779.66 1707.16 1778.35 1710.18 C 1779.26 1714.51 1780.75 1715.04 1784.09 1718.85 C 1786.89 1716.44 1786.77 1716.43 1788.51 1713.4 C 1788.58 1709.18 1788.61 1708.29 1785.32 1704.68 z M 1758.36 1706.29 C 1757.97 1710.63 1756.98 1713.55 1758.6 1717.07 C 1761.39 1717.93 1761.62 1717.64 1764.6 1717.27 C 1764.9 1713.78 1765.33 1712.29 1764.03 1709.01 C 1761.1 1706.21 1762.82 1707.28 1758.36 1706.29 z M 318.949 1709.96 L 319.808 1710.26 L 318.949 1709.96 z M 1774.11 1711.62 C 1767.28 1719.14 1770.08 1723.46 1776.03 1730.75 L 1778.58 1731.5 C 1784.05 1724.47 1779.1 1718.23 1774.11 1711.62 z M 269.315 1715.62 C 265.416 1719.22 264.911 1718.56 263.544 1722.9 C 264.612 1726.54 265.579 1727.36 267.91 1730.28 C 273.523 1725.55 274.086 1721.45 269.315 1715.62 z M 1735.81 1716.49 C 1733.77 1720.86 1732.59 1721.65 1732.88 1726.09 C 1734.89 1728.65 1736.63 1728.96 1739.68 1730.16 C 1741.72 1725.55 1742.38 1725.97 1741.95 1721.66 C 1739.7 1718.84 1738.76 1718.42 1735.81 1716.49 z M 1756.91 1720.37 C 1756.66 1724.22 1755.82 1728.37 1757.85 1731.39 C 1760.71 1732.64 1760.89 1732.66 1763.98 1733.24 C 1764.34 1729.57 1765.29 1725.65 1763.43 1722.71 C 1760.61 1720.99 1760.09 1721.07 1756.91 1720.37 z M 1746.5 1723.48 C 1745.04 1726.77 1743.55 1729 1744.02 1732.48 C 1746.01 1734.83 1744.77 1733.93 1748.18 1734.76 C 1750.08 1731.98 1750.86 1731.34 1750.99 1727.96 C 1749.07 1724.3 1750.37 1725.87 1746.5 1723.48 z M 1731.06 1730.21 C 1729.57 1736.58 1727.44 1741.05 1730.79 1746.47 C 1733.33 1748.14 1733.59 1748.53 1736.58 1749.3 C 1737.13 1744.94 1738.94 1738.69 1737.76 1734.76 C 1735.24 1731.92 1734.43 1731.77 1731.06 1730.21 z M 1794.66 1730.34 C 1797 1742.39 1795.07 1757.3 1803.62 1763.4 C 1803.16 1757.67 1802.87 1752.16 1802.93 1746.4 C 1803.03 1737.68 1803.16 1734 1794.66 1730.34 z M 1769.02 1733.53 L 1768.44 1734.86 L 1769.8 1734.46 L 1770.33 1733.18 L 1769.02 1733.53 z M 1927.69 1733.21 C 1926.5 1741.05 1925.52 1744.72 1929.8 1751.35 C 1930.1 1745.73 1930.72 1740.35 1929.72 1734.84 L 1927.69 1733.21 z M 115.246 1734.26 C 114.949 1740.15 114.149 1749.21 115.095 1754.74 L 115.774 1754.62 L 116.86 1752.82 C 118.763 1747.9 122.046 1741.52 121.107 1736.66 C 118.828 1734.4 119.017 1735.06 115.246 1734.26 z M 1755.55 1735.33 C 1755.88 1739.19 1755.21 1740.47 1757.32 1742.44 C 1759.31 1741.82 1760.53 1741.45 1762.43 1740.6 C 1762.36 1735.73 1760.04 1736.13 1755.55 1735.33 z M 1743.11 1737.54 C 1742.87 1742.22 1741.87 1743.65 1744.02 1746.42 C 1745.54 1746.34 1747 1746.28 1748.51 1746.13 C 1749.39 1742.36 1750.33 1741.43 1749.19 1738.49 C 1746.35 1737.65 1746.11 1737.7 1743.11 1737.54 z M 128.514 1738.74 C 126.45 1741.33 124.651 1742.92 124.309 1746.13 L 125.263 1747.2 C 128.891 1744.33 129.061 1745.15 130.144 1741.54 C 129.831 1740.98 128.877 1739.16 128.514 1738.74 z M 133.708 1739.92 L 134.704 1740.24 L 133.708 1739.92 z M 142.911 1740.76 L 143.424 1743.78 C 144.529 1744.32 151.258 1747.08 152.609 1747.6 L 153.714 1744.79 C 151.756 1742.41 146.512 1741.73 142.911 1740.76 z M 1903.04 1742.56 L 1902.67 1743.82 L 1903.32 1744.14 L 1903.67 1742.75 L 1903.04 1742.56 z M 1907.48 1743.36 L 1906.74 1744.79 L 1908.55 1744.3 L 1908.92 1742.81 L 1907.48 1743.36 z M 1879.83 1742.29 C 1876.47 1745.31 1874.56 1746.01 1873.39 1749.86 C 1875.2 1751.77 1874.44 1751.29 1876.85 1752.11 C 1878.9 1749.67 1882.11 1746.48 1882.66 1743.59 C 1881.02 1742.17 1881.96 1742.6 1879.83 1742.29 z M 1894.85 1742.7 C 1892.05 1745.26 1888.75 1747.71 1887.41 1751.14 L 1888.47 1752.31 C 1891.42 1749.93 1894.08 1748.28 1895.76 1744.95 C 1895.42 1742.98 1895.89 1743.64 1894.85 1742.7 z M 158.228 1745.46 L 156.59 1748.63 L 157.77 1749.85 L 162.701 1749.88 L 164.689 1748.72 L 164.42 1747.33 C 162.095 1746.5 160.66 1745.89 158.228 1745.46 z M 168.783 1749.49 C 164.156 1749.74 163.321 1749.52 159.341 1751.56 L 159.842 1752.98 C 162.496 1754.07 164.673 1754.32 166.696 1755.33 C 170.014 1755 173.186 1752.85 174.209 1749.57 C 171.479 1748.19 172.814 1748.75 168.783 1749.49 z M 130.96 1751.33 L 131.281 1754.86 C 134.486 1755.61 139.397 1752.78 142.72 1751.3 L 144.05 1752.58 L 144.328 1751.54 L 143.517 1750.71 L 142.531 1751.31 C 137.713 1750.32 135.856 1750.64 130.96 1751.33 z M 1903.55 1752.78 L 1902.03 1755.62 C 1905.14 1757.48 1906.42 1756.46 1910.8 1757.03 L 1911.45 1756.26 C 1907.96 1754.22 1907.4 1753.73 1903.55 1752.78 z M 157.328 1756.89 C 158.43 1757.38 157.984 1757.44 158.628 1757.26 L 157.328 1756.89 z M 1891.7 1756.64 C 1889.04 1758.78 1886.23 1760.5 1884.92 1763.52 C 1885.31 1764.81 1885.16 1765.17 1885.91 1765.87 C 1888.62 1763.49 1892 1761.15 1892.95 1757.86 L 1891.7 1756.64 z M 1913.27 1757.5 L 1914.49 1757.5 L 1913.27 1757.5 z M 444.642 1763.54 C 411.905 1810.47 433.567 1845.68 477.351 1872.87 C 508.93 1892.48 558.279 1922.03 594.006 1929.3 C 605.752 1931.66 617.842 1931.76 629.626 1929.59 C 642.741 1927.11 662.603 1920.58 671.195 1909.87 C 673.849 1904.73 678.109 1896.13 676.121 1890.36 C 675.372 1888.19 674.156 1886.63 672.096 1885.55 C 668.719 1883.78 663.306 1882.97 659.631 1884.18 C 644.891 1889 647.37 1918.49 611.701 1905.13 C 584.497 1894.93 485.952 1838.87 463.639 1819.35 C 460.756 1816.82 458.784 1814.02 457.226 1810.53 C 452.637 1800.24 454.331 1790.99 458.402 1780.91 C 459.227 1778.88 460.069 1776.85 460.928 1774.83 C 455.247 1770.6 450.6 1767.38 444.642 1763.54 z M 1898.51 1763.75 C 1895.64 1765.68 1890.26 1768.6 1889.21 1771.5 C 1891.6 1773.57 1893.03 1773 1896.89 1773.43 C 1900.69 1771.49 1901.31 1771.36 1904.17 1768.35 L 1904.66 1766.22 C 1902.37 1763.86 1902.47 1764.55 1898.51 1763.75 z M 1596.39 1765.8 C 1598.36 1772.8 1602.55 1778.73 1604.17 1785.43 C 1608.75 1805.53 1584.4 1819.88 1570.73 1829.65 C 1527.3 1860.66 1479.07 1884.69 1429.2 1903.41 C 1407.66 1911.5 1404.6 1898.71 1395.82 1882.98 C 1387.86 1884.32 1382.04 1885.24 1374.47 1888.25 C 1377.7 1899.81 1379.8 1906.27 1387.43 1915.85 C 1399.37 1927.89 1412.03 1934.86 1429.36 1934.98 C 1470.09 1935.25 1567.83 1881.09 1597.08 1852 C 1610.5 1838.66 1621.36 1820.63 1621.02 1801.13 C 1620.84 1790.68 1616.57 1779.13 1608.73 1771.98 C 1605.09 1768.65 1601.27 1766.55 1596.39 1765.8 z M 1580.24 1771.83 L 1550.14 1786.88 C 1557.41 1792.35 1562.39 1796.19 1569.04 1802.32 L 1576.54 1808.48 C 1582.74 1802.97 1585.68 1799.8 1589.96 1792.27 C 1587.89 1784.85 1586.2 1778.82 1581.6 1772.4 L 1580.24 1771.83 z M 1904.49 1777.97 C 1900.06 1780.9 1893.48 1784.43 1891.92 1789.48 C 1895.37 1793.61 1913.95 1789.15 1923.66 1792.54 C 1927 1796.23 1928.71 1798.85 1931.45 1802.9 C 1926.56 1786.43 1923.8 1778.45 1904.49 1777.97 z M 542.686 1788.81 C 556.387 1798.1 601.852 1828.28 620.523 1834.49 C 620.876 1834.61 623.269 1833.68 623.893 1833.45 C 622.779 1831.54 568.342 1801.34 562.095 1796.3 C 559.197 1793.96 546.912 1789.25 542.686 1788.81 z M 747.728 1803.73 C 745.98 1809.44 736.112 1839.16 737.147 1843.37 L 738.622 1844.37 C 742.237 1845.28 743.511 1846.32 746.299 1845.23 C 748.345 1836.39 750.097 1813.95 748.857 1805.11 L 747.728 1803.73 z M 887.957 1817.6 C 886.329 1825.16 878.776 1881.44 879.903 1887.46 L 882.244 1888.47 C 886.105 1888.6 887.075 1889.38 889.51 1887.6 C 891.646 1877.03 893.461 1825.91 887.957 1817.6 z M 1168.42 1818.73 C 1166.03 1828.49 1160.97 1873.75 1163.33 1882.25 C 1166.35 1883.09 1167.76 1882.61 1170.83 1882.13 C 1171.97 1881.82 1173.88 1881.75 1174.21 1880.49 C 1176.23 1872.79 1171.62 1821.72 1168.42 1818.73 z M 1033.13 1822.56 C 1028.4 1832.45 1022.63 1889.07 1025.05 1896.55 C 1027.29 1897.1 1026.26 1897.11 1028.15 1896.75 L 1038.26 1894.58 C 1037.77 1882.93 1036.07 1829.56 1033.13 1822.56 z M 652.774 1838.33 C 637.724 1840.79 619.271 1846.03 609.715 1858.68 C 604.004 1866.23 602.103 1884.15 611.514 1889.77 C 638.404 1905.84 634.033 1873.74 654.691 1870.21 C 662.788 1868.83 673.262 1872.22 681.231 1873.79 C 714.877 1883.48 747.85 1895.69 781.203 1906.41 C 793.703 1910.42 809.699 1914.54 820.852 1920.82 C 843.645 1936.58 831.775 1942.14 839.332 1955.53 C 868.982 1967.6 853.545 1902.07 826.629 1889.71 C 797.196 1876.2 766.637 1867.8 735.525 1857.9 C 712.699 1850.73 675.537 1835.47 652.774 1838.33 z M 1378.54 1839.29 C 1344.88 1845.02 1247.78 1871.91 1219.14 1887.16 C 1208.37 1892.9 1198.59 1900.6 1191.44 1910.58 C 1183.5 1921.65 1181.27 1933.42 1183.47 1946.73 C 1184.18 1951.03 1185.46 1955.27 1186.66 1959.45 C 1193.92 1958.57 1196.93 1957.89 1204.01 1955.93 C 1214.88 1936.22 1205.44 1926.99 1230.7 1915.15 C 1243.67 1910.61 1268.23 1903.55 1281.68 1899.91 C 1312.51 1891.57 1376.37 1868.96 1405.17 1869.98 C 1412.62 1875.84 1418.75 1883.19 1423.19 1891.57 C 1430.98 1888.81 1440.48 1885.19 1447.71 1881.09 C 1435.48 1861.71 1424.38 1845.15 1400.12 1839.91 C 1393.01 1838.44 1385.71 1838.23 1378.54 1839.29 z M 1180.51 1894.41 C 1140.45 1898.26 1100.58 1904.2 1060.33 1906.64 C 1049.85 1907.27 1038.9 1908.34 1028.8 1911.12 C 1001.78 1918.66 990.892 1942.49 992.78 1968.69 C 992.935 1970.34 993.113 1970.61 994.062 1971.91 L 997.251 1972.66 C 1034.34 1972.68 1020.42 1946.22 1037.17 1938.25 C 1074.65 1920.41 1131.37 1922.82 1173.11 1915.65 C 1176.19 1904.94 1180.87 1901.18 1182.97 1894.68 L 1180.51 1894.41 z M 852.715 1899.77 C 857.508 1905.73 859.233 1909.21 862.461 1916.2 C 885.897 1918.75 909.487 1920 933.003 1921.76 C 951.995 1923.18 971.356 1925.45 990.341 1926.14 L 994.889 1920.34 L 1002.52 1910.45 L 912.277 1903.84 C 893.956 1902.47 870.783 1900.1 852.715 1899.77 z M 1243.05 1924.96 C 1237.68 1927.07 1231.96 1929.12 1226.91 1931.83 C 1224.58 1944.13 1222.05 1958.32 1211.11 1966.16 C 1196.41 1976.7 1087.94 1988.11 1059.34 1996.69 C 1046.42 2010.67 1043.24 2013.01 1026.9 2022.07 L 1027.02 2022.82 L 1030.75 2023.02 C 1085.38 2022.69 1143.13 2018.37 1196.72 2006.04 C 1207.82 2003.48 1221.36 1996.68 1229.57 1988.67 C 1241.32 1977.03 1247.9 1961.16 1247.83 1944.61 C 1247.82 1938.6 1247.5 1931.44 1244.97 1926.01 L 1243.05 1924.96 z M 804.238 1927.47 C 798.517 1944.34 794.823 1957.85 802.868 1975.36 C 809.926 1990.72 828.37 2001.41 844.163 2005.8 C 881.22 2016.09 956.432 2024.43 994.008 2018.66 C 1005.2 2016.83 1016.02 2013.2 1026.05 2007.92 C 1037.83 2001.62 1044.59 1995.03 1051.36 1983.48 C 1054.64 1976.36 1060.51 1955.39 1052.21 1950.49 C 1036.49 1951.2 1041.74 1976.07 1030.84 1980.92 C 997.153 1995.93 949.528 1982.88 913.39 1981.26 C 891.13 1980.26 871.105 1976.59 849.428 1973.67 C 813.685 1967.67 830.532 1941.84 804.238 1927.47 z M 661.566 1932.82 C 649.023 1938.66 644.271 1939.96 630.598 1942.65 C 679.981 1962.3 724.348 1977.88 776.232 1990.75 L 799.975 1996.89 C 792.011 1988.33 789.084 1982.74 783.51 1972.38 C 751.449 1964.04 720.325 1954.83 689.119 1943.62 C 685.437 1942.29 662.982 1932.92 661.566 1932.82 z M 1385.79 1935.05 C 1339.55 1951.4 1302.52 1960.01 1256.49 1972.32 C 1252.28 1980.54 1249.23 1985.58 1243.96 1993.28 C 1250.63 1991.85 1258.83 1990.32 1265.29 1988.59 C 1314.89 1978.12 1363.54 1963.59 1410.75 1945.15 C 1395.89 1942.37 1392.66 1936.78 1385.79 1935.05 z" fill="rgb(239,235,228)" transform="translate(0,0)"></path>
<path d="M 1416.91 1243.56 C 1408.42 1241.3 1393.51 1234.47 1385 1230.9 C 1367.46 1223.56 1349.88 1216.32 1332.24 1209.2 C 1267.21 1182.42 1201.97 1156.12 1136.54 1130.3 L 1093.82 1113.16 C 1085.27 1109.71 1072.68 1104.13 1063.91 1102.44 L 1062.52 1102.18 C 1060.86 1089.06 1060.52 1066.58 1059.6 1052.48 L 1051.7 909.7 C 1050.48 887.853 1049.13 866.014 1047.65 844.183 C 1047.03 835.826 1044.78 815.664 1045.27 808.798 C 1046.08 798.411 1049.54 788.405 1055.33 779.745 C 1061.03 771.194 1086.36 746.619 1094.77 737.872 C 1128.15 702.682 1161.92 667.857 1196.07 633.404 L 1249.17 578.503 C 1264.49 562.52 1274.88 545.972 1297.17 541.21 C 1308.95 540.78 1330.56 551.407 1342.01 556.043 L 1398.5 578.595 L 1543.1 637.57 C 1575.76 650.821 1608.85 663.472 1640.99 678.051 C 1646.7 680.64 1658.04 686.754 1661.77 691.9 C 1665.16 696.586 1666.06 704.463 1665.56 710.22 C 1664.32 724.81 1661.18 739.32 1658.51 753.732 L 1645.3 826.195 L 1626.63 933.492 C 1623 954.433 1619.88 977.931 1614.52 998.217 C 1607.37 1025.29 1580.42 1054.66 1563.36 1077.06 L 1488.22 1174.66 C 1472.68 1194.45 1456.63 1213.88 1442.29 1234.57 C 1440.26 1237.48 1439.58 1240.89 1439.42 1244.38 C 1434.25 1245.27 1422.69 1244 1416.91 1243.56 z M 1298.48 553.899 C 1283.01 560.505 1265.21 582.326 1252.95 594.886 L 1188.49 661.025 L 1114.08 737.596 C 1100.53 751.641 1086.77 765.704 1073.61 780.132 C 1066.52 787.904 1061.3 796.13 1061.58 807.067 C 1062.52 843.48 1064.99 879.93 1067.01 916.317 L 1076.01 1091.03 C 1091.5 1095.68 1107.97 1102.63 1123 1108.86 C 1181.79 1133.23 1241.62 1155.8 1300.35 1180.27 C 1330.78 1193.08 1361.38 1205.48 1392.15 1217.47 C 1401.35 1221.05 1410.49 1225.45 1419.82 1228.61 C 1421.69 1229.24 1424.24 1230.47 1426.06 1229.34 C 1434.4 1224.17 1574.79 1040.7 1587.25 1023.64 C 1591.72 1017.52 1595.63 1011.14 1599.3 1004.52 C 1607.44 989.851 1623.86 877.376 1628.15 852.115 L 1648.73 736.479 L 1651.3 723.322 C 1637.38 740.553 1624.09 758.302 1610.83 776.049 C 1588.53 805.914 1564.96 834.725 1542.03 864.116 L 1498.82 919.355 C 1482.45 940.232 1462.86 962.448 1457.17 988.995 C 1451.94 1013.39 1448.88 1038.82 1445.36 1063.56 C 1440.05 1103.1 1434.09 1142.56 1427.49 1181.92 C 1425.55 1193.77 1423.17 1213.15 1420.48 1224.23 C 1417.65 1173.5 1426.01 1115.89 1432.99 1065.58 C 1437.27 1034.74 1442.2 991.117 1455.51 963.406 C 1461.9 950.102 1480.55 927.096 1490.24 914.746 C 1505.77 894.88 1521.42 875.099 1537.18 855.406 C 1561.37 825.098 1584.78 794.246 1608.74 763.763 C 1619.17 750.489 1645.86 721.914 1651.24 707.796 C 1652.83 703.628 1651.82 700.01 1648.48 697.124 C 1642.28 691.778 1316.11 557.897 1298.48 553.899 z" fill="rgb(239,235,228)" transform="translate(0,0)"></path>
<path d="M 443.564 1089.65 C 434.349 1059.46 425.009 1013.16 417.701 981.605 C 401.177 909.69 385.382 837.609 370.32 765.374 C 367.197 749.769 363.309 729.635 374.701 717.458 C 387.87 703.384 423.534 689.264 440.319 681.178 L 525.581 639.598 C 569.958 617.868 614.485 596.445 659.158 575.33 C 674.913 567.887 703.119 552.179 718.84 549.256 C 742.194 546.818 758.64 562.944 776.947 575.573 L 854.239 629.531 L 924.63 678.412 C 935.272 685.802 947.219 693.503 957.381 701.448 C 959.915 703.429 962.189 710.413 963.406 713.713 C 898.923 754.51 834.134 790.99 767.486 828.046 C 712.497 858.62 659.084 889.44 603.32 918.793 C 608.86 933.188 616.677 981.101 619.693 998.588 C 630.191 1059.46 648.596 1122.46 649.94 1183.85 C 629.405 1111.51 617.068 1032.61 601.423 958.97 C 594.415 925.983 588.253 917.658 620.236 898.984 C 705.158 849.401 792.474 803.924 878.256 755.849 C 903.394 741.76 926.997 726.964 952.664 713.422 C 935.714 701.934 919.479 692.513 901.746 680.14 L 809.022 615.16 C 788.857 600.911 754.407 574.523 732.205 563.725 C 721.469 558.503 685.665 577.687 672.946 583.775 L 594.404 622.113 L 470.372 682.428 C 447.034 693.771 423.367 704.973 400.222 716.682 C 389.461 722.125 385.352 726.822 381.94 738.22 C 389.895 742.025 396.774 746.066 403.78 751.717 C 449.575 788.651 494.657 826.716 539.713 864.547 C 548.629 872.033 595.728 908.949 593.642 918.708 L 592.069 919.548 C 583.013 918.331 560.039 896.953 551.217 889.57 L 381.347 744.152 C 393.428 809.621 409.854 879.357 424.004 944.489 C 432.348 982.895 444.749 1043.65 456.47 1080.74 C 464.147 1087.85 479.239 1097.75 488.216 1104.11 L 551.895 1148.83 C 573.013 1163.93 594.036 1179.15 614.96 1194.51 C 624.12 1201.38 649.973 1223.28 659.753 1225.96 C 670.342 1223.68 695.623 1208.83 706.353 1203.17 C 734.129 1188.65 761.829 1174 789.452 1159.2 C 834.042 1136.06 878.502 1112.66 922.83 1089.02 C 946.793 1076.26 970.874 1063.12 994.454 1049.62 C 999.524 1046.72 1004.81 1040.77 1008.75 1036.41 C 1014.31 1038.31 1016.48 1038.56 1022.37 1039.36 C 1019.04 1044.2 1010.1 1057.82 1005.19 1060.67 C 993.595 1067.38 981.31 1073.63 969.577 1080.19 C 939.213 1097.18 907.948 1112.56 877.247 1128.86 L 760.285 1191.2 C 734.602 1205.06 708.925 1219.18 682.954 1232.53 C 667.5 1240.48 658.68 1242.3 643.665 1232.42 C 628.664 1222.55 614.343 1211.7 599.847 1201 C 579.939 1186.44 559.932 1172.02 539.829 1157.74 C 519.723 1143.38 499.508 1129.18 479.183 1115.14 C 468.273 1107.55 453.356 1097.84 443.564 1089.65 z" fill="rgb(239,235,228)" transform="translate(0,0)"></path>
<path d="M 688.061 668.328 C 637.124 666.964 655.184 610.811 703.617 604.301 C 747.741 602.887 736.414 657.719 688.061 668.328 z" fill="rgb(239,235,228)" transform="translate(0,0)"></path>
<path d="M 1401.03 684.022 C 1380.63 685.133 1356.82 678.044 1351.48 655.656 C 1349.72 648.37 1351.09 640.68 1355.26 634.449 C 1361.47 625.132 1371.3 620.651 1381.79 618.286 C 1401.91 616.682 1423.47 627.547 1428.8 648.038 C 1430.59 654.831 1429.58 662.062 1425.99 668.099 C 1420.26 677.706 1411.24 681.486 1401.03 684.022 z" fill="rgb(239,235,228)" transform="translate(0,0)"></path>
<path d="M 1544.25 750.581 C 1526.1 749.13 1505.67 741.246 1502.09 721.029 C 1500.71 713.365 1502.63 705.476 1507.38 699.301 C 1515.37 688.914 1526.26 686.711 1538.29 685.354 C 1555.55 684.791 1575.7 695.523 1578.43 713.992 C 1579.61 722.502 1577.19 731.12 1571.75 737.771 C 1564.39 746.766 1555.23 749.568 1544.25 750.581 z" fill="rgb(239,235,228)" transform="translate(0,0)"></path>
<path d="M 1336.32 755.324 C 1287.37 763.407 1263.57 705.934 1313.76 691.191 C 1323.38 690.524 1329.16 690.216 1338.71 694.023 C 1355.34 700.522 1368.69 720.089 1360.17 737.692 C 1355.32 747.712 1346.33 752.124 1336.32 755.324 z" fill="rgb(239,235,228)" transform="translate(0,0)"></path>
<path d="M 953.562 722.999 L 964.178 716.912 L 964.973 717.214 C 968.98 722.766 982.635 804.698 984.858 816.545 C 995.976 872.852 1006.16 929.339 1015.42 985.982 C 1016.79 994.46 1025.66 1032.9 1019.84 1037.41 L 1014.84 1036.54 C 1006.23 1025.2 996.391 958.538 993.348 941.781 C 984.694 892.366 975.736 843.005 966.473 793.701 C 962.274 770.678 958.537 745.672 953.562 722.999 z" fill="rgb(239,235,228)" transform="translate(0,0)"></path>
<path d="M 1482.25 828.875 C 1427.14 831.912 1414.18 772.982 1464.96 762.198 C 1484.91 760.644 1506.67 771.42 1512.25 791.636 C 1514.12 798.331 1513.21 805.499 1509.71 811.509 C 1503.63 822.114 1493.4 826.115 1482.25 828.875 z" fill="rgb(239,235,228)" transform="translate(0,0)"></path>
<path d="M 1265.59 834.07 C 1246.75 836.322 1224.01 827.444 1218.92 807.603 C 1217.02 800.156 1218.17 792.259 1222.1 785.657 C 1228.29 775.322 1238.19 771.607 1249.22 769.15 C 1268.21 768.379 1286.92 776.356 1293.38 795.551 C 1295.88 802.791 1295.18 810.753 1291.46 817.449 C 1285.64 827.85 1276.28 831.321 1265.59 834.07 z" fill="rgb(239,235,228)" transform="translate(0,0)"></path>
<path d="M 590.154 837.947 C 540.825 844.12 558.597 783.106 605.76 773.218 C 612.475 772.623 619.747 773.594 625.678 776.949 C 629.701 779.185 632.646 782.957 633.84 787.403 C 640.838 813.024 611.855 832.454 590.154 837.947 z" fill="rgb(239,235,228)" transform="translate(0,0)"></path>
<path d="M 1077.63 831.765 L 1077.01 831.239 L 1077.63 831.765 z" fill="rgb(239,235,228)" transform="translate(0,0)"></path>
<path d="M 1077.63 831.765 C 1099.87 837.851 1125.84 849.731 1147.28 858.56 C 1192.22 877.057 1236.52 897.542 1281 917.114 C 1322.05 935.178 1363.71 953.409 1403.83 973.437 C 1408.99 976.013 1429.61 986.256 1433.38 989.04 C 1402.9 985.326 1093.49 851.216 1077.63 831.765 z" fill="rgb(239,235,228)" transform="translate(0,0)"></path>
<path d="M 1417.51 905.192 C 1398.27 905.559 1375.9 896.127 1371.65 875.503 C 1370.15 867.875 1371.9 859.965 1376.49 853.688 C 1383.71 843.717 1394.38 840.928 1405.77 839.331 C 1424.39 837.618 1445.71 851.624 1449.18 870.556 C 1450.62 878.002 1448.84 885.709 1444.29 891.772 C 1437.59 900.703 1428.01 903.755 1417.51 905.192 z" fill="rgb(239,235,228)" transform="translate(0,0)"></path>
<path d="M 470.15 936.117 C 458.049 935.514 447.436 926.804 440.788 917.167 C 429.854 901.317 413.995 872.772 435.143 858.82 C 462.425 857.742 497.039 920.248 470.15 936.117 z" fill="rgb(239,235,228)" transform="translate(0,0)"></path>
<path d="M 690.857 972.692 C 643.915 974.959 644.638 911.412 697.797 899.211 C 705.349 898.452 711.41 898.436 717.767 902.413 C 741.687 917.377 731.834 955.283 709.364 966.769 C 702.004 970.532 698.326 971.376 690.857 972.692 z" fill="rgb(239,235,228)" transform="translate(0,0)"></path>
<path d="M 1141.36 968.097 C 1101.91 968.448 1072.06 914.45 1118.08 907.245 C 1124.85 907.633 1131.44 909.547 1137.36 912.845 C 1160.64 925.569 1177.45 960.207 1141.36 968.097 z" fill="rgb(239,235,228)" transform="translate(0,0)"></path>
<path d="M 570.006 1000.24 C 539.875 999.599 505.814 934.719 534.631 922.101 C 551.372 923.602 563.555 937.251 571.479 951.026 C 580.089 965.992 588.692 989.444 570.006 1000.24 z" fill="rgb(239,235,228)" transform="translate(0,0)"></path>
<path d="M 816.822 1019.68 C 769.637 1017.96 779.863 953.798 828.253 947.294 C 872.451 947.259 870.317 1012.6 816.822 1019.68 z" fill="rgb(239,235,228)" transform="translate(0,0)"></path>
<path d="M 1483.83 1021.97 C 1481.43 1022.3 1478.26 1022.48 1475.91 1021.83 C 1472.07 1020.75 1468.79 1018.22 1466.8 1014.76 C 1458.46 999.97 1470.12 973.913 1485.09 966.117 C 1515.22 963.803 1509.61 1009 1483.83 1021.97 z" fill="rgb(239,235,228)" transform="translate(0,0)"></path>
<path d="M 1530.77 1022.08 C 1499.8 1022.49 1509.35 978.301 1532.11 966.201 C 1561.58 962.695 1556.35 1011.24 1530.77 1022.08 z" fill="rgb(239,235,228)" transform="translate(0,0)"></path>
<path d="M 1574.88 1021.91 C 1547.63 1022.26 1555.16 979.65 1578.09 966.981 C 1605.05 967.058 1597.46 1011.37 1574.88 1021.91 z" fill="rgb(239,235,228)" transform="translate(0,0)"></path>
<path d="M 948.668 1058.44 C 897.803 1058.63 902.191 1002.19 947.404 986.232 C 994.147 982.305 994.899 1043.48 948.668 1058.44 z" fill="rgb(239,235,228)" transform="translate(0,0)"></path>
<path d="M 1371.21 1060.97 C 1336.74 1067.75 1299.72 1011.87 1340.08 995.081 C 1378.71 991.434 1412.42 1047.33 1371.21 1060.97 z" fill="rgb(239,235,228)" transform="translate(0,0)"></path>
<path d="M 498.247 1078.2 C 468.594 1077.35 437.727 1016.49 464.767 1004.06 C 495.79 1007.78 525.874 1067.43 498.247 1078.2 z" fill="rgb(239,235,228)" transform="translate(0,0)"></path>
<path d="M 604.094 1150 C 575.333 1152.99 539.647 1090.45 565.477 1072.98 C 594.241 1073.33 627.91 1133.71 604.094 1150 z" fill="rgb(239,235,228)" transform="translate(0,0)"></path>
<path d="M 858.405 1204.76 L 858.841 1204.24 L 858.405 1204.76 z" fill="rgb(239,235,228)" transform="translate(0,0)"></path>
<path d="M 1156.67 1237.6 L 1156.24 1237.13 L 1156.67 1237.6 z" fill="rgb(239,235,228)" transform="translate(0,0)"></path>
<path d="M 919.555 1266.27 L 919.995 1265.26 L 919.555 1266.27 z" fill="rgb(239,235,228)" transform="translate(0,0)"></path>
<path d="M 316.602 1281.19 C 304.946 1279.2 302.416 1280.14 290.843 1281.04 C 293.005 1261.57 316.407 1264.96 329.875 1268.39 C 348.275 1273.06 366.474 1278.72 384.692 1284.08 C 416.161 1293.38 447.785 1302.15 479.548 1310.39 C 576.224 1335.83 674.518 1354.67 773.751 1366.77 C 962.249 1389.26 1152.93 1385.99 1340.55 1357.07 C 1387.69 1349.45 1435 1337.86 1481.63 1327.95 C 1534.93 1316.62 1585.54 1302.09 1638.07 1288.35 C 1666.65 1280.88 1707.03 1268.94 1735.29 1265.36 C 1742.74 1264.82 1754.78 1265.27 1760.58 1270.49 L 1760.55 1272.45 C 1755.44 1277.86 1731.47 1281.32 1722.61 1284.16 C 1666.96 1302 1610.72 1316.1 1554.01 1330.07 C 1516.09 1339.08 1477.98 1347.24 1439.7 1354.53 C 1303.92 1381.41 1162.8 1399.92 1024.16 1399.91 C 842.453 1399.89 659.594 1370.18 483.378 1327.63 C 427.167 1314.06 372.483 1296.01 316.602 1281.19 z" fill="rgb(239,235,228)" transform="translate(0,0)"></path>
<path d="M 1128.02 1268.5 L 1127.22 1268.5 L 1128.02 1268.5 z" fill="rgb(239,235,228)" transform="translate(0,0)"></path>
<path d="M 1128.61 1270.66 L 1128.13 1270.01 L 1128.61 1270.66 z" fill="rgb(239,235,228)" transform="translate(0,0)"></path>
<path d="M 1634.05 1325.91 L 1635.19 1325.45 L 1634.05 1325.91 z" fill="rgb(239,235,228)" transform="translate(0,0)"></path>
<path d="M 381.397 1362.25 L 381.995 1362.76 L 381.397 1362.25 z" fill="rgb(239,235,228)" transform="translate(0,0)"></path>
<path d="M 615.589 1685.05 C 614.207 1675.11 614.291 1655.17 614.14 1644.95 C 613.833 1623.83 613.401 1602.71 612.844 1581.59 L 609.564 1452.92 C 609.146 1437.68 607.075 1396.41 608.619 1382.77 C 623.006 1386.99 647.748 1390.97 662.507 1393.45 L 712.762 1402.19 C 723.424 1403.95 743.611 1406.57 752.996 1409.75 C 752.983 1425.47 755.06 1447.47 752.618 1462.39 C 725.05 1459.04 697.191 1453.74 669.337 1450.13 C 669.514 1474.06 670.11 1497.98 671.126 1521.88 C 694.27 1527.26 725.862 1530.4 750.518 1535.26 C 752.197 1550.63 752.218 1574.52 751.842 1590.22 L 728.418 1586.28 C 709.385 1582.61 691.163 1579.19 671.956 1576.57 C 671.744 1615.8 674.681 1658.66 673.609 1697.64 C 655.429 1693.04 634.237 1689.26 615.589 1685.05 z" fill="rgb(239,235,228)" transform="translate(0,0)"></path>
<path d="M 1681.01 1385.75 L 1681.58 1385.04 L 1681.01 1385.75 z" fill="rgb(239,235,228)" transform="translate(0,0)"></path>
<path d="M 1245.79 1414.25 C 1304.22 1408.24 1352.82 1399.83 1410.45 1391.4 L 1412.24 1391.92 C 1413.64 1397.02 1411.23 1436.19 1410.9 1443.25 C 1377 1449.53 1340.96 1454.74 1306.79 1460.34 C 1305 1476.35 1305.1 1510.16 1305.03 1526.43 C 1320.02 1523.54 1336.95 1521.4 1352.23 1518.78 C 1368.32 1516.02 1388.19 1512.02 1404.14 1510.43 C 1404.23 1524.8 1403.38 1547.51 1402.2 1561.72 C 1375.06 1568.43 1331.9 1574.61 1303.36 1579.67 L 1301.16 1650.45 C 1315.01 1649.06 1406.63 1631.14 1409.41 1632.13 L 1409.94 1634.75 C 1409.34 1650.16 1409.37 1665.83 1408.1 1681.14 C 1352.02 1694.95 1295.14 1703.2 1238.02 1711.28 C 1237.32 1679.46 1239.94 1643.63 1240.73 1611.52 L 1245.79 1414.25 z" fill="rgb(239,235,228)" transform="translate(0,0)"></path>
<path d="M 1485.41 1526.6 C 1524.31 1492.58 1535.3 1453.67 1553.22 1407.64 C 1554.42 1411.4 1555.15 1419.13 1555.9 1423.31 C 1563.81 1467.42 1570.53 1487.41 1617.29 1496.71 C 1608.86 1504.1 1598.19 1511.28 1588.9 1519.45 C 1560.41 1544.49 1551.82 1573.26 1537 1606.66 C 1534.87 1611.37 1532.7 1615.35 1530.26 1619.88 C 1532.28 1587.96 1521.07 1536.47 1485.41 1526.6 z" fill="rgb(239,235,228)" transform="translate(0,0)"></path>
<path d="M 164.591 1411.98 L 164.005 1411.26 L 164.591 1411.98 z" fill="rgb(239,235,228)" transform="translate(0,0)"></path>
<path d="M 788.871 1709.15 C 786.584 1644.55 787.577 1576.86 786.849 1512.11 L 785.663 1447.39 C 785.465 1437.74 784.646 1421.11 785.603 1412.12 C 804.205 1413.01 825.434 1416.17 844.11 1418.05 C 880.816 1422.11 910.122 1419.45 945.113 1434.77 C 991.535 1455.08 1001.07 1504.73 983.111 1548.61 C 974.68 1569.22 952.881 1580.54 932.21 1587.39 C 952.757 1628.2 976.843 1667.36 1000.17 1706.61 C 1003.51 1712.23 1006.34 1716.87 1008.95 1722.86 C 990.312 1723.35 961.725 1721.67 942.752 1720.98 C 941.954 1721.01 940.236 1721.12 939.485 1720.98 C 934.788 1720.1 876.807 1609.58 868.214 1594.67 L 849.933 1593.22 C 849.249 1633.33 849.785 1675.55 849.895 1715.72 C 833.078 1714.7 805.293 1711.76 788.871 1709.15 z M 848.913 1470.96 C 848.764 1494.88 848.827 1518.8 849.102 1542.73 C 871.186 1545.44 896.736 1551.19 915.585 1536.15 C 923.502 1525.85 926.405 1517.52 924.94 1504.32 C 921.145 1470.14 873.954 1472.39 848.913 1470.96 z" fill="rgb(239,235,228)" transform="translate(0,0)"></path>
<path d="M 410.062 1506.98 C 450.941 1499.83 455.705 1447.13 464.849 1415.69 L 465.225 1414.43 C 466.337 1415.26 467.406 1416.08 467.85 1417.52 C 477.22 1447.9 486.33 1479.91 507.447 1504.52 C 515.925 1514.4 523.003 1520.26 533.594 1527.65 C 528.361 1529.97 521.516 1532.92 517.172 1536.28 C 494.081 1554.15 493.838 1609.25 491.289 1638.24 C 489.818 1633.83 488.514 1629.01 487.204 1624.52 C 470.23 1572.39 451.212 1542.82 410.062 1506.98 z" fill="rgb(239,235,228)" transform="translate(0,0)"></path>
<path d="M 1032.75 1427.17 C 1080.19 1426.71 1143.76 1424.34 1190.57 1419.6 C 1195.74 1419.07 1201.82 1418.79 1207.08 1418.42 L 1205.62 1469.63 C 1174.21 1475.21 1127.53 1475.92 1094.67 1478.92 C 1094.2 1501.61 1094 1524.31 1094.08 1547.01 C 1128.54 1546.01 1162.36 1542.43 1196.64 1539.72 C 1197.49 1553.54 1196.93 1576.59 1196.02 1590.58 C 1168.07 1594.99 1123.84 1596.76 1094.62 1598.53 C 1093.25 1619.66 1094 1647.49 1093.98 1669.08 C 1128.21 1666.97 1163.17 1664.97 1197.19 1661.1 C 1200.56 1660.44 1203.15 1659.4 1206.08 1660.84 C 1208.53 1668.49 1206.03 1702.99 1205.37 1712.95 C 1190.79 1715.34 1163.04 1716.8 1147.76 1717.86 C 1109.26 1720.85 1070.68 1722.67 1032.07 1723.29 L 1032.15 1544.02 C 1032.1 1508.99 1030.72 1461.65 1032.75 1427.17 z" fill="rgb(239,235,228)" transform="translate(0,0)"></path>
<path d="M 1876.8 1437.92 L 1877.99 1437.22 L 1876.8 1437.92 z" fill="rgb(239,235,228)" transform="translate(0,0)"></path>
<path d="M 1879.54 1460.95 L 1879.99 1460.25 L 1879.54 1460.95 z" fill="rgb(239,235,228)" transform="translate(0,0)"></path>
<path d="M 1873.45 1487.05 L 1873.99 1486.25 L 1873.45 1487.05 z" fill="rgb(239,235,228)" transform="translate(0,0)"></path>
<path d="M 181.637 1487.91 L 181.005 1487.26 L 181.637 1487.91 z" fill="rgb(239,235,228)" transform="translate(0,0)"></path>
<path d="M 364.869 1534.24 L 365.937 1534.79 L 364.869 1534.24 z" fill="rgb(239,235,228)" transform="translate(0,0)"></path>
<path d="M 1923.01 1555.86 L 1924.18 1555.34 L 1923.01 1555.86 z" fill="rgb(239,235,228)" transform="translate(0,0)"></path>
<path d="M 1922.49 1556.5 L 1920.76 1556.5 L 1922.49 1556.5 z" fill="rgb(239,235,228)" transform="translate(0,0)"></path>
<path d="M 1919.49 1557.5 L 1918.26 1557.5 L 1919.49 1557.5 z" fill="rgb(239,235,228)" transform="translate(0,0)"></path>
<path d="M 1916.49 1558.5 L 1915.26 1558.5 L 1916.49 1558.5 z" fill="rgb(239,235,228)" transform="translate(0,0)"></path>
<path d="M 215.199 1561.77 L 214.005 1561.2 L 215.199 1561.77 z" fill="rgb(239,235,228)" transform="translate(0,0)"></path>
<path d="M 1901.49 1585.5 L 1900.31 1585.5 L 1901.49 1585.5 z" fill="rgb(239,235,228)" transform="translate(0,0)"></path>
<path d="M 1798.34 1596.38 L 1798.79 1596.99 L 1798.34 1596.38 z" fill="rgb(239,235,228)" transform="translate(0,0)"></path>
<path d="M 234.49 1615.5 L 233.254 1615.5 L 234.49 1615.5 z" fill="rgb(239,235,228)" transform="translate(0,0)"></path>
<path d="M 238.49 1616.5 L 236.755 1616.5 L 238.49 1616.5 z" fill="rgb(239,235,228)" transform="translate(0,0)"></path>
<path d="M 241.079 1617.85 L 239.877 1617.36 L 241.079 1617.85 z" fill="rgb(239,235,228)" transform="translate(0,0)"></path>
<path d="M 106.25 1687.91 L 106.663 1687.31 L 106.25 1687.91 z" fill="rgb(239,235,228)" transform="translate(0,0)"></path>
<path d="M 1840.05 1771.86 L 1840.48 1770.85 L 1840.05 1771.86 z" fill="rgb(239,235,228)" transform="translate(0,0)"></path>
<path d="M 134.005 1771.9 L 135.095 1770.95 L 134.005 1771.9 z" fill="rgb(239,235,228)" transform="translate(0,0)"></path>
<path d="M 132.405 1773.5 L 131.232 1773.5 L 132.405 1773.5 z" fill="rgb(239,235,228)" transform="translate(0,0)"></path>
<path d="M 1843.23 1782.99 L 1843.76 1782.46 L 1843.23 1782.99 z" fill="rgb(239,235,228)" transform="translate(0,0)"></path>
<path d="M 1885.99 1797.27 L 1885.5 1797.14 L 1885.3 1796.22 L 1885.98 1796.19 L 1885.99 1797.27 z" fill="rgb(239,235,228)" transform="translate(0,0)"></path>
<metadata><recraft-signature>{"signed_by": "recraft", "signature_b64": "ZJw5X13OyXhsX4a+rygGgq9Z/fb05a/QvfQLJZV+Xm9B1746MFycQb7YsBwE+8JwlOYITfn9KKG/mauZ5NCSAg==", "signing_algo": "Ed25519", "generation_timestamp": 1776598662, "identifier": "03323dda-801e-44e8-bf46-7bf4743c2fd9"}</recraft-signature></metadata></svg>