<svg xmlns="http://www.w3.org/2000/svg" height="1024" preserveAspectRatio="none" style="display: block;" version="1.1" viewBox="0 0 2048 2048" width="1024">
<path d="M 0 915.131 C 5.07461 857.67 21.7042 815.64 62.3199 773.32 C 1.5415 678.142 58.0495 575.766 150.821 529.807 C 160.351 498.438 177.839 466.617 201.724 443.879 C 189.544 410.363 177.936 377.848 167.067 343.877 C 152.444 298.174 141.76 251.157 128.632 205.446 C 202.986 230.776 279.223 246.264 354.076 270.099 C 374.135 276.486 393.447 284.709 412.971 292.502 C 411.508 270.217 412.913 252.554 424.648 232.91 C 445.936 197.273 489.67 161.063 531.25 154.163 C 545.983 103.442 578.18 80.162 622.502 53.4548 C 651.45 36.011 695.074 32.8095 727.154 41.9744 C 743.244 46.571 755.193 54.6316 768.155 65.3653 C 775.517 49.5832 786.173 43.015 800.535 33.9598 C 855.944 -0.976071 974.984 -10.7497 1023.57 39.7655 C 1078.24 -13.2419 1211.72 -4.21808 1265.74 47.9697 C 1269.59 51.6895 1273.84 57.6961 1277.06 62.0716 C 1312.16 39.3125 1338.18 29.7919 1381.85 38.672 C 1424.98 47.4411 1481.37 87.1043 1505.93 123.486 C 1511.84 132.236 1517.6 146.263 1521.19 156.258 C 1567.09 173.151 1629.85 212.049 1633.37 267.598 C 1633.91 276.11 1632.16 284.961 1630.39 293.289 C 1667.84 279.526 1705.7 266.906 1743.91 255.448 C 1799.76 239.296 1864.5 223.614 1918.8 205.455 C 1900.95 274.274 1874.9 379.285 1845.78 442.641 C 1877.23 469.4 1886.37 491.637 1899.69 530.8 C 1981.27 569.114 2049.17 679.004 1982.54 759.616 L 1986.56 779.871 C 2047.56 808.467 2059.18 926.088 2033.27 981.371 C 2024.96 999.1 2014.01 1011.47 1998.35 1022.95 C 2004.99 1029.2 2014.37 1036.12 2019.82 1043 C 2038.55 1066.64 2044.47 1096.98 2045.49 1126.43 C 2047.59 1187.31 2023.71 1245.03 1975.97 1283.51 C 2035.83 1327.53 2008.8 1416.48 1970.9 1465.46 C 1951.5 1490.54 1920.85 1513.23 1890.38 1522.32 C 1883.89 1559.5 1874.96 1579.93 1846.33 1605.91 C 1878.18 1688.16 1898.98 1754.62 1918.32 1841.12 C 1864.16 1823.2 1807.23 1810.6 1752.39 1794.77 C 1712.08 1783.13 1672.87 1768.57 1633.55 1754.04 C 1637.64 1779.99 1633.62 1800.18 1617.66 1821.49 C 1596.07 1850.34 1557.55 1883.72 1521.29 1890.95 C 1508.37 1937.63 1475.84 1963.42 1435.15 1987.67 C 1399.55 2008.89 1360.47 2017.72 1319.65 2006.52 C 1303.62 2002.07 1288.5 1994.81 1275.01 1985.08 C 1262.94 2009.44 1232.08 2023.96 1207.49 2032.14 C 1153.27 2050.19 1066.81 2053.43 1023.47 2009.78 C 1009.42 2029.18 972.899 2038.05 950.545 2041.97 C 896.894 2051.39 797.955 2036.09 767.895 1984.97 C 734.213 2008.07 704.605 2014.01 663.489 2007.7 C 623.806 2001.62 570.155 1964.49 547.893 1932.1 C 539.531 1920.04 533.4 1906.58 529.79 1892.36 C 487.097 1879.5 444.341 1851.62 423.074 1811.61 C 414.15 1795.14 409.247 1776.79 408.768 1758.07 C 371.856 1771.67 334.398 1785.4 296.385 1795.64 C 239.479 1810.99 185.727 1822.36 130.05 1842.06 C 147.974 1775.3 160.639 1705.64 189.292 1642.22 C 194.299 1631.14 199.248 1619.55 203.926 1608.31 C 171.883 1582.25 165.44 1557.93 157.997 1518.6 C 89.6608 1510.54 26.0619 1412.21 36.5836 1345.46 C 41.8325 1312.16 49.7263 1305.31 71.2679 1282.5 C 32.0846 1252.66 9.58463 1214.91 2.83711 1166.02 C -2.53124 1127.13 0.803826 1076.63 26.2254 1044.98 C 32.4475 1037.23 39.8925 1030.2 47.0386 1023.24 C 43.4467 1019.39 39.1113 1015.02 35.1075 1011.72 C 14.1477 994.419 4.46517 966.918 1.76829 940.582 C 1.12313 934.281 0.957909 926.261 0 919.965 L 0 915.131 z M 214.799 281.759 C 227.231 288.707 246.355 302.381 257.921 310.974 C 281.578 328.549 307.283 347.929 329.913 366.773 C 321.505 342.945 311.813 319.949 303.217 296.242 C 317.008 315.073 326.59 332.626 336.381 353.601 C 338.867 358.925 348.036 379.589 351.226 383.153 C 370.365 404.539 394.39 424.244 413.163 446.059 C 409.797 434.853 406.399 423.645 403.08 412.424 C 394.203 382.407 382.194 354.776 375.635 324.014 C 396.301 354.33 409.858 391.918 421.511 426.452 C 424.601 435.612 429.381 456.744 433.528 463.823 C 437.276 470.22 454.33 486.564 460.261 492.735 C 472.583 505.556 483.473 517.051 495.009 530.657 C 500.478 485.653 492.534 440.707 478.865 397.971 C 476.229 389.73 474.545 382.777 473.467 374.152 C 503.492 421.702 513.238 488.187 507.878 543.806 C 512.439 549.812 515.889 554.118 520.935 559.695 C 524.884 540.513 528.16 528.693 535.887 510.124 C 544.394 489.682 557.107 466.456 561.714 445.031 C 544.115 435.866 534.579 417.614 520.626 404.151 C 507.58 391.565 493.106 380.2 478.619 369.315 C 402.979 315.72 318.076 288.756 229.239 266.605 C 209.476 261.678 189.426 254.52 169.967 249.872 C 181.49 293.117 196.176 335.304 210.945 377.507 C 251.743 494.082 323.65 590.799 442.782 635.878 C 451.917 631.494 463.205 626.441 472.016 621.795 C 464.508 620.17 440.569 616.007 436.063 611.616 C 438.403 607.361 452.392 608.593 457.058 608.647 C 436.106 602.732 419.419 602.268 400.233 591.702 C 434.763 589.687 480.606 593.408 513.659 580.882 C 507.66 573.577 499.773 564.504 494.733 556.753 C 446.015 540.53 397.358 529.413 348.407 514.25 C 342.242 512.34 335.199 509.87 329.534 506.901 C 379.603 518.166 425.334 525.585 474.722 535.291 C 467.426 526.504 427.469 476.844 423.577 475.223 C 376.176 455.475 291.748 443.643 249.987 410.694 C 274.584 415.29 297.448 423.264 321.442 430.271 C 346.802 437.415 372.332 443.945 398.009 449.853 C 378.835 430.925 363.79 411.737 345.838 393.197 C 326.724 392.371 262.321 371.463 248.52 359.879 C 253.49 360.421 259.492 361.946 264.325 363.276 C 284.24 368.755 303.986 372.797 324.299 376.485 C 296.298 350.44 263.473 325.407 234.649 299.956 C 227.874 293.974 220.363 289.071 214.799 281.759 z M 1308.7 395.452 L 1308.17 395.884 L 1308.7 395.452 C 1311.96 393.552 1314.88 391.42 1318.59 391.037 L 1320.45 392.054 C 1320.88 397.055 1318.03 400.155 1318.3 404.321 C 1326.23 403.115 1332.38 397.807 1338.5 400.506 C 1339.63 404.631 1335.77 408.873 1333.42 412.163 L 1333.02 412.804 L 1333.42 412.163 C 1343.96 406.613 1349.7 407.336 1361.39 408.245 C 1350.62 418.401 1348.91 417.75 1343.33 431.275 C 1356.42 422.811 1360.36 420.319 1374.82 415.319 C 1367.84 427.615 1358.82 437.17 1351.74 449.329 C 1364.27 441.561 1371.5 437.254 1385.68 433.214 C 1372.62 447.383 1365.32 455.593 1354.19 471.585 C 1368.7 462.909 1373.98 460.078 1389.62 454.837 C 1382.1 466.365 1373.18 477.242 1365.27 489.044 C 1375.33 484.136 1381.82 481.293 1392.48 477.821 C 1384.89 489.979 1380.71 496.527 1371.27 507.506 C 1380.18 503.806 1386.32 501.639 1395.96 499.997 C 1391.56 510.927 1385.65 518.797 1379.05 528.576 C 1386.01 527.069 1393.48 525.306 1400.44 524.089 C 1397.83 530.716 1394.18 537.825 1392.82 544.405 L 1393.88 543.718 C 1395.52 542.676 1394.88 543.065 1396.76 542.073 C 1400.32 547.097 1396.75 565.22 1397.11 575.012 C 1402.53 563.076 1406.69 553.305 1410.98 540.892 C 1416.53 524.865 1421.47 506.111 1429.27 491.208 C 1428.23 515.17 1423.71 532.925 1418.6 556.177 C 1424.29 546.193 1430.11 536.331 1435.95 526.432 C 1439.77 519.951 1443.05 512.292 1447.6 506.45 C 1445.21 523.17 1439.64 537.863 1433.8 553.568 C 1432.34 557.497 1428.8 565.042 1427.72 568.433 L 1427.21 568.869 L 1427.72 568.433 C 1434.81 562.489 1452.14 538.136 1458.36 536.813 C 1463.31 547.471 1447.49 574.808 1441 583.856 C 1456.49 570.684 1462.68 560.191 1474.75 549.046 C 1472.9 567.805 1469.2 579.042 1459.51 595.597 C 1457.71 598.655 1452.86 605.808 1451.54 608.374 L 1451.07 608.825 L 1451.54 608.374 C 1466.54 601.052 1474.78 586.575 1483.87 573.148 C 1477.34 600.559 1462.49 623.403 1444.8 644.721 C 1466.79 635.746 1483.79 607.095 1498.21 587.52 C 1492.34 614.024 1489.29 619.325 1475.94 640.739 C 1479.79 638.15 1484.06 632.019 1486.78 628.233 C 1499.8 610.117 1503.36 598.877 1508.42 577.689 C 1509.39 588.259 1510.02 599.109 1508.32 609.628 C 1498.57 670.013 1474.53 702.41 1427.46 738.623 L 1442.93 743.887 C 1447.75 740.777 1452.41 737.419 1456.88 733.826 C 1483.42 712.535 1496.87 690.041 1507.3 658.7 C 1524.1 608.19 1524.48 575.819 1503.4 527.891 C 1483.31 482.248 1470.79 438.688 1476.5 388.005 C 1453.33 389.768 1430.03 388.305 1407.26 383.657 C 1361.63 374.235 1325.45 356.367 1275.99 364.373 C 1277.87 368.473 1279.31 372.671 1280.87 376.904 C 1290.16 379.951 1302 384.078 1310.37 389.109 C 1311.18 391.952 1310.38 391.918 1308.7 395.452 z M 684.165 408.671 C 701.023 404.024 714.403 401.677 731.584 404.026 L 731.995 404.748 L 731.584 404.026 L 730.073 403.085 C 726.52 400.917 721.156 399.413 719.078 396.945 C 723.516 392.474 743.933 396.911 750.621 398.023 C 742.762 393.724 737.769 391.357 729.485 387.937 L 731.485 387.895 C 740.832 387.744 745.633 388.618 754.735 390.779 L 755.924 389.604 L 756.491 389.929 L 756.056 391.077 L 756.972 390.204 L 757.808 391.428 L 758.705 391.18 L 756.283 389.611 L 755.906 390.898 C 754.622 387.767 744.161 383.014 740.07 380.656 C 748.691 383.002 756.498 385.726 765.428 385.408 L 766.999 384.367 C 765.829 379.381 758.268 376.145 754.003 373.853 C 758.981 374.582 765.147 375.309 769.974 376.343 L 776.107 363.679 C 740.321 354.388 678.557 375.057 640.433 380.506 C 614.633 384.193 599.764 385.068 573.423 385.944 C 579.504 422.214 578.255 454.396 561.408 487.144 C 527.481 553.094 520.546 630.278 565.058 693.332 C 576.058 708.914 589.023 721.843 602.92 735.803 C 611.223 732.628 617.275 730.562 625.817 728.134 C 619.84 726.417 613.702 724.372 608.537 720.863 C 561.705 689.04 537.444 619.458 552.989 566.141 C 554.215 561.874 555.713 557.69 557.474 553.614 C 556.557 585.4 559.412 610.398 572.727 639.402 C 574.563 643.401 578.814 652.614 581.297 655.883 L 581.848 656.995 L 581.297 655.883 L 581.067 655.029 C 578.731 646.678 573.921 635.828 570.887 627.308 C 561.907 602.093 561.367 576.631 567.422 550.643 C 569.145 561.829 568.58 573.005 569.749 583.776 C 571.851 603.148 578.831 640.958 593.322 655.394 L 593.805 655.909 L 593.322 655.394 C 591.949 649.797 587.254 637.781 585.223 631.853 C 577.593 609.593 575.018 593.338 576.404 570.099 C 582.836 604.028 587.308 616.05 607.439 644.988 C 594.599 608.172 589.372 595.167 585.397 555.859 C 593.011 572.338 595.79 593.175 605.363 610.091 L 605.717 611.2 L 605.363 610.091 C 604.618 604.475 601.617 592.883 600.32 586.87 C 594.325 559.091 593.069 539.34 604.5 513.19 C 604.74 516.691 604.279 522.611 604.439 526.817 C 604.831 537.07 605.928 545.869 607.256 555.983 C 608.336 537.964 611.016 515.459 619.667 499.536 C 617.356 529.725 617.039 556.998 629.542 585.01 C 626.315 563.39 626.185 521.946 635.308 502.102 C 635.322 529.158 633.711 571.589 650.52 594.507 C 646.948 582.734 644.619 574.507 643.436 562.304 C 649.117 567.578 656.88 577.382 662.933 583.772 C 656.625 571.522 652.215 563.613 647.125 550.614 C 656.096 559.622 662.612 565.618 672.195 573.966 C 665.816 559.873 654.479 544.118 647.145 529.426 C 657.136 537.733 665.634 546.916 675.967 554.738 C 669.981 541.269 659.521 531.715 651.269 518.521 C 658.091 522.519 665.33 526.954 672.364 530.44 L 672.854 530.847 L 672.364 530.44 C 667.549 522.849 658.024 509.812 654.623 502.55 C 660.05 505.203 667.408 511.458 672.323 515.371 C 668.165 505.64 661.486 496.341 655.564 487.507 L 656.281 487.861 L 657.467 488.47 C 665.507 492.517 671.69 496.844 679.155 501.812 C 671.973 487.585 666.464 479.19 656.953 466.601 C 668.979 472.257 674.869 477.466 684.375 486.582 C 679.548 475.366 671.987 465.987 664.791 456.143 C 677.52 458.095 685.679 460.218 695.857 468.37 C 687.561 456.028 681.853 449.884 671.891 438.687 C 680.135 441.389 699.738 448.192 707.46 449.226 L 707.987 449.749 L 707.46 449.226 C 698.941 439.093 684.194 435.198 681.977 429.953 C 689.812 426.13 712.621 434.149 722.387 436.056 L 723.416 436.25 L 723.995 436.747 L 723.416 436.25 C 716.814 431.164 699.611 423.279 691.599 419.577 C 702.764 417.977 704.83 417.864 716.397 418.492 C 706.342 413.925 694.9 411.377 684.165 408.671 z M 912.355 533.486 C 908.218 530.74 903.623 527.103 900.329 523.363 C 891.053 512.76 886.399 498.89 887.404 484.837 C 888.493 467.236 898.147 446.157 911.798 434.84 C 937.875 413.22 958.396 422.995 986.411 425.071 L 987.439 425.141 L 987.919 425.745 L 987.439 425.141 C 980.883 419.838 965.709 413.925 957.476 411.796 C 917.861 400.026 887.432 428.08 879.197 464.884 C 874.026 487.524 873.668 516.919 894.198 532.341 C 902.291 538.332 912.458 544.102 921.547 548.326 C 957.756 565.152 985.522 588.156 1014.32 615.229 C 1026.53 626.711 1043.82 638.052 1057.35 649.207 C 1079.08 667.194 1097.61 688.717 1112.18 712.87 C 1115.61 710.8 1119.19 708.176 1122.51 705.866 C 1105.14 675.221 1069.4 643.592 1040.74 623.862 C 1060.92 604.673 1077.78 583.375 1099.8 565.688 C 1119.76 549.655 1142.21 539.552 1161.42 522.856 C 1171.21 514.347 1174.04 506.742 1176.87 494.505 C 1179.67 461.798 1163.32 419.85 1128.22 411.052 C 1102.97 404.723 1079.93 415.34 1058.51 428.046 C 1078.46 424.907 1096.74 418.393 1117.1 422.666 C 1161.31 431.945 1186.61 498.011 1141.73 524.274 C 1137.57 508.541 1126.63 484.618 1114.5 473.771 C 1082.68 442.629 1052.41 492.602 1023.78 488.273 C 989.68 483.115 963.556 440.073 929.01 479.508 C 913.582 497.119 911.058 510.12 912.355 533.486 z M 1566.41 536.432 C 1620.15 526.789 1668.41 516.878 1720.9 501.645 C 1715.65 506.069 1699.6 513.199 1693.23 515.758 C 1661.62 528.461 1629.67 536.562 1596.3 542.985 C 1581.04 546.447 1565.27 548.785 1550.16 552.817 C 1542.79 554.786 1534.73 561.402 1534.46 569.568 C 1534.04 582.665 1548.73 579.933 1556.72 584.715 C 1560.48 586.962 1566.03 592.77 1569.29 595.912 C 1592.96 593.139 1625.52 593.915 1650.35 592.916 C 1626.12 602.979 1609.17 605.69 1583.16 607.565 L 1621.29 630.901 C 1634.71 625.736 1647.77 619.668 1660.38 612.739 C 1790.6 540.836 1838.56 382.232 1877.01 249.089 C 1760.01 281.517 1546.92 332.331 1493.17 453.05 C 1496.14 475.673 1517.48 527.246 1526.65 551.21 L 1532.88 544.56 C 1523.07 495.132 1552.39 418.1 1583.6 379.861 C 1578.94 394.492 1571.84 409.149 1566.85 423.496 C 1555.6 455.877 1543.1 499.558 1541.56 533.688 C 1548 529.662 1550.42 527.543 1556.16 522.502 C 1564.21 515.448 1612.18 473.84 1613.94 468.947 C 1629.86 424.732 1642.17 354.901 1677.98 319.61 C 1664.62 362.932 1645.45 402.61 1632.55 448.72 C 1651.42 429.035 1675.6 410.603 1693.01 389.73 C 1696.58 385.452 1703.19 369.322 1705.72 363.576 C 1716.36 339.385 1723.59 318.281 1739.8 296.823 C 1736.94 314.143 1722.11 353.852 1715.76 371.514 C 1735.22 351.338 1814.29 290.449 1838.42 278.435 C 1799.3 312.947 1761.39 343.284 1722.66 378.855 C 1743.54 371.564 1785.78 361.993 1807.15 358.251 C 1792.6 362.668 1770.54 373.791 1755.11 379.017 C 1749.76 380.831 1705.22 396.726 1703.37 398.015 C 1689.94 407.388 1661.85 441.338 1650.27 454.565 C 1669.89 448.258 1689.25 441.877 1709.06 436.145 C 1739.17 427.428 1767.32 417.639 1798.15 411.514 C 1760.79 433.696 1705.19 448.881 1663.97 464.046 C 1654.54 467.517 1633.72 470.906 1626.69 475.933 C 1619.09 481.358 1606.5 495.267 1599.58 502.509 C 1588.69 513.981 1577.63 525.289 1566.41 536.432 z M 226.069 527.474 C 232.133 522.803 237.153 519.927 242.213 514.168 C 233.264 517.715 233.617 518.489 223.978 519.366 L 223.766 518.289 C 227.959 516.292 229.826 515.757 234.332 514.411 C 231.701 511.369 227.639 506.957 225.405 503.802 C 207.085 515.593 130.025 592.858 126.361 610.55 C 124.96 617.317 127.084 624.275 131.122 629.754 C 135.827 636.232 143.017 640.458 150.965 641.417 C 170.964 643.688 176.882 630.52 187.69 616.987 C 192.64 610.789 197.379 604.335 202.202 598.032 C 218.203 577.113 234.496 556.42 251.079 535.959 C 244.078 540.688 237.63 546.174 231.013 550.548 C 236.463 543.199 242.245 539.93 247.604 533.282 L 247.147 533.903 L 245.562 533.843 C 240.01 537.453 235.304 540.207 229.518 543.446 C 234.246 537.205 242.179 532.041 248.458 524.684 C 240.51 527.629 233.113 533.123 225.697 537.658 C 231.287 531.777 237.781 526.248 243.929 520.94 C 237.988 523.151 232.034 525.329 226.069 527.474 z M 1159.05 562.094 C 1166.35 560.694 1183.6 541.932 1187.96 535.179 C 1195.69 523.194 1197.23 516.16 1200.29 502.795 C 1234.88 480.625 1261.44 495.676 1275.23 437.583 C 1281.19 412.469 1273.64 385.741 1259.73 364.186 C 1234.43 324.97 1181.35 299.878 1139.91 281.264 C 1121.88 273.164 1102.96 264.687 1083.55 260.61 C 1059.16 255.485 1045.66 259.32 1024.34 270.952 C 1016.21 266.905 1003.55 259.924 994.833 259.087 C 962.963 256.026 930.801 274.255 902.83 286.066 C 834.453 314.939 752.608 364.928 785.989 451.522 C 790.698 463.726 797.088 480.522 809.686 486.68 C 818.223 490.777 829.847 492.993 836.907 498.187 C 852.084 509.351 852.613 530.552 864.507 544.583 C 872.08 553.517 878.971 558.038 888.773 564.024 L 889.421 565.251 C 904.046 593.536 896.264 634.869 888.713 663.95 C 887.372 669.118 886.03 673.974 890.685 675.718 C 895.086 672.356 902.001 648.098 903.885 641.891 C 911.052 618.276 908.638 595.009 902.742 571.402 C 943.073 594.745 969.205 620.607 1015.1 633.314 C 1003.23 626.393 991.122 620.262 979.292 613.199 C 958.304 600.494 937.81 586.992 917.855 572.723 C 902.736 562.13 887.001 551.582 875.045 537.314 C 862.973 522.909 861.657 502.026 848.527 488.376 C 832.877 472.105 811.876 493.243 798.853 445.016 C 793.496 425.178 792.172 403.111 800.655 383.949 C 800.05 391.321 798.932 399.884 799.547 407.079 C 803.392 387.812 799.637 391.091 807.827 370.366 C 810.079 382.663 812.565 394.916 815.285 407.117 C 816.954 389.854 818.409 374.141 825.011 357.815 C 827.586 367.711 829.379 377.56 831.312 387.589 C 835.758 366.567 838.366 351.461 849.024 332.463 C 849.682 349.704 848.912 362.9 856.3 378.634 C 857.304 366.383 862.513 335.763 869.593 325.695 L 871.379 324.998 C 874.221 328.56 874.002 356.429 874.554 363.496 C 881.157 347.277 883.191 332.026 888.794 315.945 C 891.11 313.43 889.728 313.966 892.727 313.622 C 896.421 317.323 898.09 348.367 898.53 354.931 C 901.232 344.36 905.094 323.147 910.531 314.983 L 912.437 314.303 C 917.632 318.585 917.125 343.006 917.3 350.342 C 922.331 334.247 929.423 318.871 938.399 304.596 C 939.027 318.638 940.365 331.201 941.317 344.999 C 946.194 331.835 952.013 312.827 958.099 300.823 C 960.628 317.325 960.238 332.082 962.293 347.809 C 967.679 331.439 970.973 319.329 979.349 304.28 C 984.849 319.982 985.733 337.563 992.514 350.701 C 994.391 335.176 994.777 323.38 1001.22 309.233 C 1005.11 328.968 1011.36 351.822 1019.56 370.276 C 1018.61 360.855 1017.46 351.039 1016.69 341.641 C 1018.1 344.091 1025.38 367.064 1026.9 371.619 C 1030.32 359.974 1030.7 350.532 1031.33 338.388 C 1033.48 350.4 1034.18 357.666 1033.93 369.874 C 1041.8 351.978 1050.37 328.841 1055.42 310.093 C 1058.25 324.665 1058.94 340.385 1059.65 355.221 C 1065.69 340.107 1068.73 326.979 1072.95 311.518 C 1073.69 308.795 1074.15 308.892 1075.87 308.006 C 1080.43 311.9 1087.53 338.963 1090.53 347.066 C 1091.2 338.689 1092.52 315.168 1094.71 308.479 L 1096 307.382 C 1099.83 310.777 1108.37 348.392 1110.21 355.8 C 1111.01 346.875 1111.41 311.908 1114.2 309.108 C 1120.33 312.757 1128.34 345.725 1132.98 353.004 L 1134.07 352.516 C 1136.51 339.116 1131.51 326.462 1135.36 311.415 L 1136.78 310.652 C 1142.88 316.32 1152.09 352.145 1156.33 363.086 C 1157.67 347.567 1156.55 337.598 1155.48 322.284 C 1155.35 320.36 1155.73 318.43 1156.93 316.853 C 1166.99 321.278 1173.69 362.032 1175.84 372.29 C 1178.09 356.115 1176.72 346.244 1176.18 330.211 C 1176.11 328.034 1176.56 326.093 1178 324.414 C 1187.36 328.373 1196.94 365.936 1198.34 377.009 L 1198.56 375.546 C 1200.7 360.476 1193.86 342.777 1197.08 333.531 L 1198.58 333.369 C 1205.53 341.872 1213.96 371.811 1216.67 382.871 L 1216.69 381.59 C 1216.75 372.725 1212.4 346.891 1214.88 342.792 C 1222.2 346.307 1231.73 382.596 1234.04 391.909 C 1233.76 379.117 1230.46 366.874 1229.15 354.044 C 1242.72 381.08 1248.24 392.561 1250.86 422.363 C 1252.75 407.174 1252.67 397.092 1252.03 381.745 C 1262.59 410.168 1267.98 448.529 1243.73 471.873 C 1229.77 474.868 1198.06 482.139 1189.86 495.08 C 1183.19 505.6 1183.64 526.366 1171.99 538.107 C 1139.48 570.859 1105.64 582.121 1081.25 625.511 C 1103.65 609.223 1117.59 585.435 1146.87 570.292 C 1133.94 613.859 1143.49 640.446 1162.39 681.324 C 1156.93 655.171 1149.36 631.344 1151.21 604.027 C 1152.13 590.354 1155.21 577.356 1159.83 564.503 C 1159.57 563.7 1159.31 562.897 1159.05 562.094 z M 755.473 572.371 C 766.223 573.137 771.619 574.714 781.996 577.302 L 783.329 578.355 L 783.914 578.759 L 783.329 578.355 L 781.996 577.302 C 733.63 542.855 629.372 597.072 723.651 651.761 C 745.403 664.232 769.243 672.638 794.005 676.569 C 798.959 677.381 810.104 678.288 812.702 681.618 C 811.696 685.239 811.151 686.796 809.693 690.261 C 855.465 787.817 943.737 749.447 1018.29 794.208 L 1028.87 782.618 C 1017.87 770.674 1005.62 761.507 992.684 751.797 C 965.137 730.912 935.168 713.432 903.427 699.738 C 879.363 689.163 854.609 680.32 831.097 668.798 C 804.703 655.864 779.75 640.004 754.947 624.301 C 749.777 621.028 723.89 607.257 721.408 604.192 C 725.567 597.441 745.079 604.432 752.153 605.812 C 741.182 599.946 727.557 596.156 715.563 592.194 C 731.056 587.566 737.004 589.402 752.648 593.866 C 739.685 586.377 736.196 585.052 721.243 584.703 C 752.744 576.433 757.498 589.476 765.173 588.429 C 759.704 584.983 745.39 578.131 742.687 575.29 C 748.584 572.665 764.828 580.65 771.874 582.364 L 773.469 583.265 L 773.995 583.78 L 773.469 583.265 L 771.874 582.364 C 768.671 579.741 759.533 574.719 755.473 572.371 z M 1290.66 588.483 L 1290.22 588.864 L 1290.66 588.483 C 1304.25 582.284 1300.97 580.889 1318.57 577.889 C 1312.45 582.215 1305.66 587.889 1300.65 593.454 C 1310.7 587.35 1317.01 581.631 1328.53 583.812 L 1328.92 584.767 C 1318.93 590.488 1314.16 597.331 1308.18 606.758 C 1318.1 599.084 1321.19 597.484 1332.92 592.878 C 1326.22 600.825 1303.58 623.075 1295.31 628.643 C 1255.04 655.779 1207.22 672.175 1165.23 696.682 C 1134.32 714.727 1110.54 734.574 1083.17 756.383 C 1023.91 803.61 975.327 846.982 955.761 923.688 C 958.592 921.039 961.721 917.464 964.41 914.57 C 985.317 892.091 1008.58 871.927 1033.8 854.426 C 1046.67 845.653 1061.34 840.292 1072.57 829.331 C 1086.17 816.058 1072.46 794.251 1090.24 784.288 C 1104.28 777.78 1111.61 776.998 1127.59 773.567 C 1173.28 763.758 1238.21 741.049 1248.71 688.795 C 1249 687.382 1245.38 685.365 1244.74 681.589 C 1248.97 676.126 1268.25 676.181 1279.29 672.589 C 1292.95 668.102 1306.05 662.077 1318.36 654.63 C 1413.35 596.503 1322.29 552.006 1285.09 577.516 C 1287.11 577.869 1302.84 575.377 1306.58 574.984 C 1301.07 579.475 1294.69 583.08 1290.66 588.483 z M 215.291 623.271 L 211.626 621.914 C 211.205 624.389 212.034 624.8 213.376 627.602 L 209.57 625.764 L 208.707 626.674 L 211.322 633.352 L 207.902 630.973 L 206.708 631.472 C 207.712 633.984 208.658 636.519 209.545 639.074 L 206.592 636.869 L 205.069 637.127 C 205.338 641.819 205.057 640.174 208.105 644.495 L 207.673 646.077 L 205.246 642.845 C 203.456 645.098 199.332 661.387 197.56 665.862 C 183.955 700.208 166.785 729.621 159.556 766.177 C 185.885 740.902 226.084 643.374 222.322 607.805 C 219.279 611.345 214.458 616.26 212.99 620.362 L 215.291 623.271 z M 1596.01 675.249 L 1596.51 675.883 C 1598.8 678.041 1610.93 686.158 1614.37 688.435 C 1626.71 696.597 1635.34 702.814 1646.16 713.062 C 1623.97 703.195 1617.69 700.235 1594.55 695.528 C 1615.02 705.173 1633.74 718.157 1649.95 733.951 C 1631.41 728.925 1621.54 725.309 1602.46 724.561 C 1624.18 735.367 1633.98 740.955 1650.3 759.52 C 1624.07 748.9 1611.95 739.443 1583.31 744.012 C 1614.09 748.34 1634.87 764.603 1655.02 787.207 C 1623.71 771.708 1615.32 763.578 1578.08 762.234 C 1609.19 771.802 1627.63 781.439 1649.99 805.914 C 1623.35 789.67 1611.52 785.518 1580.28 782.217 C 1607.5 792.575 1622.27 799.852 1642.67 821.022 C 1615.98 809.287 1597.76 801.115 1568.38 802.253 C 1594.56 810.708 1617.33 815.913 1635.44 837.781 C 1629.72 836.465 1620.2 832.74 1614.13 830.695 C 1592.93 823.551 1579.1 822.814 1557.25 824.549 C 1569.25 827.884 1609.57 839.652 1614.87 851.414 C 1612.51 853.738 1606.55 851.049 1603.27 849.964 C 1584.31 843.686 1564.22 841.443 1544.55 845.838 C 1563.22 848.393 1581.38 854.899 1596.01 866.891 C 1558 864.332 1560.93 859.799 1520 868.461 C 1534.3 869.436 1545.89 874.525 1556.9 883.423 C 1539.74 881.548 1522.43 881.468 1505.25 883.185 C 1511.18 884.457 1536.44 889.136 1535.82 896.715 C 1529.25 902.346 1517.06 900.627 1508.95 902.694 C 1497.05 905.722 1484.67 911.156 1472.94 915.374 C 1500.28 920.615 1526.46 930.158 1548.47 947.471 C 1560.36 956.821 1564.53 962.117 1578.28 968.498 C 1573.57 972.39 1538.07 970.855 1529.7 970.735 C 1537.86 974.67 1546.15 976.956 1554.88 979.246 L 1579.84 984.671 C 1566.47 987.832 1550.02 987.675 1535.88 988.347 C 1535.29 988.903 1534.71 989.467 1534.14 990.037 C 1531.27 992.899 1529.19 994.733 1529.19 998.78 C 1533.96 1004.38 1541.68 1001.74 1549.81 1004.54 L 1550.47 1006.05 L 1548.46 1008.54 C 1537.71 1010.5 1528.9 1014.82 1518.94 1019.13 C 1525.69 1020.72 1539.95 1021.18 1544.37 1025.39 C 1541.01 1028.89 1514.72 1030.74 1506.41 1032.82 L 1505.02 1033.18 C 1521.51 1035.11 1525.89 1035.97 1541.47 1042.27 C 1522.7 1045.04 1511.1 1041.71 1491.28 1045.94 L 1517.52 1054.85 C 1496.21 1054.71 1481.24 1055.08 1459.87 1056.64 C 1469.86 1059.25 1481.51 1063.47 1492.04 1066.4 C 1474.37 1068.65 1451.87 1066.98 1434.07 1064.77 C 1439.85 1068.13 1447.13 1071.65 1451.25 1076.59 L 1450.26 1078.09 C 1441.92 1078.24 1422.82 1072.63 1414.09 1070.31 C 1422.05 1081.39 1429.21 1084.6 1438.8 1093.96 C 1420.04 1087.68 1407.21 1079.02 1391.56 1067.65 C 1394.7 1075.13 1396.04 1078.2 1400.34 1084.98 C 1394.53 1083.77 1392.1 1083.46 1386.68 1080.72 C 1385.44 1090.25 1383.92 1096.22 1380.92 1105.25 C 1383.08 1106.39 1385.28 1107.46 1387.5 1108.48 C 1413.99 1120.7 1447.97 1123.36 1476.66 1121.91 C 1536.1 1118.89 1584.51 1091.23 1620.44 1044.14 C 1647.47 1008.72 1662.86 978.336 1707.43 962.116 C 1685.62 910.1 1683.9 866.932 1687.8 811.737 C 1689.94 783.32 1690.72 755.839 1683.68 727.996 C 1671.47 679.751 1621.17 645.043 1579.29 621.753 C 1580.84 632.479 1582.54 641.344 1585.89 651.628 C 1611.13 669.857 1628.71 671.31 1653.31 700.378 C 1636.66 689.926 1616.24 675.015 1596.51 675.883 L 1596.01 675.249 z M 1351.52 799.233 L 1351.01 799.842 L 1351.52 799.233 C 1387.34 788.866 1419.03 788.781 1454.59 801.303 C 1419.15 798.743 1384.39 797.742 1351.45 813.705 C 1383.2 807.331 1419.67 808.649 1450.4 819.346 L 1449.01 819.428 C 1423.54 820.804 1368.03 815.786 1346.56 831.14 L 1346.01 831.749 L 1346.56 831.14 C 1381.49 825.552 1417.08 821.519 1449.41 839.77 C 1412.27 833.772 1368.77 834.337 1334.36 850.811 C 1374.12 842.968 1394.65 843.963 1434.83 851.793 L 1435 852.55 C 1429.89 852.566 1424.87 851.972 1419.88 851.902 C 1398.1 851.597 1353.87 858.989 1336.63 872.238 L 1336.01 872.76 L 1336.63 872.238 C 1342.16 871.572 1353.61 868.078 1360.42 866.839 C 1381.5 862.998 1403.52 864.773 1424.22 869.794 C 1406.81 873.087 1391.99 872.185 1372.6 876.899 C 1341.17 884.538 1326.75 893.227 1298.74 907.071 C 1273.34 919.622 1256.4 924.021 1233.43 942.712 C 1211.14 960.844 1194.56 981.525 1169.67 995.679 C 1148.23 1010.03 1101.35 1014.47 1083.14 993.093 C 1060.15 966.101 1045.54 950.772 1008.96 941.556 C 988.006 936.278 974.691 935.327 954.295 946.833 C 999.72 944.26 1033.03 957.192 1062.83 990.441 C 1073.13 1000.62 1085.54 1014.2 1099.02 1020.26 C 1133.43 1035.74 1183.11 1036.45 1218.63 1024.95 C 1240.13 1017.99 1256.43 1001.85 1273.83 988.917 C 1284.85 980.788 1296.51 973.566 1308.69 967.324 C 1353.69 943.942 1409.48 939.232 1448.57 905.248 C 1583.16 788.254 1397.67 686.684 1295.35 777.434 L 1303.02 773.852 C 1342.98 755.423 1386.61 751.279 1428.42 766.706 C 1398.24 768.082 1378.7 768.931 1350.35 779.815 C 1383.76 774.305 1419.8 767.935 1450.88 786.302 C 1423.59 783.812 1374.11 781.085 1351.52 799.233 z M 406.538 801.218 C 432.043 777.223 433.131 779.457 462.723 762.888 C 439.754 766.05 415.451 773.051 394.929 783.815 C 404.74 773.134 410.484 769.521 422.147 761.58 C 427.774 757.748 450.011 745.983 452.583 742.791 L 452.076 741.795 C 443.165 741.409 429.909 748.024 420.691 749.317 C 413.532 750.321 406.47 755.5 399.04 756.129 L 398.561 755.027 C 408.83 740.479 439.409 731.105 455.815 719.513 C 430.27 723.645 423.15 725.146 398.372 733.468 C 418.271 717.307 432.136 708.225 454.451 695.392 C 441.294 697.254 428.161 699.28 415.054 701.469 C 430.612 687.071 438.969 686.834 458.066 678.321 C 453.608 678.264 440.093 678.439 436.643 677.322 C 439.555 667.021 484.48 633.186 494.94 623.735 C 291.265 701.268 406.852 815.192 345.321 962.523 C 390.197 970.129 406.555 1012.11 431.986 1043.88 C 489.914 1116.25 588.762 1144.97 672.413 1100.75 C 670.315 1092.92 668.318 1085.06 666.423 1077.18 C 658.508 1079.22 642.937 1083.04 634.987 1083.41 L 632.972 1082.2 L 632.051 1077.06 C 626.888 1078.74 622.827 1081.06 617.878 1080.49 L 616.122 1079.43 C 615.647 1076.75 616.638 1074.92 617.56 1072.3 L 616.83 1071.77 C 610.742 1073.92 598.658 1080.48 593.976 1078.32 C 592.299 1074.17 594.708 1071.12 596.821 1067.47 C 591.397 1069.38 576.758 1076.62 574.325 1070 C 575.114 1065.2 576.638 1064.46 579.344 1060.53 C 574.332 1062.64 561.056 1070.38 558.207 1063.85 C 558.854 1058.55 560.916 1055.52 563.924 1051.09 C 556.678 1052.85 548.608 1054.99 541.32 1056.13 C 544.845 1048.06 547.918 1040.32 553.137 1033.18 C 546.962 1034.48 539.784 1035.82 533.804 1037.55 C 538.385 1022.26 543.512 1018.98 555.404 1008.26 C 545.755 1012.44 532.899 1018.72 522.846 1020.36 C 528.467 1007.13 536.669 998.958 546.731 988.775 C 549.378 986.097 553.228 983.349 555.455 980.704 L 555.979 980.25 L 555.455 980.704 C 548.695 982.225 521.58 991.445 515.526 994.231 C 523.729 980.416 544.64 964.67 556.969 953.004 C 535.72 961.675 521.664 970.509 498.638 976.109 C 518.167 953.449 531.866 944.129 556.502 928.465 C 534.445 933.054 502.165 948.928 480.439 958.501 C 496.46 940.315 507.566 932.033 528.549 918.783 C 531.075 917.188 537.455 913.389 538.887 911.009 L 537.451 909.94 C 526.39 910.381 475.044 934.934 462.844 940.789 L 463.316 940.17 C 477.509 921.927 496.871 912.579 515.472 899.518 C 518.559 897.351 526.724 892.753 527.607 889.736 L 526.046 888.243 C 517.258 887.728 460.391 916.013 444.285 922.23 C 464.09 901.758 492.287 887.337 515.456 871.578 C 518.227 869.693 518.615 869.585 518.936 867.242 L 517.282 866.277 C 504.937 865.935 471.758 884.838 458.174 889.804 C 448.73 893.256 438.721 896.7 428.979 899.892 C 441.816 890.42 451.641 883.209 465.11 874.877 C 475.034 868.737 501.817 855.363 508.996 848.946 L 508.977 847.603 C 501.519 842.745 428.881 873.002 413.089 876.258 C 428.087 860.64 459.98 848.144 479.716 838.583 C 485.055 835.996 494.098 832.6 498.45 829.407 L 498.405 827.68 C 490.168 821.65 421.359 847.046 409.502 851.742 C 416.601 844.548 424.659 838.367 433.448 833.374 C 441.212 828.92 484.305 810.807 485.968 807.596 L 485.275 805.527 C 479.124 801.989 420.805 821.346 409.597 824.231 C 425.503 807.19 460.76 797.399 479.993 785.076 C 454.733 788.377 432.724 796.888 406.538 801.218 z M 763.644 683.673 C 760.484 716.79 777.732 772.603 790.956 802.592 C 811.798 849.856 845.917 892.069 894.222 912.559 C 902.794 916.195 910.862 921 920.445 922.213 L 920.995 922.748 L 920.445 922.213 C 916.278 918.463 902.21 909.643 896.603 906.236 C 842.217 873.192 805.974 822.373 788.813 761.243 C 781.274 734.384 774.59 715.564 777.239 687.054 L 763.644 683.673 z M 1317.01 1061.21 L 1317.5 1061.72 C 1321.5 1065.83 1332.43 1072.81 1338.19 1074.19 C 1331.52 1067.54 1326.5 1064.43 1317.5 1061.72 L 1317.01 1061.21 z M 1305.02 1071.01 L 1307 1072 L 1309.83 1073.42 L 1311.49 1074.24 L 1312.38 1074.71 C 1318.83 1080.37 1332.16 1086.74 1336.41 1092.39 L 1335.79 1093.39 C 1326.25 1093.71 1308.3 1085.48 1297.63 1082.51 C 1303.04 1086.12 1311.57 1090.75 1312.78 1096.48 C 1313.09 1097.91 1315.52 1100.46 1316.52 1101.55 C 1313.31 1101.67 1315.8 1102 1313.02 1100.42 C 1302.98 1094.72 1294.21 1095.53 1282.69 1090.43 C 1284.99 1093.49 1288.36 1097.59 1287.36 1101.64 C 1283.18 1102.92 1261.19 1091.32 1255.83 1088.56 C 1258.81 1092.11 1262.78 1095.91 1262.5 1100.64 C 1258.21 1103.54 1246.11 1096.09 1240.8 1094.46 L 1240.03 1094.13 L 1240.8 1094.46 C 1243.14 1097.2 1246.19 1101.53 1245.84 1105.24 L 1244.78 1105.69 C 1240.9 1104.59 1220.6 1095.36 1215.88 1093.26 L 1221.51 1105.74 C 1210.82 1101.14 1200.17 1096.48 1189.55 1091.74 L 1189.04 1091.22 L 1189.55 1091.74 C 1192.19 1095.09 1197.55 1101.16 1196.6 1105.5 C 1189.34 1107.57 1171.22 1092.12 1168.6 1094.58 C 1167.43 1098.89 1168.65 1097.42 1165.47 1099.6 C 1159.04 1100.07 1153.74 1096.55 1147.77 1093.63 C 1151.57 1098.07 1155.42 1101.87 1157.59 1107.21 L 1157.28 1108.98 C 1152.23 1109.3 1134.82 1097.06 1127.65 1093.59 L 1127.07 1093.19 L 1127.65 1093.59 L 1129.43 1097.71 L 1128.77 1098.33 L 1127.69 1097.68 C 1118.79 1092.42 1121.83 1097.27 1113.62 1095.19 C 1115.25 1097.61 1122.37 1102.48 1125.14 1104.83 C 1137.19 1115.05 1146.35 1123.14 1154.77 1136.54 C 1141.57 1129.13 1106.02 1108.97 1093.26 1104.51 L 1091.57 1103.7 L 1091.01 1103.16 L 1091.57 1103.7 L 1093.26 1104.51 C 1097.23 1108.22 1102.99 1112.02 1107.9 1116.69 C 1117.19 1125.54 1124 1133.79 1132.29 1143.53 C 1108.26 1134.54 1086.23 1114.26 1059.12 1101.44 L 1057.06 1099.94 L 1056.01 1099.15 L 1057.06 1099.94 L 1059.12 1101.44 C 1074.32 1116.13 1084.04 1121.02 1096.07 1139.58 C 1086.64 1135.5 1078.23 1132.74 1073.24 1123.67 L 1072.03 1123.64 L 1072.78 1127.7 C 1064.18 1122.39 1056.38 1116.02 1047.48 1111.78 C 1053.29 1119.69 1063.52 1131.75 1063.3 1141.33 L 1062.47 1142.56 C 1058.98 1141.16 1055.84 1134.33 1051.63 1130.63 L 1051.19 1130.01 L 1051.63 1130.63 C 1054.23 1139.68 1065.77 1155.12 1059.54 1164.46 C 1057.07 1164.06 1055.99 1163.18 1054.62 1160.95 C 1041.84 1140.17 1031.18 1119.65 1016.07 1100.31 C 1006.1 1109.02 993.032 1124.64 982.522 1131.52 C 977.725 1120.45 997.051 1096.53 1003.64 1088.8 C 984.886 1101.13 970.692 1119.31 954.407 1135.34 L 953.161 1135.29 C 948.863 1127.56 961.181 1108.17 965.308 1101.65 L 966 1101 L 966.995 1100.01 L 966 1101 L 965.308 1101.65 L 964.568 1102.18 C 954.005 1109.89 931.752 1131.96 925.411 1135.85 C 919.44 1129 932.515 1109.77 937.342 1103.67 L 937.995 1103.22 L 937.342 1103.67 C 927.775 1108.22 903.3 1131.92 893.932 1132.26 L 893.072 1130.66 C 896.221 1118.98 906.058 1109.87 914.373 1101.74 L 914.98 1101.23 L 914.373 1101.74 C 891.002 1111.18 882.398 1120.68 863.684 1131.73 C 870.399 1111.95 871.481 1115.93 882.48 1102.72 L 882.995 1102.25 L 882.48 1102.72 C 871.308 1104.89 843.271 1125.74 830.335 1132.51 C 837.872 1117.88 843.775 1113.26 854.861 1102.08 C 837.93 1109.83 821.042 1119.2 804.67 1126.44 C 813.023 1112.12 816.886 1108.03 830.356 1098.38 C 814.871 1104.59 800.617 1113.32 786.634 1122.3 C 790.852 1108.29 794.323 1106.18 805.852 1097.13 C 784.51 1105.12 779.534 1107.81 760.811 1120.51 C 771.075 1107.43 770.234 1105.47 784.274 1096.27 C 765.99 1102.01 753.854 1106.86 739.122 1118.71 C 745.52 1097.95 758.459 1093.87 776.682 1086.48 C 756.085 1090.53 744.93 1093.28 731.217 1109.81 C 732.374 1103.47 733.245 1099.21 734.99 1093 L 719.474 1106.29 C 722.579 1101.53 739.252 1082.38 739.518 1081.66 C 735.001 1083.01 727.446 1095.35 720.464 1097.56 L 719.009 1096.45 C 718.078 1092.42 719.094 1090.55 720.31 1086.4 L 721.246 1085.85 L 721.831 1085.01 L 721.246 1085.85 L 720.31 1086.4 C 717.912 1088.88 717.062 1091.91 714.566 1092.43 C 714.798 1089.31 715.705 1081.36 713.697 1079.36 C 711.475 1081.52 710.149 1083.26 707.219 1084.17 C 702.689 1080.44 706.296 1079.43 702.495 1075.25 L 700.07 1076.68 L 698.801 1076.22 C 694.508 1061.26 696.014 1047.72 700.015 1032.91 C 706.489 1008.96 724.131 993.207 739.673 975.086 C 724.618 982.036 710.216 994.354 701.114 1008.05 C 644.356 1092.08 730.21 1165.69 806.212 1189.85 C 878.915 1212.96 961.105 1219.55 1026.31 1262.94 C 1038.43 1252.93 1056.53 1244.98 1071.06 1238.89 C 1147.12 1206.98 1229.55 1209.45 1300.77 1163.88 C 1316.24 1154.65 1329.44 1144.92 1342.32 1132.3 C 1391.76 1083.88 1374.19 1026.72 1328.93 982.719 C 1325.69 984.437 1322.15 986.556 1318.93 988.389 C 1334.24 1003.81 1340.95 1015.8 1348.78 1036.2 C 1351.74 1043.92 1355.26 1053.01 1359.42 1060.05 C 1351.25 1057.38 1336.8 1054.07 1328.19 1051.8 C 1333.4 1057.1 1348.06 1070.04 1347.75 1076.79 C 1342.96 1080.77 1318.7 1076.73 1312.38 1074.71 L 1311.49 1074.24 L 1309.83 1073.42 L 1307 1072 L 1305.02 1071.01 z M 1207.24 1231.01 L 1207.79 1231.55 L 1207.92 1232.37 C 1209.05 1238.99 1220.82 1279.53 1219.65 1281.73 C 1210.49 1280.7 1196.58 1243.76 1193.58 1234.7 C 1195.26 1250.89 1197.9 1261.05 1197.14 1277.49 C 1191.83 1265.09 1186.45 1250.42 1180.7 1238.6 L 1185.5 1265.72 C 1175.39 1256.73 1173.53 1251.89 1170.05 1238.85 C 1169.11 1240.09 1171.16 1256.69 1171.02 1259.88 C 1209.26 1305.72 1264.88 1317.64 1321.31 1322.84 C 1387.21 1328.91 1449.63 1313.58 1515.25 1307.51 C 1474.93 1289.47 1437 1266.03 1396.39 1248.42 C 1390.24 1245.76 1383.74 1242.78 1377.74 1239.85 C 1388.89 1255.5 1397.08 1266.85 1409.42 1281.39 C 1414.95 1287.9 1432.71 1307.82 1436.38 1313.5 C 1401.19 1286.55 1383.8 1272.61 1361.73 1233.4 C 1338.23 1223.38 1321.41 1216.68 1295.66 1212.13 C 1311.23 1244.58 1325.55 1277.45 1350.28 1304.23 C 1353.32 1307.52 1356.76 1310.65 1359.66 1313.98 C 1321.35 1291.07 1302.6 1261.35 1285.3 1221.1 C 1283.57 1217.08 1279.71 1209.78 1274.64 1211.52 C 1250.98 1219.68 1275 1264.09 1280.71 1275.72 C 1268.59 1264.8 1268.89 1263.36 1260.73 1250.8 C 1253.77 1240.09 1251.2 1216.41 1245.64 1212.78 C 1241.32 1213.37 1242.84 1212.41 1240.14 1214.71 C 1239.34 1220.45 1246.86 1242.81 1249.25 1249.2 C 1257.36 1270.91 1271.93 1283.68 1291.03 1295.55 C 1258.48 1282.9 1249.79 1276.16 1234.15 1242.32 C 1231.94 1237.53 1226.99 1219.96 1223.98 1218.23 C 1222.44 1221.67 1236.66 1279.19 1239.23 1285.41 C 1218.55 1263.01 1220.45 1250.25 1207.79 1231.55 L 1207.24 1231.01 z M 799.577 1283.37 C 809.684 1263.56 824.688 1242.56 816.75 1219.95 C 815.778 1217.19 815.698 1215.54 813.394 1213.75 C 810.947 1216.81 810.67 1229.38 809.783 1235.11 C 806.604 1255.64 787.11 1286.68 769.546 1297.45 L 769.963 1296.62 C 778.475 1279.99 814.267 1229.55 786.41 1211.61 C 784.529 1210.4 780.457 1208.78 778.292 1207.83 C 759.123 1257.37 756.171 1275.84 706.861 1300.3 C 740.893 1272.95 750.43 1246.15 762.018 1204.17 C 736.766 1213.22 711.996 1223.57 687.807 1235.16 C 681.739 1260.31 654.619 1298.62 630.548 1309.36 C 634.086 1303.08 646.344 1288.41 651.373 1281.86 C 662.037 1268.2 671.656 1253.75 680.148 1238.64 C 652.758 1250.08 619.163 1270.66 591.736 1283.8 C 580.878 1289 547.663 1303.84 539.895 1309.06 C 633.016 1322.5 740.46 1337.99 829.605 1299.61 C 849.602 1291 877.001 1274.96 884.536 1253.25 C 885.667 1249.99 887.85 1242.76 886.342 1239.61 C 880.965 1245.85 876.853 1260.6 871.259 1265.65 C 869.318 1263.43 873.251 1234.76 872.933 1225.7 C 867.181 1248.82 864.246 1256.59 849.567 1275.81 C 850.327 1266.07 857.775 1233.09 853.52 1226.78 C 848.286 1232 852.966 1255.44 829.581 1273.42 C 832.294 1257.71 839.396 1242.58 836.76 1226.67 L 835.687 1225.92 C 829.495 1248.34 818.497 1268.99 799.577 1283.37 z M 1674.9 1492.41 C 1640.08 1482.65 1628.73 1476.88 1590.35 1472.05 C 1586.37 1476.41 1582.21 1480.84 1578.39 1485.31 C 1591.05 1495.39 1609.41 1510.66 1622.44 1519.28 C 1660.51 1521.03 1704.01 1526.11 1738.64 1542.94 C 1701.98 1537.05 1678.97 1532.82 1641.65 1532.93 C 1687.95 1567.96 1732.75 1584.05 1781.7 1610.38 C 1753.74 1622.4 1713.57 1632.95 1683.52 1643.43 C 1689.61 1646.99 1694.97 1649.88 1700.41 1654.4 C 1738.76 1659.08 1783.18 1666.93 1820.51 1677.4 C 1790.73 1678.32 1755.47 1671.26 1725.78 1670.64 C 1748.95 1691.02 1775.08 1710.5 1798.35 1731.31 C 1810.01 1741.75 1824.02 1750.93 1835 1762.62 C 1828.07 1758.66 1821.05 1754.21 1814.58 1749.53 C 1783.75 1727.18 1748.3 1705.6 1719.26 1681.21 C 1729.26 1707.93 1735.4 1722.76 1740.58 1751.38 C 1725.12 1728.14 1711.9 1693.43 1698.75 1668.6 C 1687.75 1662.59 1676.8 1656.49 1665.91 1650.3 C 1658.21 1652.28 1652.23 1653.82 1644.8 1656.54 C 1651.77 1668.46 1673.52 1705.11 1675.24 1717.43 C 1673.06 1715.3 1666.72 1706.67 1664.37 1703.64 C 1653.31 1689.34 1642.53 1674.81 1632.06 1660.07 C 1610.22 1667.01 1588.75 1672.28 1566.89 1678.57 C 1607.27 1701.64 1656.31 1729.29 1700.1 1745.28 C 1757.57 1766.26 1819.17 1779.34 1877.93 1797.11 C 1874.7 1784.03 1868.95 1768.34 1864.97 1755.14 C 1853.49 1712.8 1835.06 1671.34 1819.66 1630.99 C 1788.81 1550.17 1739.38 1488.99 1660.52 1451.04 C 1647.5 1444.77 1633.19 1439.18 1619.44 1433.58 C 1612.04 1442.51 1604.71 1451.5 1597.45 1460.55 C 1623.07 1466.59 1654.07 1475.56 1674.9 1492.41 z M 898.883 19.4131 C 858.519 23.0958 812.262 34.4734 784.106 65.6944 C 817.909 54.5288 845.146 43.093 880.766 37.1589 C 907.579 33.5862 926.806 33.5602 954.027 37.5153 C 972.108 40.1423 990.396 43.8523 1008.6 43.9875 C 974.796 23.608 938.403 15.6072 898.883 19.4131 z M 1118.88 19.4162 C 1090.16 21.8938 1061.78 26.7472 1038.48 45.0769 C 1101.19 39.8131 1116.59 25.5399 1186.64 41.1559 C 1210.34 46.985 1235.24 56.2009 1258.14 61.2566 C 1234.04 33.4364 1182.98 21.7821 1147.85 19.3982 C 1138.2 18.7361 1128.53 18.7421 1118.88 19.4162 z M 1345.77 50.3663 C 1323.39 53.4044 1311.15 58.7151 1290.92 69.171 C 1319.03 73.4388 1318.23 66.0413 1342.03 64.6578 C 1391.96 61.7559 1436.59 89.7346 1466.74 127.265 C 1477.23 137.276 1489.04 146.048 1502.36 151.857 C 1493.83 126.186 1475.12 106.556 1453.65 90.7921 C 1425.38 70.026 1382.36 45.6405 1345.77 50.3663 z M 678.551 51.3719 C 647.093 54.9124 626.952 65.0521 601.582 83.6947 C 576.02 102.478 553.336 122.644 546.442 154.916 C 563.933 140.828 574.311 131.132 589.897 114.481 C 617.116 86.9482 647.47 65.8147 687.87 65.2262 C 705.906 64.9635 717.728 70.1001 734.872 71.3774 C 737.838 71.5983 748.493 69.5363 751.74 68.8863 C 729.853 55.9199 704.51 46.971 678.551 51.3719 z M 993.776 66.5 C 978.133 66.9705 952.75 64.9138 941.831 77.2353 C 932.596 87.6564 930.578 103.342 943.006 112.426 C 957.907 123.317 978.535 120.933 996.273 120.968 L 1056.5 120.924 C 1073 121.097 1095.32 124.067 1107.21 112.067 C 1112.25 107.053 1115 100.19 1114.83 93.0866 C 1114.68 86.1484 1111.68 79.5773 1106.55 74.9041 C 1095.53 64.9667 1074.01 66.9042 1059.77 66.3849 C 1037.9 65.5868 1015.65 65.6311 993.776 66.5 z M 1207.85 77.2565 C 1199.32 78.8762 1190.71 81.619 1185.6 89.2441 C 1181.85 94.8581 1181.14 102.457 1182.69 108.925 C 1184.27 115.557 1188.32 121.369 1194.3 124.735 C 1210.18 133.676 1308.41 147.404 1327.76 147.094 C 1335.62 145.19 1343.04 142.601 1347.44 135.248 C 1350.93 129.424 1352.08 122.323 1350.18 115.77 C 1348.11 108.66 1342.56 102.569 1335.94 99.3549 C 1315.72 89.5286 1232.17 78.0719 1207.85 77.2565 z M 834.485 79.4025 C 806.058 82.1039 777.784 86.6244 749.645 89.8351 C 729.666 92.1146 696.018 96.5556 698.375 123.622 C 700.15 144.012 715.393 147.702 732.236 146.908 C 753.145 143.957 774.088 141.247 795.06 138.779 C 816.967 136.093 873.479 135.88 867.884 99.0329 C 865.236 81.5883 850.124 78.2267 834.485 79.4025 z M 1427.53 123.076 C 1392.09 136.619 1409.44 166.64 1430.31 183.159 C 1454.63 202.405 1498.74 251.613 1530.73 249.262 C 1538.64 246.446 1544.41 243.449 1548.77 235.676 C 1550.41 233.333 1550.99 224.946 1549.3 222.82 C 1521.16 187.456 1482.56 160.381 1449.53 129.688 C 1443.37 123.958 1435.49 122.797 1427.53 123.076 z M 608.285 125.161 C 592.58 132.655 512.514 202.123 497.332 221.103 C 495.506 223.385 496.733 230.771 499.037 234.312 C 504.346 242.469 512.207 247.634 521.895 249.684 C 524.885 250.317 528.711 250.367 531.742 250.059 C 538.651 247.949 544.347 245.015 550.387 241.062 C 566.062 230.805 630.195 179.382 637.434 166.149 C 641.342 159.004 644.222 150.309 641.565 142.233 C 639.471 135.869 633.921 130.443 627.953 127.599 C 621.778 124.658 614.984 124.176 608.285 125.161 z M 1005.47 140.29 C 965.482 147.593 924.711 156.008 883.943 156.664 C 856.976 157.098 835.337 153.533 807.699 155.648 C 811.564 157.548 815.368 159.495 819.344 161.151 C 867.593 176.406 942.9 174.113 989.973 152.802 C 993.733 151.1 1005.02 144.029 1006.56 140.511 L 1005.47 140.29 z M 1024.55 139.741 C 1020.84 145.009 1014.51 154.094 1009.7 158.055 C 973.877 187.571 815.675 198.635 790.475 157.292 C 757.018 199.646 697.837 225.723 645.112 232.328 C 625.286 234.812 611.278 233.561 591.685 230.91 C 583.26 236.909 576.942 241.649 568.903 248.305 C 565.399 276.569 561.616 301.123 552.009 328.265 C 548.054 339.442 541.516 351.251 537.906 361.55 C 545.276 370.196 555.062 381.182 561.392 390.201 C 561.277 384.809 560.428 378.37 563.792 374.163 C 567.365 372.769 576.332 372.216 580.096 372.557 C 639.799 377.954 728.831 336.566 783.844 351.978 C 827.683 305.135 867.124 286.585 925.782 261.932 C 959.657 247.696 988.435 235.625 1022.56 255.691 L 1024.38 256.53 C 1040.4 249.032 1052.83 243.612 1070.93 245.508 C 1102.35 248.796 1129.86 262.796 1158.07 275.448 C 1201.38 294.876 1236.97 315.942 1268.3 352.173 C 1334.69 341.239 1379.39 369.934 1442.78 375.735 C 1449.59 376.359 1485.75 374.693 1488.66 376.103 C 1491.02 379.208 1491.15 380.882 1492.1 384.626 C 1494.27 383.432 1507.92 368.338 1511.05 365.408 C 1491.27 327.272 1483.73 301.788 1486.65 257.962 C 1476.89 249.086 1467.06 240.283 1457.16 231.555 C 1416.28 243.332 1387.51 230.023 1349.32 215.884 C 1314.8 203.108 1278.44 190.86 1256.99 158.891 C 1220.06 188.931 1161.98 185.796 1117.04 181.619 C 1094.13 179.489 1048.4 171.787 1033.36 152.63 C 1030.5 148.983 1026.29 141.683 1024.55 139.741 z M 1040.78 140.949 C 1075.12 174.342 1186.06 177.631 1229.82 160.034 L 1239.81 155.075 C 1204.07 154.888 1165.14 157.268 1130.41 153.71 C 1112.36 151.711 1094.39 149.117 1076.52 145.933 C 1068.01 144.502 1048.73 140.951 1040.78 140.949 z M 1275.55 159.787 C 1292.21 177.53 1319.42 189.967 1342.18 197.964 C 1374.63 209.364 1407.01 226.554 1442.06 219.788 C 1440.24 215.98 1288.82 160.999 1275.55 159.787 z M 765.598 161.141 C 759.699 162.7 740.672 166.214 736.853 168.344 C 699.662 189.091 663.293 205.618 618.874 207.048 C 614.302 210.661 610.411 213.383 606.683 217.886 L 607.196 218.758 L 607.914 218.883 C 665.614 221.142 721.953 203.734 764.801 164.088 C 765.443 163.492 766.081 162.892 766.714 162.286 L 766.388 161.213 L 765.598 161.141 z M 524.571 169.989 C 490.242 180.272 452.594 210.312 434.545 242.009 C 426.294 256.5 424.314 276.623 426.408 293.45 C 426.727 296.016 429.318 297.741 431.447 299.244 C 439.816 298.034 447.422 283.941 449.485 276.178 C 451.284 267.441 450.937 258.957 455.266 250.871 C 459.724 242.544 466.696 236.264 472.216 228.93 C 488.138 207.78 508.972 190.333 526.378 171.107 L 526.118 170.096 L 524.571 169.989 z M 1525.52 174.776 C 1538.45 188.239 1554.82 204.043 1561.66 221.594 C 1587.68 237.981 1603.89 258.547 1595.32 291.147 L 1600.82 305.399 L 1613.01 299.92 C 1617.26 296.605 1616.92 290.113 1617.95 284.947 C 1622.59 261.707 1616.82 247.705 1603.43 229.22 C 1591.43 212.656 1544.91 175.52 1525.52 174.776 z M 551.997 262.642 C 542.28 289.753 528.297 315.089 513.093 339.451 L 519.554 344.166 C 522.297 346.523 525.166 348.913 527.822 351.351 C 534.98 335.858 556.137 278.007 551.997 262.642 z M 1502.2 279.837 C 1504.95 313.978 1509.05 321.93 1525.61 351.832 L 1531.31 347.056 C 1534.13 344.403 1534.93 344.598 1535.54 341.521 C 1531.13 332.764 1506.67 284.117 1502.2 279.837 z M 1820.91 499.049 C 1813.63 511.742 1806.67 524.619 1800.04 537.668 C 1813.08 565.311 1855.53 625.31 1885.65 636.727 C 1891.17 638.819 1896.51 638.925 1902.33 638.145 C 1909.74 635.433 1916.68 631.784 1920.13 624.238 C 1922.11 619.913 1922.6 614.293 1920.93 609.794 C 1915.43 594.989 1857.31 529.488 1843.04 515.791 C 1836.38 509.395 1829.17 503.309 1820.91 499.049 z M 1888.29 542.751 C 1918.28 583.437 1962.61 606.475 1976.44 657.156 C 1979.62 668.846 1981.65 682.602 1979.6 694.609 C 1975.69 717.465 1972 716.752 1978.03 739.795 C 1979.75 737.052 1981.45 734.299 1983.14 731.536 C 1986.36 724.419 1989.19 717.699 1991.07 710.166 C 2008.52 639.931 1952.5 572.024 1891.98 543.903 C 1890.84 543.373 1889.5 543.059 1888.29 542.751 z M 154.833 544.834 C 109.493 569.46 72.652 603.503 57.0364 654.332 C 47.2477 686.194 49.2228 723.004 67.1478 751.72 L 68.9608 754.21 L 70.2413 753.82 C 72.6489 747.12 73.1591 738.683 74.4388 731.513 C 62.033 701.642 62.9992 678.438 74.623 647.754 C 88.9062 610.049 119.033 590.595 144.33 561.511 C 147.441 557.934 154.712 549.936 156.515 545.915 C 155.467 544.78 156.071 545.061 154.833 544.834 z M 279.251 557.759 C 255.343 571.684 251.889 574.499 236.627 598.712 C 241.732 645.936 225.745 674.815 206.862 717.108 C 192.44 749.412 185.091 769.849 153.729 788.385 C 161.056 799.127 168.462 810.071 172.778 822.615 C 185.42 859.362 181.527 910.281 174.922 948.484 C 168.266 986.986 158.245 1000.65 127.927 1021.65 C 166.232 1052.43 171.741 1078.55 176.477 1125.95 C 180.542 1165.03 183.989 1207.79 160.899 1242.05 C 160.001 1243.68 150.934 1257.47 151.313 1258.47 C 153.869 1265.22 170.847 1273.87 174.652 1279.03 C 195.359 1307.11 217.026 1348.42 228.076 1381.2 C 231.72 1392.03 234.216 1403.21 235.523 1414.55 C 237.305 1430.25 236.435 1446.14 232.95 1461.55 C 257.254 1464.6 273.461 1474.47 293.913 1487.62 C 312.262 1472.17 329.866 1458.37 349.883 1445.05 C 369.966 1431.7 391.032 1419.72 411.193 1406.71 C 400.861 1389.64 336.72 1286.38 338.312 1272.94 C 342.414 1271.05 372.754 1288.43 378.783 1291.42 C 401.088 1302.55 423.915 1312.59 447.184 1321.52 C 578.463 1372.71 696.292 1390.26 836.247 1398.16 C 885.683 1401.31 935.217 1402.67 984.751 1402.24 C 995.16 1360.26 988.77 1315.87 966.94 1278.53 C 953.902 1256.48 941.93 1242.5 916.915 1235.34 C 892.874 1281.95 860.578 1308.16 810.339 1323.36 C 727.49 1348.42 639.343 1337.52 554.917 1327.9 C 544.988 1326.77 508.51 1324.96 503.203 1319.5 C 505.821 1314.24 527.533 1296.5 535.208 1284.39 C 548.253 1263.81 554.667 1247.96 564.907 1226.3 C 581.402 1190.76 604.52 1158.7 633.023 1131.82 C 545.089 1154.47 452.37 1108.61 405.027 1033.89 C 395.515 1018.88 385.293 1003.81 372.157 991.866 C 351.818 972.557 331.4 983.431 322.651 975.805 C 323.365 968.369 333.008 951.669 336.006 943.743 C 340.717 931.288 345.842 914.212 347.693 901.038 C 360.366 810.835 322.572 722.914 405.772 654.658 C 409.965 651.217 413.988 648.358 418.444 645.224 C 381.721 629.556 354.315 613.558 322.055 589.832 C 315.295 584.86 284.088 558.899 279.251 557.759 z M 1759.29 561.731 C 1726.95 595.174 1682.78 627.13 1639.88 644.956 C 1643.34 647.649 1646.87 650.346 1650.25 653.14 C 1757.51 741.741 1657.63 862.026 1732.25 972.4 C 1688.32 977.016 1663.87 1007.69 1640.3 1041.75 C 1602.87 1095.84 1552.05 1129.12 1485.69 1136.43 C 1465.04 1138.64 1444.17 1138 1423.69 1134.52 C 1488.27 1190.1 1502.03 1259.08 1554.31 1320.06 C 1521.87 1321.53 1486.24 1327.42 1453.21 1331.37 C 1359.98 1342.54 1247.61 1349.7 1171.84 1283.11 C 1155.49 1268.75 1146.86 1253.23 1135.77 1235.35 C 1114.89 1238.83 1104.84 1246.6 1092.61 1263.58 C 1066.09 1300.4 1055.83 1350.28 1063.53 1394.79 C 1063.96 1397.3 1064.47 1399.79 1065.07 1402.27 C 1118.19 1404.44 1186.03 1400.03 1239.24 1395.69 C 1374.94 1382.54 1508.82 1358.07 1635.76 1306.8 C 1659.56 1297.18 1695.45 1281.45 1717.45 1268.05 C 1711.09 1278.9 1705.86 1290.3 1700.42 1301.64 C 1681.86 1340.38 1658.99 1380.32 1634.13 1415.35 C 1677.42 1430.82 1724.88 1458.3 1757.21 1490.7 C 1774.18 1478.4 1791.38 1465.65 1809.3 1454.84 C 1803.81 1428.12 1811 1402.2 1821.12 1377.52 C 1833.18 1348.09 1845.32 1319.07 1862.07 1292.03 C 1871.9 1276.18 1880.58 1269.77 1895.65 1259.98 C 1888.73 1249.29 1878.33 1236.31 1874.08 1224.37 C 1866.11 1202.01 1866.78 1175.93 1867.94 1152 C 1869.79 1113.68 1871.7 1066.76 1899.69 1037.3 C 1905 1031.71 1911.47 1027.22 1916.6 1021.93 C 1891.65 1006.34 1879.75 980.553 1873.93 952.146 C 1864.97 908.371 1858.83 852.974 1879.15 811.913 C 1886.24 797.588 1903.67 793.673 1883.1 779.167 C 1875.99 774.154 1868.13 764.836 1862.78 757.914 C 1840.04 720.728 1822.69 678.897 1813.93 636.097 C 1811.3 623.232 1810.96 611.417 1808.77 599.79 C 1801.9 591.485 1794.68 583.041 1788.35 574.351 C 1776.72 571.134 1768.17 564.46 1759.29 561.731 z M 775.269 584.5 L 776.49 584.5 L 775.269 584.5 z M 766.272 589.5 L 767.49 589.5 L 766.272 589.5 z M 768.243 590.5 L 769.398 590.5 L 768.243 590.5 z M 751.272 593.5 L 752.49 593.5 L 751.272 593.5 z M 753.264 594.5 L 754.49 594.5 L 753.264 594.5 z M 755.265 595.5 L 756.49 595.5 L 755.265 595.5 z M 757.264 596.5 L 758.49 596.5 L 757.264 596.5 z M 759.267 597.5 L 760.49 597.5 L 759.267 597.5 z M 1827.18 606.739 C 1829.39 656.761 1853.79 718.635 1884.34 759.745 C 1884.95 760.574 1886.21 761.208 1887.28 761.238 C 1886.83 754.174 1886.59 749.445 1884.14 742.647 C 1871.32 707.192 1848.02 673.008 1848.36 634.099 C 1846.06 630.798 1829.49 608.782 1827.18 606.739 z M 1282.6 685.173 L 1268.38 688.597 C 1264.89 712.689 1263.55 736.077 1259.49 760.364 C 1250.25 815.676 1220.68 855.21 1176.3 888.379 C 1157.07 902.748 1134.16 918.063 1112.81 929.178 C 1111.15 930.042 1111.82 929.401 1110.89 930.698 L 1114.65 930.689 C 1177.41 910.821 1221.46 877.679 1253.79 818.823 C 1273.02 783.81 1275.85 749.193 1281.87 710.832 C 1283.16 702.598 1285.34 694.089 1286.91 685.777 L 1286 684.668 L 1282.6 685.173 z M 1930.09 697.314 C 1920.36 698.613 1911.31 700.566 1904.38 708.701 C 1895.86 718.682 1901.14 748.63 1903.94 762.653 C 1909.32 789.648 1912.75 839.476 1933.64 858.572 C 1937.05 861.685 1944.49 862.557 1948.84 862.75 C 1965.26 861.053 1973.51 858.375 1979.79 841.876 C 1978.41 825.33 1972.48 805.864 1969.39 789.048 C 1964.77 763.949 1960.88 738.245 1954.43 713.622 C 1951.07 701.672 1941.57 697.379 1930.09 697.314 z M 113.442 698.32 C 106.401 699.585 100.239 701.649 95.982 707.771 C 89.8272 716.621 73.8753 834.433 74.381 850.124 C 82.5908 864.595 92.3901 867.68 108.204 862.398 C 117.072 857.62 123.729 853.838 126.237 843.498 C 130.201 827.15 133.765 810.377 137.151 793.845 C 140.853 774.527 146.436 755.193 148.376 735.604 C 149.015 729.156 148.151 719.352 145.031 713.746 C 138.096 701.283 126.622 698.826 113.442 698.32 z M 650.888 740.391 C 623.52 743.329 589.687 755.3 571.889 777.397 C 559.797 792.331 554.19 811.486 556.319 830.583 C 564.02 896.504 642.835 931.072 698.668 946.43 C 715.669 951.837 735.944 956.418 751.32 965.502 C 782.905 984.159 801.581 1014.04 838.417 1025.27 C 882.251 1038.64 953.777 1046.8 986.144 1005.51 C 995.569 993.49 996.673 983.018 995.981 968.774 C 991.076 983.877 986.113 994.353 970.813 1002.34 C 952.089 1012.11 921.063 1009.14 901.739 1002.42 C 863.97 989.292 839.217 955.121 805.119 933.775 C 776.147 915.638 748.585 902.72 715.252 894.215 C 701.597 890.73 686.705 889.142 673.628 885.574 C 679.109 885.213 715.972 885.154 717.182 884.707 C 714.249 879.095 706.028 879.058 700.235 878.264 C 686.203 876.642 667.804 876.123 654.916 873.923 C 673.385 867 691.343 869.025 710.989 869.439 L 711.315 868.086 C 702.03 860.744 648.32 856.25 633.832 853.266 C 662.324 848.333 678.033 846.711 706.904 852.455 C 681.104 836.921 640.466 834.916 611.37 838.607 C 638.625 824.417 666.592 827.314 696.335 831.985 C 669.756 816.676 638.267 816.896 608.608 819.411 C 632.971 806.172 661.004 806.999 687.404 812.898 C 667.483 802.307 634.607 799.575 612.317 800.194 C 640.054 790.024 649.416 789.895 679.364 794.908 C 649.798 781.392 642.101 786.217 613.096 787.291 C 637.117 777.097 648.751 774.799 674.294 777.472 C 656.036 769.631 641.773 771.186 622.526 774.44 C 646.723 764.937 654.241 764.714 679.891 768.731 C 662.514 758.609 637.179 761.47 618.026 764.773 C 651.761 748.288 691.19 752.548 725.437 764.328 C 735.956 767.858 746.385 771.651 756.714 775.703 C 727.357 750.027 693.59 737.572 654.691 740.113 C 653.423 740.196 652.155 740.289 650.888 740.391 z M 62.7436 796.052 C 29.4652 834.417 12.4824 880.028 15.5144 931.437 C 16.7165 951.819 24.4784 977.154 38.1452 992.776 L 45.587 1000.64 C 46.7779 976.575 41.1045 974.053 35.3411 951.865 C 28.061 923.838 30.3139 887.434 41.7695 860.808 C 47.0897 848.437 54.1505 838.549 58.7619 826.358 C 60.4877 821.795 65.0744 798.64 62.7436 796.052 z M 1990.47 800.459 C 1993.47 826.128 2005.75 849.476 2011.45 874.426 C 2014.61 888.286 2016.68 902.831 2016.57 917.075 C 2016.34 930.441 2014.37 943.721 2010.7 956.576 C 2004.69 977.066 2000.18 976.775 2000.86 998.766 L 2009.91 991.578 C 2046.47 947.436 2035.59 834.471 1990.47 800.459 z M 151.123 814.765 C 147.024 848.349 155.65 888.228 149.425 924.826 C 145.053 950.528 131.121 976.624 132.419 999.489 L 139.677 992.667 C 152.162 976.33 159.284 955.002 161.664 934.715 C 165.247 904.18 171.044 839.491 151.123 814.765 z M 1896.21 814.492 C 1886.92 833.369 1882.07 853.102 1881.75 874.15 C 1881.17 913.432 1885.35 963.237 1909.66 995.408 L 1913.06 998.712 L 1914.48 998.498 C 1920.19 986.294 1910.39 958.3 1906.62 946.394 C 1899.44 923.74 1895.95 900.677 1896 876.931 C 1895.83 861.833 1902.29 826.863 1896.21 814.492 z M 83.8452 935.299 C 72.1184 937.291 63.3053 940.74 62.0517 954.31 C 60.568 970.37 61.4256 986.615 61.1139 1002.72 C 61.3118 1033.95 60.4564 1065.78 64.285 1096.79 C 66.1117 1111.58 80.6475 1118.08 94.1218 1114.02 C 103.106 1110.19 109.173 1105.3 112.767 1095.97 C 115.196 1089.67 116.193 1081.93 116.659 1075.2 C 117.859 1057.86 117.797 959.102 113.111 948.977 C 110.279 942.856 104.319 938.675 98.0222 936.734 C 93.37 935.3 88.6687 935.16 83.8452 935.299 z M 1953.21 936.303 C 1945.9 939.035 1937.67 942.334 1934.17 949.911 C 1931.02 956.746 1929.66 1059.5 1930.23 1074.75 C 1930.51 1082.28 1930.91 1092.36 1933.85 1099.32 C 1936.55 1105.72 1942.54 1110.61 1948.98 1112.88 C 1953.51 1114.48 1958.23 1114.8 1962.98 1114.54 C 1970.85 1112.44 1977.24 1109.35 1981.43 1102.02 C 1983.54 1098.34 1984.08 1094.42 1984.49 1090.26 C 1986.31 1071.62 1988.42 962.199 1983.17 946.945 C 1981.67 942.574 1977.28 939.06 1973.1 937.378 C 1966.91 934.886 1959.69 935.476 1953.21 936.303 z M 133.213 1045.76 C 132.968 1056.87 132.218 1068.91 133.448 1079.92 C 134.123 1085.97 139.514 1093.24 141.06 1099.57 C 147.69 1126.68 150.854 1157.62 149.051 1185.49 C 147.813 1204.61 143.46 1214.66 147.584 1233.75 L 152.769 1225.06 C 169.495 1191.16 162.825 1154.25 160.192 1117.93 C 158.548 1095.25 149.732 1062.42 133.213 1045.76 z M 1912.76 1046.84 C 1906.66 1053.94 1899.5 1063.77 1896.39 1072.61 C 1882.42 1112.32 1873.9 1191.46 1892.86 1228.79 L 1895.85 1232.89 L 1896.87 1232.69 C 1899.09 1216.69 1896.59 1197.82 1896.08 1181.54 C 1895.63 1167.57 1896.26 1152.18 1897.96 1138.27 C 1899.43 1126.41 1901.86 1114.69 1905.21 1103.22 C 1908.2 1092.87 1914.48 1079.58 1914.44 1070.18 C 1914.43 1065.32 1914.81 1050.06 1912.76 1046.84 z M 2001.07 1046.46 C 1999.49 1070.8 2007.87 1088.75 2012.14 1113.09 C 2022.17 1170.36 1995.47 1207.9 1979.98 1259.59 C 1983.53 1255.69 1987.44 1251.56 1990.81 1247.55 C 2023.75 1205.68 2035.96 1162.02 2030.26 1108.9 C 2028.24 1090.15 2017.39 1057.45 2001.07 1046.46 z M 44.7842 1047.88 C 21.3264 1070.5 15.4036 1100.74 15.0378 1132.26 C 14.4875 1179.68 26.2969 1212.96 56.636 1248.97 L 64.9338 1257.35 C 47.0834 1200.58 23.0083 1169.53 35.3837 1103.62 C 37.7014 1091.27 51.1198 1055.98 44.7842 1047.88 z M 756.706 1075.05 C 752.557 1076.17 751.866 1076.13 748.594 1078.7 L 748.215 1080.33 L 748.703 1080.79 C 751.231 1079.58 756.739 1077.59 757.596 1075.63 L 756.706 1075.05 z M 681.094 1122.01 C 648.388 1142.71 607.147 1185.79 588.604 1219.35 C 574.04 1245.71 562.621 1271.53 546.41 1297.68 C 578.06 1283.11 611.225 1263.07 641.874 1246.31 C 648.021 1242.95 673.499 1228.71 678.076 1224.99 C 675.716 1223.28 671.822 1222.93 668.827 1222.39 C 649.133 1219.59 636.924 1218.26 616.944 1217.99 C 647.321 1208.14 665.638 1215.12 695.595 1212.83 C 703.319 1212.24 727.863 1199.61 735.378 1195.18 C 733.847 1195.19 726.646 1195.15 725.662 1194.73 C 708.083 1187.13 697.851 1174.16 677.535 1171.5 C 660.163 1169.21 644.737 1175.71 628.123 1176.65 C 654.758 1160.81 689.171 1153.28 719.121 1163.34 C 708.404 1154.41 701.371 1147.54 692.528 1136.58 C 691.196 1134.92 681.775 1122.59 681.094 1122.01 z M 1371.81 1126.58 C 1367.61 1132.26 1353.64 1147.29 1353.75 1151.92 L 1356.02 1154.57 C 1355.36 1158.54 1354.65 1157.98 1351.93 1161.61 C 1356.3 1162 1366.62 1161.41 1368.84 1161.83 C 1383.38 1164.63 1399.96 1172 1413.56 1177.88 C 1382.71 1177.94 1367.84 1181.62 1338.59 1191.62 C 1331.08 1194.18 1320.48 1196.34 1312.54 1198.87 C 1330.34 1204.75 1344.32 1210.92 1361.54 1218.47 C 1394.21 1204.05 1427.86 1205.39 1460.81 1218.07 C 1461.61 1218.38 1462.42 1218.7 1463.22 1219.02 C 1437.44 1218.57 1409.95 1214.96 1384.87 1220.97 C 1381.36 1222.22 1379.59 1222.03 1378.26 1224.47 C 1423.86 1248.33 1467.85 1273.37 1513.36 1297.13 C 1490.41 1260.33 1466.53 1215.72 1439.81 1181.73 C 1426.75 1165.13 1390.06 1135.09 1371.81 1126.58 z M 91.2586 1187.05 C 81.6317 1191.45 76.99 1194.51 70.7972 1203.64 C 75.1978 1229.58 80.7036 1255.31 85.1355 1281.26 C 88.2264 1299.35 89.7066 1317.67 94.4458 1335.39 C 98.4414 1350.34 111.735 1351.96 125.147 1349.79 C 165.015 1336.04 137.399 1285.55 135.077 1255.34 C 134.458 1247.28 130.059 1236.43 128.843 1228.2 C 122.446 1204.32 121.233 1185.59 91.2586 1187.05 z M 1945.64 1188.24 C 1935.76 1190.02 1929.21 1193.46 1923.44 1201.84 C 1914.11 1215.37 1900.55 1316.67 1904.61 1334.15 C 1905.85 1339.47 1910.05 1343.41 1914.68 1345.99 C 1919.8 1348.85 1924.83 1350.05 1930.54 1351.02 C 1947.11 1348.59 1955.77 1345.52 1956.95 1327.47 C 1959.71 1285.33 1966.09 1243.83 1971.07 1202.06 C 1972.17 1192.82 1952.86 1188.49 1945.64 1188.24 z M 1889.88 1281.89 C 1864.79 1306.87 1810.25 1418.18 1824.98 1450.35 C 1831.71 1441.64 1835.26 1430.4 1837.8 1419.81 C 1846.48 1383.62 1863.07 1350.23 1881.02 1317.87 C 1889.32 1302.91 1890.54 1301.01 1890.97 1283.94 C 1890.74 1283.47 1890.19 1282.21 1889.88 1281.89 z M 156.401 1282.32 C 157.529 1289.17 159.074 1302.27 161.544 1308.32 C 170.638 1330.57 186.527 1351.32 193.614 1374.77 C 201.928 1402.28 199.233 1416 219.708 1439.09 L 220.432 1439.2 C 222.51 1385.43 191.328 1328.97 160.753 1285.78 C 159.791 1284.43 157.89 1283.06 156.401 1282.32 z M 71.3745 1305.72 C 26.3116 1346.74 57.1259 1428.16 92.9616 1463.76 C 106.644 1477.35 124.88 1495.1 143.589 1501.15 C 148.112 1501.84 152.781 1502.62 157.307 1503.19 C 150.171 1494.22 142.601 1484.73 134.864 1476.35 C 127.277 1468.13 116.546 1460.99 109.042 1452.81 C 86.092 1427.79 62.5292 1391.42 67.4817 1355.91 C 70.0716 1337.34 76.236 1326.09 72.4165 1306.83 L 71.3745 1305.72 z M 1976.04 1305.39 C 1971.89 1337.35 1981.17 1343.07 1980.6 1367.67 C 1979.4 1419.61 1919.18 1471.92 1885.11 1507.82 L 1898.25 1502.49 C 1914.59 1494.86 1931.16 1486.45 1944.17 1473.47 C 1981.46 1436.29 2013.87 1375.27 1989.26 1322.83 C 1986.61 1317.2 1981.13 1308.48 1976.04 1305.39 z M 410.982 1340.8 C 428.063 1372.68 451.896 1403.7 470.915 1434.61 C 482.239 1453.02 505.261 1479.77 512.418 1499.37 C 494.259 1526.11 431.225 1568.68 402.833 1585.8 C 391.911 1592.38 376.36 1600.03 364.963 1606.51 C 443.86 1631.67 523.401 1655.45 604.748 1671.36 C 859.003 1721.09 1184.01 1724.09 1438.47 1673.52 C 1506.71 1660.12 1573.83 1641.53 1639.24 1617.92 C 1653.01 1613.32 1664.81 1609.19 1678.26 1603.77 C 1642.44 1582.04 1608.56 1556.64 1575.44 1531.01 C 1562.19 1520.75 1538.59 1503.59 1526.41 1492.51 C 1552.04 1462.48 1577.07 1432.14 1599.82 1399.92 C 1612.31 1382.24 1625.55 1365.63 1635.99 1346.32 C 1594.03 1364.46 1550.43 1377 1506.16 1388.15 C 1276.11 1446.08 975.531 1453.06 740.739 1423.76 C 662.793 1414.03 586.544 1399.32 511.3 1376.62 C 488.362 1369.7 465.235 1362.56 442.961 1353.72 C 432.493 1349.56 421.769 1343.81 410.982 1340.8 z M 1891.31 1405.33 C 1877.27 1406.94 1871.09 1411.78 1862.47 1423.12 C 1846.1 1444.63 1829.78 1466.4 1815.69 1489.49 C 1808.43 1501.34 1802.7 1513.61 1795.92 1525.46 L 1807.02 1541.66 L 1820.38 1535.81 C 1832.94 1529.95 1844.79 1522.68 1855.7 1514.14 C 1874.94 1499.13 1908.67 1462.93 1919.05 1439.58 C 1927.3 1421.02 1913.03 1404.45 1891.31 1405.33 z M 149.34 1411.21 C 136.717 1416.17 120.914 1426.57 129.959 1441.86 C 152.164 1479.38 197.709 1526.37 234.449 1548.19 L 236.915 1548.77 C 241.898 1545.09 249.753 1534.19 253.752 1528.99 C 236.986 1497.91 217.608 1467.5 199.007 1437.47 C 191.926 1426.04 185.773 1416.97 172.163 1413.01 C 164.756 1410.86 156.991 1410.25 149.34 1411.21 z M 424.681 1427.95 C 347.548 1468.89 297.148 1509.96 252.253 1586.27 C 214.282 1650.81 186.8 1723.25 172.126 1796.76 C 194.074 1791.33 215.119 1784.86 236.722 1779.37 C 298.73 1763.62 359.522 1746.93 417.952 1720.29 C 428.853 1715.32 444.678 1708.06 454.553 1701.7 C 461.339 1697.33 473.884 1683.33 480.27 1676.79 C 457.185 1669.98 433.198 1662.52 409.874 1656.9 C 399.375 1688.62 394.016 1704.52 373.862 1731.71 C 378.825 1709.5 391.915 1678.95 398.629 1653.91 C 390.664 1651.2 381.88 1647.98 373.878 1645.62 C 365.88 1653.95 360.967 1658.58 351.742 1665.59 C 341.296 1697.89 329.694 1729.5 305.984 1755.02 C 310.306 1739.6 316.855 1724.99 323.198 1710.31 C 327.429 1699.55 331.475 1689.41 335.061 1678.4 C 305.34 1700.26 276.659 1723.34 245.782 1743.48 C 236.042 1749.83 224.919 1757.83 214.772 1763.25 C 222.724 1755.03 231.89 1747.83 240.84 1740.71 C 269.845 1717.64 297.598 1693.22 326.577 1670.1 C 295.584 1673.43 264.488 1675.74 233.343 1677.02 C 249.284 1669.52 323.609 1656.76 342.551 1655.51 C 348.697 1651.44 354.266 1646.55 359.107 1640.98 C 330.067 1628.98 292.714 1616.88 262.035 1611.16 C 316.285 1596.24 381.87 1557.18 428.314 1525.47 C 389.327 1538.54 344.726 1541.87 303.809 1541.38 C 356.389 1523.08 422.79 1530.05 470.216 1493.8 C 462.342 1485.14 456.907 1476.2 450.519 1466.43 C 432.518 1463.02 416.441 1459.25 400.378 1449.75 L 440.852 1453.29 C 438.621 1448.34 428.415 1432.14 424.681 1427.95 z M 552.773 1695.32 C 547.865 1698.92 543.066 1702.53 538.435 1706.49 C 559.498 1738.16 565.791 1761.01 570.127 1798.37 L 590.859 1816.78 C 648.65 1809.95 721.062 1830.98 766.728 1867.36 C 775.783 1874.58 782.634 1882.51 789.272 1891.95 C 828.929 1863.59 892.011 1860.19 938.61 1868.01 C 960.535 1871.69 988.529 1877.84 1006.01 1892.56 C 1013 1898.45 1018.58 1906.19 1024.1 1913.4 C 1042.93 1884.98 1066.31 1876.83 1099.01 1870.16 C 1134.73 1862.88 1186.69 1861.21 1221.51 1871.97 C 1234.59 1876.02 1246.73 1882.64 1258.42 1889.68 C 1295.06 1843.99 1340.35 1837.38 1392.78 1820.9 C 1414.63 1814.53 1435.78 1809.41 1458.67 1813.15 C 1467.51 1805.67 1476.6 1798.05 1484.14 1789.22 C 1485.17 1755.86 1489.62 1727.68 1502.87 1696.82 C 1253.48 1748.68 997.28 1759.39 744.427 1728.54 C 703.526 1723.6 662.803 1717.28 622.328 1709.6 C 599.238 1705.18 575.971 1698.81 552.773 1695.32 z M 1512.96 1709.51 C 1503.27 1728.72 1498.93 1753.81 1498.87 1775.18 L 1506.82 1764.62 C 1515.61 1751.12 1522.14 1737.53 1527.69 1722.43 C 1521.25 1718.81 1517.03 1715.89 1512.96 1709.51 z M 524.253 1713.64 C 521.817 1714.86 518.882 1715.57 517.705 1718.06 C 520.596 1724.79 524.757 1730.74 527.861 1737.33 C 533.888 1750.14 537.093 1763.95 540.622 1777.57 C 544.183 1780.11 547.71 1782.69 551.42 1785.02 L 553.384 1785.92 C 555.988 1770.34 541.093 1733.89 531.973 1721.09 C 530.038 1718.37 527.594 1714.63 524.253 1713.64 z M 448.928 1740.09 C 440.925 1743.8 433.287 1747.67 425.759 1752.27 C 425.686 1786.18 430.884 1807.81 455.686 1832.6 C 470.781 1847.69 488.964 1860.82 508.238 1870.01 C 514.506 1872.5 520.757 1875.04 527.11 1877.31 C 510.262 1860.81 460.239 1810.3 453.113 1791.29 C 450.189 1783.48 450.077 1773.24 449.985 1765 C 449.933 1760.3 451.495 1743.17 448.928 1740.09 z M 1602.65 1741.9 C 1604.77 1764.8 1601.96 1786.5 1586.91 1804.86 C 1579.45 1813.97 1570.27 1820.58 1560.5 1826.99 C 1557.44 1839.09 1546.19 1845.99 1538.73 1855.53 C 1534.12 1861.44 1530.56 1868.21 1526.91 1874.74 C 1531.32 1873.04 1535.81 1871.47 1540 1869.27 C 1568.65 1853.01 1609.43 1822.92 1618.42 1789.3 C 1622.22 1775.08 1621.02 1760.38 1616.95 1746.37 L 1602.65 1741.9 z M 522.648 1796.23 C 513.249 1798.91 502.468 1803.65 497.752 1812.83 C 496.078 1816.09 495.277 1820.63 496.674 1824.12 C 500.684 1834.16 590.808 1916.29 604.696 1921.78 C 608.361 1923.23 612.176 1923.44 616.069 1923.56 C 623.986 1922.56 632.691 1920.07 638.05 1913.67 C 642.082 1908.86 642.765 1902.75 642.054 1896.7 C 641.128 1888.82 637.179 1881.71 632.326 1875.58 C 622.233 1862.82 607.805 1852.23 595.474 1841.67 C 581.813 1829.97 568.227 1817.59 553.813 1806.85 C 543.542 1799.19 535.776 1795.54 522.648 1796.23 z M 1519.24 1797.1 C 1503.2 1803.86 1412.51 1874.1 1406.76 1888.43 C 1404.16 1894.95 1404.36 1902.25 1407.31 1908.62 C 1410.22 1914.9 1415.38 1919.88 1421.98 1922.06 C 1426.22 1923.46 1430.45 1923.49 1434.87 1923.43 C 1447 1919.62 1459.91 1909.95 1469.93 1902.23 C 1484.04 1891.35 1539.53 1840.17 1546.04 1826.54 C 1548.35 1821.72 1548.38 1816.38 1546.29 1811.48 C 1543.75 1805.5 1539.56 1801.59 1533.49 1799.36 C 1528.93 1797.7 1524.09 1796.93 1519.24 1797.1 z M 1434.53 1826.36 C 1408.87 1829.32 1335.11 1851.41 1312.76 1862.97 C 1299.98 1869.59 1288.97 1878.53 1278.19 1887.98 L 1290.8 1885.69 C 1307.28 1882.25 1321.37 1874.07 1336.82 1867.72 C 1365.68 1855.85 1397.5 1845.58 1428.48 1841.76 C 1433.65 1835.92 1438.97 1830.69 1445.06 1825.8 C 1441.62 1825.98 1437.93 1825.89 1434.53 1826.36 z M 605.249 1829.42 C 609.075 1833.97 613.289 1837.93 617.634 1841.96 C 644.962 1845.48 671.767 1852.28 697.474 1862.2 C 720.232 1871.16 743.503 1883.17 767.482 1888.16 C 734.45 1852.55 666.367 1831.61 619.566 1829.87 L 605.249 1829.42 z M 1148.01 1878.44 C 1118.38 1879.88 1065.48 1885.2 1044.39 1908.65 C 1043.44 1909.71 1043.79 1909.14 1043.52 1910.82 C 1049.99 1910.62 1057.28 1908 1063.75 1906.73 C 1081.77 1903.21 1099.88 1899.46 1118.09 1897.15 C 1141.23 1893.65 1164.65 1892.3 1188.04 1893.12 C 1204.38 1893.65 1220.77 1895.26 1237.11 1895.15 C 1210.84 1879.54 1178.02 1876.58 1148.01 1878.44 z M 876.703 1879.4 C 852.784 1882.03 828.789 1887.06 806.665 1896.74 C 815.783 1897.37 825.128 1898.48 834.27 1898.13 C 851.05 1897.47 867.644 1894.1 884.556 1893.53 C 903.771 1892.88 923.227 1895.35 942.241 1897.96 C 963.107 1901.52 984.117 1905.21 1004.58 1910.67 C 971.421 1882.33 922.788 1876.18 880.486 1879 C 879.21 1879.08 877.97 1879.23 876.703 1879.4 z M 544.967 1893.42 C 559.369 1936.22 592.218 1963.17 631.809 1982.83 C 662.067 1997.85 698.419 2000.91 730.456 1989.76 C 735.08 1988.2 739.562 1986.25 743.857 1983.93 L 747.777 1981.35 L 747.686 1980.27 C 721.974 1974.36 699.273 1985.75 673.099 1981.32 C 619.172 1972.18 602.124 1940.67 564.206 1908.42 C 558.098 1903.22 551.806 1897.6 544.967 1893.42 z M 1501.74 1896.93 C 1490.83 1904.87 1477.88 1912.06 1467.8 1920.84 C 1459.48 1928.09 1452.64 1937.23 1444.57 1944.84 C 1422.11 1966.01 1391.62 1982 1360.32 1983.11 C 1336.74 1983.95 1314.98 1975.04 1291.25 1979.33 L 1301.42 1984.11 C 1336.71 1998.93 1368.56 2001.32 1404.39 1986.67 C 1439.56 1972.3 1484.96 1941.4 1500.28 1904.96 C 1501.32 1902.47 1502.6 1900.09 1502.2 1897.39 L 1501.74 1896.93 z M 714.836 1900.19 C 707.36 1903.43 701.66 1907.75 698.642 1915.61 C 695.916 1922.71 696.773 1930.78 699.931 1937.59 C 703.966 1946.3 710.288 1950.37 719.117 1953.39 C 740.33 1960.62 829.898 1977.32 849.138 1973.17 C 856.386 1970.08 863.052 1965.7 866.247 1958.15 C 868.875 1951.94 868.436 1944.5 865.766 1938.38 C 862.589 1931.09 856.531 1925.77 849.114 1923.09 C 828.442 1915.63 803.583 1913.47 781.912 1909.51 C 764.86 1906.4 747.574 1901.94 730.361 1900.07 C 725.15 1899.51 720.037 1899.43 714.836 1900.19 z M 1317.85 1902.36 L 1246.35 1914.47 C 1231.73 1916.88 1215.53 1917.78 1201.69 1923.09 C 1196.87 1924.94 1192.87 1927.69 1189.76 1931.84 C 1185.53 1937.48 1183.39 1944.77 1184.52 1951.79 C 1185.65 1958.76 1190.36 1964.82 1196.24 1968.55 C 1203.51 1973.16 1212.05 1972.91 1220.25 1971.85 C 1245.8 1968.72 1271.25 1964.69 1296.52 1959.76 C 1308.5 1957.48 1321.86 1955.75 1333.15 1951.01 C 1338.18 1948.89 1342.66 1945.94 1346.1 1941.65 C 1350.02 1936.78 1352.07 1930.75 1351.33 1924.48 C 1350.53 1917.69 1346.41 1911.69 1340.97 1907.69 C 1333.82 1902.42 1326.45 1901.24 1317.85 1902.36 z M 960.642 1930.33 C 952.438 1931.75 945.635 1934.44 940.618 1941.42 C 936.551 1947.08 934.403 1953.88 935.657 1960.82 C 936.974 1967.84 941.055 1974.03 946.982 1978 C 963.691 1989.16 1065 1984.62 1089.38 1982.9 C 1098.31 1980.9 1106.09 1977.77 1111.21 1969.71 C 1114.89 1963.92 1116.84 1958.43 1115.18 1951.6 C 1113.41 1944.32 1108.28 1937.82 1101.86 1934.07 C 1097.58 1931.57 1092.85 1931.11 1088.01 1930.7 C 1067.51 1928.97 1046.01 1930.41 1025.41 1930.38 C 1003.96 1930.36 982.03 1929 960.642 1930.33 z M 1255.2 1987.21 C 1203.21 2003.7 1162.63 2018.25 1106.45 2013.24 C 1083.82 2011.22 1061.44 2006.79 1038.76 2004.62 C 1042.43 2007.71 1045.92 2010.81 1050.13 2013.17 C 1098.25 2035.77 1159.52 2034.4 1209.11 2016.71 C 1219.34 2013.06 1249.61 1999.32 1255.05 1990.02 C 1255.64 1989.01 1255.6 1988.89 1255.8 1987.91 L 1255.2 1987.21 z M 786.565 1987.82 C 814.683 2018.29 866.146 2028.52 905.784 2030.2 C 936.317 2031.5 971.787 2026.48 998.785 2011.37 C 1002.21 2009.03 1005.63 2006.74 1008.86 2004.12 C 990.962 2005.14 973.72 2009 956.029 2011.51 C 924.779 2016.01 892.99 2015.09 862.052 2008.8 C 836.653 2003.78 810.73 1992.12 786.565 1987.82 z" fill="rgb(239,235,228)" transform="translate(0,0)"></path>
<path d="M 214.411 280.753 L 213.005 280.246 L 214.411 280.753 z" fill="rgb(239,235,228)" transform="translate(0,0)"></path>
<path d="M 214.411 280.753 L 214.799 281.759 L 214.411 280.753 z" fill="rgb(239,235,228)" transform="translate(0,0)"></path>
<path d="M 248.52 359.879 L 248.035 359.251 L 248.52 359.879 z" fill="rgb(239,235,228)" transform="translate(0,0)"></path>
<path d="M 1083.74 504.839 C 1082.41 494.367 1078.6 487.931 1086.36 479.336 C 1098.24 484.796 1105.63 502.99 1110.37 514.421 C 1110.18 508.446 1107.41 492.368 1108.75 488.485 C 1119.15 489.07 1129.06 520.725 1131.76 528.866 C 1121.23 534.545 1110.48 538.906 1099.94 545.312 C 1069.57 563.773 1049.44 588.141 1034.74 620.032 C 1027.17 613.331 1018.28 600.068 1011.01 591.726 C 990.446 568.15 969.021 555.991 941.812 541.92 C 932.907 537.508 916.865 528.703 918.246 516.776 L 919.7 516.343 C 921.581 518.207 921.781 518.445 923.99 519.864 C 927.022 513.469 926.33 497.114 935.039 492.02 C 936.686 494.253 939.7 507.478 940.773 511.336 C 942.439 504.412 945.354 484.417 952.16 482.59 C 957.899 485.718 959.069 493.632 960.975 500.053 C 962.334 493.993 962.866 484.016 970.138 483.782 C 975.913 487.562 979.486 497.703 982.463 504.346 C 981.964 499.543 981.519 495.608 981.441 490.75 L 982.668 489.497 C 989.196 490.178 998.889 501.504 1003.06 506.535 L 1004.28 506.577 C 1004.74 503.743 1004.95 502.375 1005.75 499.564 L 1007.62 498.736 C 1014.23 500.966 1019.58 508.517 1023.99 513.911 C 1025.63 508.38 1025.55 503.922 1031.73 502.874 C 1037.16 505.029 1040.03 509.947 1043.16 514.756 C 1044.53 508.5 1044.91 499.39 1052.46 499.204 C 1056.78 501.251 1058.71 504.254 1061.83 507.944 C 1063.11 501.761 1063.43 493.047 1070.46 491.738 C 1076.26 493.722 1079.98 499.882 1083.74 504.839 z" fill="rgb(239,235,228)" transform="translate(0,0)"></path>
<path d="M 1724.48 500.5 L 1723.26 500.5 L 1724.48 500.5 z" fill="rgb(239,235,228)" transform="translate(0,0)"></path>
<path d="M 1720.9 501.645 L 1721.99 501.02 L 1720.9 501.645 z" fill="rgb(239,235,228)" transform="translate(0,0)"></path>
<path d="M 654.623 502.55 L 654.191 502.141 L 654.623 502.55 z" fill="rgb(239,235,228)" transform="translate(0,0)"></path>
<path d="M 330.49 506.5 L 329.254 506.5 L 330.49 506.5 z" fill="rgb(239,235,228)" transform="translate(0,0)"></path>
<path d="M 224.554 528.219 L 226.069 527.474 L 224.554 528.219 z" fill="rgb(239,235,228)" transform="translate(0,0)"></path>
<path d="M 224.107 528.779 L 224.554 528.219 L 224.107 528.779 z" fill="rgb(239,235,228)" transform="translate(0,0)"></path>
<path d="M 229.005 543.934 L 229.518 543.446 L 229.005 543.934 z" fill="rgb(239,235,228)" transform="translate(0,0)"></path>
<path d="M 1159.05 562.094 L 1158.23 561.005 L 1159.05 562.094 z" fill="rgb(239,235,228)" transform="translate(0,0)"></path>
<path d="M 215.291 623.271 L 215.91 623.784 L 215.291 623.271 z" fill="rgb(239,235,228)" transform="translate(0,0)"></path>
<path d="M 213.376 627.602 L 214.229 628.145 L 213.376 627.602 z" fill="rgb(239,235,228)" transform="translate(0,0)"></path>
<path d="M 214.229 628.145 C 215.067 628.765 216.608 629.829 217.317 630.497 L 214.229 628.145 z" fill="rgb(239,235,228)" transform="translate(0,0)"></path>
<path d="M 217.317 630.497 L 217.991 630.894 L 217.317 630.497 z" fill="rgb(239,235,228)" transform="translate(0,0)"></path>
<path d="M 211.322 633.352 L 211.927 633.798 L 211.322 633.352 z" fill="rgb(239,235,228)" transform="translate(0,0)"></path>
<path d="M 214.926 636.094 L 213.235 635.005 L 214.926 636.094 z" fill="rgb(239,235,228)" transform="translate(0,0)"></path>
<path d="M 214.926 636.094 L 215.995 636.786 L 214.926 636.094 z" fill="rgb(239,235,228)" transform="translate(0,0)"></path>
<path d="M 209.545 639.074 L 209.755 639.995 L 209.545 639.074 z" fill="rgb(239,235,228)" transform="translate(0,0)"></path>
<path d="M 406.005 801.776 L 406.538 801.218 L 406.005 801.776 z" fill="rgb(239,235,228)" transform="translate(0,0)"></path>
<path d="M 409.155 824.748 L 409.597 824.231 L 409.155 824.748 z" fill="rgb(239,235,228)" transform="translate(0,0)"></path>
<path d="M 515.172 994.764 L 515.526 994.231 L 515.172 994.764 z" fill="rgb(239,235,228)" transform="translate(0,0)"></path>
<path d="M 1072.78 1127.7 L 1073.91 1127.91 L 1072.78 1127.7 z" fill="rgb(239,235,228)" transform="translate(0,0)"></path>
<path d="M 1038.84 1161.75 C 1037.78 1165.75 1038.91 1164.72 1036.38 1166.28 C 1029.51 1162.87 1024.23 1135.44 1022.79 1127.79 C 1024.97 1129.36 1038.3 1145.76 1038.37 1147.67 L 1035.94 1146.27 C 1035.48 1148.57 1038.18 1158.16 1038.84 1161.75 z" fill="rgb(239,235,228)" transform="translate(0,0)"></path>
<path d="M 799.162 1283.8 L 799.577 1283.37 L 799.162 1283.8 z" fill="rgb(239,235,228)" transform="translate(0,0)"></path>
<path d="M 1239.23 1285.41 L 1239.78 1285.99 L 1239.23 1285.41 z" fill="rgb(239,235,228)" transform="translate(0,0)"></path>
<path d="M 769.098 1297.88 L 769.546 1297.45 L 769.098 1297.88 z" fill="rgb(239,235,228)" transform="translate(0,0)"></path>
<path d="M 630.157 1309.81 L 630.548 1309.36 L 630.157 1309.81 z" fill="rgb(239,235,228)" transform="translate(0,0)"></path>
<path d="M 458.645 1398.94 C 482.021 1405.57 533.231 1423.05 555.565 1425.1 L 555.995 1425.75 L 555.565 1425.1 C 555.127 1424.84 554.692 1424.57 554.25 1424.31 C 546.74 1419.95 536.713 1417.49 528.577 1414.23 C 515.092 1408.83 439.243 1378.53 434.877 1368.07 C 434.48 1367.12 434.495 1366.38 434.43 1365.4 C 438.061 1359.83 458.85 1368.24 464.501 1369.9 C 524.019 1387.41 583.263 1403.57 644.399 1414.5 C 739.565 1430.9 835.781 1440.48 932.313 1443.18 C 1119.7 1450.15 1324.89 1439.01 1507.26 1393.52 C 1545.77 1383.92 1585.44 1372.87 1622.24 1357.97 C 1618.95 1363.45 1607.88 1382.57 1603.84 1384.88 C 1575.06 1401.35 1524.33 1413.56 1493.49 1423 C 1524.58 1420.22 1562.54 1409.79 1592.44 1400.29 C 1587.77 1406.82 1583.15 1413.39 1578.58 1419.99 C 1544.91 1432.88 1503.42 1441.78 1469.15 1453.12 C 1496.54 1451.82 1541 1441.14 1567.09 1432.73 C 1564.35 1437.21 1560.32 1444.27 1557.2 1448.13 C 1527.02 1459.32 1497.75 1468.96 1466.4 1476.38 C 1458.62 1478.23 1451.89 1480.15 1444.66 1483.65 C 1468.09 1483.44 1523.94 1469.95 1545.46 1460.21 C 1542.22 1464.21 1524.61 1486.54 1522.02 1488.02 C 1520.62 1486.91 1518.82 1484.94 1516.8 1485.63 C 1489.99 1494.66 1461.51 1501.67 1435.04 1511.37 C 1448.07 1509.88 1517.36 1492.28 1521.28 1493.43 C 1525.12 1498.5 1526.78 1501.04 1531.86 1505.07 C 1502.25 1514.03 1472.43 1522.3 1442.43 1529.86 C 1433.64 1532.13 1413.63 1535.69 1407.13 1538.21 L 1406.59 1539.28 C 1423.91 1546.16 1520.78 1517.38 1545.63 1514.3 C 1549.02 1516.75 1552.76 1519.58 1556.2 1521.87 C 1528.01 1534.44 1496.85 1540.08 1467.17 1548.49 C 1456.84 1551.41 1444.63 1553.6 1434.82 1557.65 C 1468.17 1554.86 1536.44 1544.66 1565.42 1529.37 C 1570.29 1533.41 1573.97 1536.46 1579.21 1540.03 C 1540.92 1557.46 1501.47 1563.23 1461.26 1571.88 C 1497.38 1573.24 1556.61 1560.03 1590.78 1548.08 C 1595.91 1551.17 1598.86 1552.88 1603.57 1556.75 C 1577.2 1571.15 1542.24 1578.32 1512.94 1584.84 C 1508.49 1585.83 1489.97 1588.55 1487.21 1590.24 C 1516.12 1591.7 1585.54 1576.39 1614.41 1566.82 C 1620.23 1570.18 1625.75 1573.32 1631.36 1577.03 C 1592.23 1594.7 1550.31 1603.6 1508.72 1612.41 C 1504.63 1613.28 1502.14 1615.22 1500.16 1618.86 L 1500.66 1619.91 C 1515.91 1615.68 1537.94 1612.28 1553.87 1609.38 C 1586.98 1603.35 1612.36 1596.92 1643.76 1585.49 C 1649.38 1590.68 1653.41 1593.86 1659.55 1598.47 C 1620.02 1616.83 1579.22 1632.31 1537.46 1644.79 C 1454.25 1669.15 1350.13 1685.26 1264.37 1693.36 C 1052.56 1713.37 815.822 1707.82 606.473 1666.01 C 542.534 1653.07 479.619 1635.51 418.223 1613.45 C 408.988 1610.01 399.805 1606.43 390.677 1602.71 C 398.5 1599.99 401.08 1598.59 408.354 1594.47 C 436.177 1599.83 535.188 1623.45 558.318 1620.39 C 542.562 1616.46 525.814 1614.13 510.243 1609.03 C 481.74 1599.69 451.787 1593.68 423.165 1585.45 C 429.208 1581.96 434.407 1579 440.128 1574.99 C 454.206 1576.7 558.28 1589.71 565.816 1586.76 C 556.148 1584.03 538.32 1581.55 527.825 1579.73 C 512.333 1576.96 496.885 1573.95 481.487 1570.69 C 472.336 1568.85 460.573 1566.88 452.028 1563.49 C 454.276 1562.05 464.152 1555.5 465.972 1555.49 C 508.386 1555.16 555.443 1565.47 597.523 1566.01 L 597.995 1566.75 L 597.523 1566.01 C 572.929 1558.69 545.073 1553.91 519.989 1548 C 508.321 1545.25 497.502 1543.65 485.881 1539.99 C 490.167 1533.76 493.239 1531.6 499.009 1526.89 C 542.938 1531.04 590.388 1542.58 634.833 1545.86 C 598.391 1534.63 551.53 1523.77 514.396 1513.87 C 517.416 1509.56 519.902 1505.27 522.585 1500.76 C 546.449 1505.51 605.123 1517.76 627.206 1516.77 C 594.238 1509.39 544.926 1496.86 513.47 1484.45 C 508.794 1477.55 507.266 1473.85 503.967 1466.17 C 531.378 1474.03 560.514 1479.58 588.608 1484.43 C 596.331 1485.77 603.469 1486.13 611.469 1487.6 L 611.215 1486.76 C 604.564 1484.26 583.253 1479.44 574.682 1477.29 C 544.733 1469.79 521.023 1463.09 492.369 1451.84 C 487.723 1445.29 486.159 1442.16 482.617 1434.85 C 515.723 1442.33 548.523 1452.8 582.246 1458.29 L 584.041 1458.75 L 582.246 1458.29 C 551.578 1445.03 500.54 1433.61 470.333 1416.72 C 468.081 1415.46 460.733 1402.42 458.645 1398.94 z M 1278.62 1477.41 C 1252.16 1479.79 1224.73 1481.88 1198.38 1484.69 C 1202.28 1540.84 1209.88 1597.99 1213.45 1654.29 C 1242.78 1651.65 1279.95 1649.26 1308.74 1645.05 C 1307.89 1636.16 1307.16 1625.55 1305.75 1616.86 C 1305.4 1615.48 1305.34 1613.81 1304.32 1613.71 C 1291.69 1612.54 1261.05 1616.65 1249.29 1618.07 C 1247.86 1605.51 1246.65 1592.93 1245.65 1580.33 C 1260.27 1579.15 1285.18 1577.47 1299.01 1574.91 L 1294.49 1542.73 C 1277.74 1544.38 1259.54 1546.4 1242.82 1547.45 C 1241.55 1537.67 1239.3 1523.36 1238.65 1513.89 L 1293.38 1509.47 C 1292.02 1498.65 1290.8 1487.82 1289.71 1476.97 C 1287.14 1477.05 1280.88 1477.09 1278.62 1477.41 z M 765.685 1478.91 C 760.743 1535.08 752.273 1592.17 747.749 1648.01 C 759.689 1649.12 771.735 1649.5 783.719 1650.01 C 785.982 1629.1 787.821 1600.36 791.296 1580.31 L 822.242 1583.21 L 839.414 1584.93 C 840.354 1573.7 841.153 1562.45 841.811 1551.2 C 826.02 1548.23 809.603 1548.45 793.714 1546.83 C 795.443 1536.33 796.887 1525.78 798.044 1515.21 C 815.951 1516.92 835.452 1519.09 853.272 1519.96 C 854.719 1508.74 855.61 1497.45 855.94 1486.15 C 825.834 1484.01 795.748 1481.59 765.685 1478.91 z M 903.684 1488.89 C 902.76 1499.22 902.227 1510.08 901.841 1520.47 C 900.142 1566.24 897.114 1612.09 895.651 1657.85 C 908.718 1658.21 921.788 1658.49 934.858 1658.71 C 934.949 1649.52 934.779 1600.4 937.92 1594.74 C 941.941 1593.61 943.369 1593.89 947.641 1594.02 C 950.889 1602.18 972.833 1658.48 975.122 1661.07 C 989.945 1661.65 1003.85 1662.32 1018.67 1661.85 C 1012.84 1651.23 1007.49 1641.35 1002.12 1630.49 C 995.902 1617.93 990.088 1602.24 983.704 1590.12 C 998.448 1580.39 1008.83 1572.41 1012.66 1554.15 C 1015.58 1540.24 1015.93 1522.69 1007.85 1510.42 C 1000.91 1499.87 988.82 1495 976.833 1492.88 C 956.292 1489.24 924.973 1489.05 903.684 1488.89 z M 1108.34 1489.56 C 1092.45 1490.14 1076.47 1491.1 1060.58 1491.04 C 1061.31 1532.24 1062.62 1573.42 1064.49 1614.58 C 1065.12 1629.99 1064.8 1645.51 1065.79 1660.89 C 1096.85 1660.62 1128.15 1660.18 1159.13 1657.83 C 1158.82 1646.95 1158.43 1636.07 1157.98 1625.19 C 1148.95 1625.59 1139.91 1625.9 1130.88 1626.11 C 1121.28 1626.72 1111.67 1627.22 1102.06 1627.61 L 1100.31 1588.31 C 1118.04 1587.55 1136.38 1587.43 1153.99 1585.21 C 1153.07 1575.04 1152.62 1564.57 1150.84 1554.52 C 1133.6 1554.93 1116.2 1555.04 1099.03 1556.63 L 1098.64 1523.01 C 1117.19 1522.57 1135.67 1520.99 1154.2 1520.54 C 1153.76 1509.99 1153.22 1499.44 1152.59 1488.9 C 1137.84 1488.57 1123.08 1488.79 1108.34 1489.56 z" fill="rgb(239,235,228)" transform="translate(0,0)"></path>
<path d="M 1674.9 1492.41 L 1675.81 1492.92 L 1674.9 1492.41 z" fill="rgb(239,235,228)" transform="translate(0,0)"></path>
<path d="M 937.664 1564.36 C 937.56 1550.15 938.458 1535.93 939.13 1521.74 C 947.894 1521.54 960.765 1520.82 967.83 1526.74 C 971.462 1529.79 972.956 1534.24 973.294 1538.84 C 973.884 1546.88 973.129 1555.04 967.723 1561.32 C 957.501 1566.84 948.736 1565.64 937.664 1564.36 z" fill="rgb(239,235,228)" transform="translate(0,0)"></path>
<path d="M 1675.24 1717.43 L 1675.75 1717.99 L 1675.24 1717.43 z" fill="rgb(239,235,228)" transform="translate(0,0)"></path>
<metadata><recraft-signature>{"signed_by": "recraft", "signature_b64": "2+GKo88DdheCKYmVeOq85bcKsr6ZjrjiBDn0bLq8XnYkEnnvmELBunpvigrStCMX3Q7gYn3vXweZOhZUKIPUCw==", "signing_algo": "Ed25519", "generation_timestamp": 1776598627, "identifier": "2f09c269-aa4a-4afc-af91-96bc352c60bc"}</recraft-signature></metadata></svg>