<svg xmlns="http://www.w3.org/2000/svg" height="1024" preserveAspectRatio="none" style="display: block;" version="1.1" viewBox="0 0 2048 2048" width="1024">
<path d="M 1008.58 0 L 1043.42 0 C 1085.11 12.8615 1131.31 27.4397 1172.69 41.4265 C 1185.16 45.7116 1197.58 50.167 1209.93 54.7913 C 1212.96 55.9251 1226.73 61.3809 1229.24 61.7544 C 1235.56 62.6938 1245.86 61.2247 1253.11 61.924 C 1307.59 67.1752 1363.18 71.6817 1417.81 75.3531 C 1451.87 106.245 1486.2 136.835 1520.81 167.119 C 1535.48 179.954 1550.84 194.45 1566.38 206.142 C 1576.25 213.566 1590.89 218.366 1601.8 224.503 C 1645.95 246.475 1688.83 270.885 1732.72 293.376 C 1735.99 298.613 1749.69 326.079 1751.33 330.689 C 1758.69 351.364 1814.61 450.825 1813.58 465.307 C 1803.28 459.284 1745.63 383.625 1731.79 368.27 C 1685.63 317.068 1638.75 270.973 1583.24 229.319 C 1575.69 223.656 1568.43 217.093 1560.52 211.541 C 1383.77 89.1556 1170.01 31.9285 955.754 49.6334 C 922.86 52.131 890.057 55.7116 857.398 60.3694 C 844.834 62.1314 825.024 64.44 813.54 67.5191 C 759.615 81.9777 705.827 97.6592 654.423 119.752 C 594.156 145.653 534.116 178.768 480.435 216.578 C 465.978 226.761 450.387 240.013 436.658 251.368 C 360.855 313.839 293.937 386.369 237.759 466.948 C 223.387 487.943 209.894 511.23 197.157 533.318 C 87.991 720.526 44.344 938.783 73.1172 1153.58 C 81.084 1212.09 91.191 1258.54 109.956 1314.91 C 116.053 1313.63 123.398 1312.28 129.332 1310.76 C 64.7428 1113.81 67.8923 900.918 138.279 705.969 C 252.131 386.837 527.847 130.239 867.472 78.1472 C 1173.72 31.1739 1463.05 116.647 1680.23 340.644 C 1789.16 451.624 1871.15 586.14 1919.86 733.817 C 1970.17 888.208 1979.87 1052.95 1948.04 1212.18 C 1943.82 1233.51 1938.92 1254.71 1933.35 1275.73 C 1930.23 1287.07 1925.9 1299.56 1923.13 1310.66 C 1929.18 1311.12 1935.4 1311.51 1941.42 1312.19 C 2021.96 1059.68 1991.06 802.113 1870.32 568.019 C 1859.67 547.662 1848.84 527.394 1837.85 507.217 C 1828.57 490.128 1821.92 478.336 1814.93 460.254 C 1830.33 468.505 1934.73 601.949 1950.31 621.203 C 1954.82 672.564 1959.89 723.875 1965.5 775.127 C 1966.37 782.745 1968.01 812.33 1969.3 817.114 C 1975.31 839.568 1987.99 865.713 1996.04 888.175 C 2007.11 919.092 2016.11 950.226 2024.54 981.931 C 2027.15 991.722 2033.36 1010.9 2033.13 1020.36 C 2032.86 1031.31 2025.71 1051.55 2022.2 1062.33 C 2013.09 1089.94 2003.68 1117.46 1993.96 1144.86 C 1985.23 1169.68 1976.71 1187.45 1975.93 1214.01 C 1974.91 1248.55 1971.34 1283.87 1970.69 1318.39 C 1992.72 1323.56 2033.17 1332.66 2045.65 1352.83 C 2046.46 1354.15 2047.25 1355.5 2048 1356.86 L 2048 1374.14 C 2043.27 1380.14 2036.17 1389.09 2034.32 1396.62 C 2014.07 1478.68 2015.77 1571.17 2025.77 1654.66 C 2030.46 1693.81 2038.24 1743.96 2048 1782.52 L 2048 1809.48 C 2041.97 1834.83 2033.98 1856.61 2010.32 1870.12 C 1971.52 1892.27 1915.9 1890.9 1872.68 1890.92 C 1841.14 1891.06 1809.6 1890.72 1778.07 1889.92 C 1800.76 1938.6 1841.11 1965.53 1890.16 1984.34 C 1901.47 1988.67 1933.49 1993.73 1923.9 2011.44 C 1916.35 2025.41 1897.17 2032.63 1882.55 2036.76 C 1819.26 2052.78 1729.34 2045.3 1671.24 2015.18 C 1654.61 2006.56 1634.12 1987 1630.74 1969.18 C 1622.95 1928.03 1633.02 1871.37 1633.04 1829.98 C 1612.21 1838.4 1584.39 1849.08 1563.92 1857.96 C 1557.34 1860.82 1533.77 1882.83 1526.29 1888.87 C 1490.17 1917.81 1454.25 1947 1418.53 1976.43 C 1374.69 1979.07 1330.87 1982.09 1287.09 1985.52 C 1268.8 1987.02 1245.95 1988.84 1227.97 1990.87 C 1220.85 1991.68 1193.14 2001.22 1184.31 2004.06 L 1111.97 2027.03 C 1088.3 2034.6 1061.09 2040.57 1038.77 2048 L 1014.17 2048 C 997.822 2042.52 977.685 2037.34 960.711 2032.43 C 935.645 2025.08 910.633 2017.55 885.677 2009.84 C 870.525 2005.22 840.902 1993.09 828.049 1990.92 C 808.926 1987.69 776.776 1985.77 757.051 1984.29 L 626.732 1974.85 C 619.83 1969.62 610.01 1960.31 603.091 1954.37 C 581.193 1935.5 559.466 1916.43 537.912 1897.16 C 529.715 1889.88 514.68 1875.39 506.003 1870.17 C 502.078 1867.81 481.573 1861.02 475.833 1859.01 C 456.062 1852.2 436.374 1845.16 416.771 1837.89 C 416.813 1871.71 419.164 1906.25 421.508 1940.15 C 429.002 2042.3 286.422 2050.27 214.028 2045.19 C 185.743 2042.22 142.888 2038.16 125.192 2012.36 C 114.678 1997.04 145.799 1988.51 154.83 1985.43 C 204.056 1968.6 249.164 1941.73 268.029 1890.86 C 212.929 1889.91 159.933 1892.21 104.497 1888.24 C -29.1583 1878.64 1.20388 1791.58 18.3979 1696.3 C 23.1099 1668.94 26.776 1641.42 29.3882 1613.78 C 35.2124 1551.59 32.6761 1458.51 14.0092 1397.19 C 11.5243 1389.03 5.36871 1381.52 0 1375.04 L 0 1353.77 C 10.0764 1337.96 49.7756 1329.41 68.6668 1323.68 C 71.9439 1304.67 72.6614 1277.51 74.3843 1257.77 C 75.7913 1241.64 77.9988 1215.94 76.7679 1200.15 C 76.262 1193.66 66.4788 1170.59 63.5784 1162.25 C 46.0709 1111.97 30.2757 1058.93 11.5014 1009.29 C 28.5377 964.215 45.187 918.99 61.4473 873.625 C 67.3944 857.025 80.383 823.565 83.2744 807.919 C 84.8159 799.578 86.4537 765.896 87.3316 755.341 L 96.8914 652.58 C 97.6409 644.331 98.2364 623.383 100.969 614.881 C 102.381 610.486 110.314 602.037 113.482 598.303 C 151.684 553.209 190.028 508.359 229.666 464.525 C 236.807 456.628 249.688 427.395 255.194 416.464 L 288.429 351.45 C 295.599 337.194 308.999 306.089 320.2 293.781 C 322.403 291.36 342.215 281.138 346.447 278.817 L 398.308 250.323 C 424.524 235.869 453.985 219.451 481.137 206.318 C 486.177 203.881 507.015 183.199 513.478 177.479 L 593.177 107.203 C 635.018 70.0874 621.965 74.566 677.688 70.8693 C 713.905 68.4135 750.095 65.5807 786.253 62.3713 C 792.532 61.8739 824.672 60.5835 827.644 59.6785 C 841.664 55.4093 861.142 46.6598 876.22 41.572 C 919.991 26.6233 964.125 12.7617 1008.58 0 z M 292.578 1911.38 L 292.172 1911.93 L 292.578 1911.38 C 298.744 1908.79 309.912 1903.25 311.646 1896.43 C 310.776 1896.22 307.122 1895.22 306.33 1895.59 C 301.395 1897.89 295.503 1907.26 292.578 1911.38 z M 338.739 1910.66 C 341.315 1913.39 343.41 1916.28 346.37 1911.86 C 344.56 1907.23 339.44 1905.49 335.159 1903.61 C 334.087 1903.14 333.013 1902.68 331.936 1902.22 C 311.798 1916.83 299.97 1927.99 281.42 1944.1 L 270.524 1955.25 C 277.312 1951.85 283.897 1948.64 290.769 1945.56 C 303.015 1940.08 333.953 1930.58 340.44 1918.23 C 339.902 1915.23 339.553 1913.59 338.739 1910.66 z M 1000.09 115.43 L 961.033 117.155 L 962.836 129.165 C 951.956 152.922 939.079 137.793 938.621 118.651 C 923.049 119.902 907.503 121.454 891.991 123.306 C 897.228 157.594 873.525 153.798 870.439 126.429 C 855.775 129.441 840.67 132.749 825.992 135.476 C 835.768 166.078 811.175 171.42 803.103 139.976 C 790.166 143.474 773.32 147.947 760.789 152.707 C 762.336 158.803 765.822 171.044 761.488 175.694 C 749.005 189.084 740.883 166.929 738.984 159.807 C 722.844 165.08 709.838 170.639 694.265 177.504 C 708.343 206.823 685.889 216.364 673.274 186.124 C 659.688 192.18 644.019 198.839 631.391 206.531 C 636.718 214.198 648.167 238.374 626.233 233.072 C 620.352 231.65 614.516 222.273 611.014 217.063 C 596.69 224.396 585.881 230.378 572.401 239.604 C 587.82 272.242 570.644 279.093 551.033 251.538 C 539.247 260.18 526.573 268.045 515.27 276.389 C 520.342 283.534 525.766 290.38 524.27 299.561 C 516.988 309.473 503.238 298.261 496.474 292.928 L 494.873 291.663 C 485.085 299.753 473.617 308.823 464.21 317.176 C 467.55 323.031 473.432 331.851 471.135 338.487 C 466.343 352.334 450.014 338.981 444.826 334.85 C 435.447 342.42 424.539 353.152 415.547 361.609 C 439.455 385.441 426.4 403.164 399.486 377.21 C 390.382 386.105 380.159 396.071 372.585 406.257 C 381.692 414.24 392.736 432.167 370.381 431.459 C 366.418 431.333 358.547 426.591 354.712 424.499 C 346.877 433.974 332.646 450.387 325.962 460.377 C 332.452 466.795 343.742 475.688 337.829 485.442 C 329.086 490.773 319.073 484.246 310.926 480.217 C 301.465 491.353 294.45 504.203 286.059 516.033 C 292.547 521.014 304.683 529.501 301.329 538.954 C 294.199 546.933 280.431 539.837 272.406 536.447 C 263.856 548.998 256.15 562.103 249.337 575.675 C 255.689 581.066 267.832 589.63 262.93 599.105 C 256.081 605.066 244.761 601.592 236.815 599.22 C 229.616 612.05 223.312 624.859 216.753 638.024 C 223.997 642.867 236.859 649.644 233.693 659.739 C 226.856 666.56 214.964 664.31 205.934 663.794 C 200.248 676.019 194.301 687.674 191.048 700.788 C 197.971 706.166 204.5 709.812 207.552 717.781 C 206.381 727.153 188.16 727.722 180.327 728.78 C 175.978 740.351 171.459 752.848 168.232 764.796 C 173.548 768.59 192.352 779.827 184.794 787.866 C 180.867 792.042 166.799 793.945 160.885 794.274 C 158.032 804.805 153.733 820.284 152.509 830.953 C 182.292 847.089 176.451 853.321 146.586 860.429 C 143.104 874.709 141.528 884.451 140.346 899.104 C 145.683 901.222 166.43 907.48 160.196 917.086 C 156.496 922.786 142.29 925.758 135.637 927.232 C 134.794 937.657 133.263 951.682 132.971 961.855 C 138.721 964.148 158.501 969.984 153.343 980.117 C 150.552 985.599 137.988 988.485 132.133 989.775 C 131.858 1000.77 131.108 1015.65 131.521 1026.34 C 139.607 1028.74 150.344 1030.75 155.507 1037.08 C 157.058 1046.67 139.012 1051.83 131.67 1054.82 C 131.941 1066.37 132.577 1077.91 133.578 1089.42 C 165.117 1097.06 167.93 1105.06 136.314 1119.05 C 137.712 1130.9 138.916 1142.93 141.343 1154.61 C 149 1155.86 166.703 1156.68 167.122 1166.25 C 163.386 1174.32 153.491 1178.63 146.084 1183.78 C 147.931 1194.17 150.597 1209.68 153.625 1219.65 C 162.854 1220.38 171.447 1219.91 178.93 1224.99 C 184.328 1234.55 168.967 1241.46 162.122 1245.74 C 164.334 1258.92 166.618 1269.03 170.843 1281.76 C 180.135 1281.9 189.722 1280.84 197.359 1285.69 C 202.932 1294.86 187.599 1301.3 181.124 1304.93 C 212.024 1297.97 249.26 1292.92 280.93 1288.01 C 347.497 1277.1 414.362 1268.1 481.445 1261.02 C 468.029 1259.69 416.639 1257.65 410.062 1249.72 C 407.969 1247.19 407.49 1242.23 408.264 1239.15 C 411.629 1225.77 452.547 1160.5 461.594 1145.05 C 504.326 1072.07 547.609 999.267 588.943 925.505 C 550.617 918.336 509.647 916.741 471.014 911.358 C 460.629 909.911 412.255 906.481 407.094 902.433 C 406.037 899.923 405.572 899.658 406.429 896.478 C 407.047 894.242 408.692 892.434 410.859 891.609 C 414.86 890.042 584.125 908.707 598.457 911.256 C 606.012 897.151 618.032 878.512 624.085 864.934 L 622.606 864.436 C 595.751 855.517 565.051 852.227 537.786 844.101 C 535.355 843.377 534.031 842.303 532.636 840.224 C 531.264 834.353 535.341 829.168 540.033 829.968 C 568.531 834.829 605.883 844.491 633.114 851.222 L 647.711 825.467 L 509.73 777.668 C 491.277 771.241 472.227 764.845 453.732 758.385 C 451.817 757.716 448.353 755.046 447.802 753.137 C 446.895 749.997 447.435 750.158 448.711 747.558 C 451.232 745.766 455.394 744.058 458.455 745.176 C 523.05 768.762 592.464 787.826 656.259 813.022 L 679.846 773.298 C 662.594 764.189 643.841 757.983 627.19 748.306 C 621.862 745.21 622.138 733.111 630.76 730.942 C 636.428 732.261 681.327 756.399 688.062 760.435 C 694.956 748.71 702.872 735.783 708.68 723.564 C 686.754 710.615 666.982 696.708 646.07 682.217 C 592.987 645.433 539.255 609.569 485.465 573.838 C 482.641 571.964 479.727 569.389 477.852 566.576 C 476.506 555.619 486.147 555.645 493.054 560.506 C 512.687 574.325 532.705 587.662 552.569 601.171 L 660.355 673.618 C 677.898 685.399 698.545 700.479 716.539 710.929 C 721.807 702.018 727.368 692.38 731.444 682.866 L 701.232 654.644 C 695.115 649 686.561 641.787 681.387 635.601 C 683.809 631.241 685.088 628.102 688.906 624.912 C 694.051 624.246 706.106 637.141 710.192 641.106 C 720.027 650.651 729.917 659.968 739.996 669.254 C 747.268 658.519 753.795 647.298 759.531 635.669 C 717.818 586.304 678.016 534.825 637.129 484.762 C 632.779 479.435 628.889 473.348 635.382 468.385 C 636.823 468.11 640.128 467.254 641.313 468.59 C 684.63 517.44 724.246 570.595 766.634 620.338 C 769.996 614.717 780.937 597.981 780.977 592.573 C 770.93 574.556 756.224 554.947 745.082 537.044 L 651.029 387.501 C 640.297 370.693 629.713 353.792 619.277 336.798 C 614.042 328.377 603.942 316.454 604.357 306.776 C 606.271 303.254 604.912 304.399 608.3 302.92 C 618.308 303.905 628.251 325.136 633.931 333.807 C 651.638 360.978 669.087 388.315 686.276 415.816 C 719.86 468.946 757.8 525.066 790.042 578.363 C 809.106 544.663 830.298 507.534 848.258 473.367 C 843.656 460.393 818.509 390.933 820.72 382.341 C 823.321 379.067 821.75 380.2 825.515 378.68 C 827.402 378.853 830.799 379.255 831.728 381.247 C 842.663 404.685 849.968 430.332 859.402 454.513 C 869.062 436.893 878.676 418.184 888.811 401.002 C 885.15 386.99 865.11 303.873 866.302 293.745 C 868.075 290.887 867.948 290.565 871.087 289.205 C 884.252 292.24 895.867 366.723 900.524 382.349 C 909.309 367.084 928.971 334.972 935.419 319.866 C 933.803 309.682 925.518 259.65 937.537 255.603 C 945.454 258.557 944.777 268.412 945.701 275.963 C 946.64 284.305 947.711 292.859 948.497 301.196 C 958.68 285.229 1018.75 175.817 1026.88 171.887 C 1037 178.975 1088.33 274.165 1099.58 291.124 C 1100.39 283.303 1100.16 261.27 1109.31 261.129 C 1112.15 262.605 1115.29 264.853 1115.61 268.162 C 1116.75 280.145 1113.74 300.499 1111.83 312.42 C 1124.39 336.095 1137.54 359.456 1151.25 382.482 C 1153.2 368.343 1168.35 294.18 1174.08 284.417 C 1175.47 283.497 1175.56 282.991 1177.34 283.325 C 1179.62 283.753 1181.66 284.982 1182.75 287.123 C 1186.44 294.372 1164.78 385.582 1161.1 399.754 C 1171.22 418.248 1181.1 436.429 1192.79 453.989 L 1239.88 315.812 C 1246.81 294.833 1254 273.939 1261.45 253.135 C 1264.08 245.681 1268.52 225.532 1275.93 221.231 C 1277.35 220.408 1278.99 221.025 1280.74 221.275 C 1285.51 226.481 1283.23 234.224 1281.07 240.38 C 1265.5 284.882 1250.13 329.44 1235.13 374.142 L 1215.96 431.463 C 1212.1 442.965 1207.14 458.854 1202.09 469.589 C 1212.35 488.144 1222.86 506.337 1233.43 524.702 C 1242.54 540.516 1251.01 558.211 1261.7 572.93 C 1265.42 567.26 1274.92 550.112 1283.52 554.13 C 1288.69 564.203 1275.51 578.831 1269.63 586.23 C 1274.22 597.064 1279.66 607.073 1285.69 617.173 C 1291.43 609.697 1316.86 574.292 1323.39 570.73 C 1329.24 570.76 1331.38 574.539 1332.26 579.846 C 1330.85 585.369 1299.95 624.603 1293.86 631.495 C 1299.51 642.079 1305.36 652.551 1311.42 662.906 C 1328.65 649.741 1343.4 635.902 1359.63 621.612 L 1416.14 572.688 C 1426.04 564.122 1435.67 555.534 1445.32 546.707 C 1449.01 543.33 1456.3 542.732 1460.7 545.429 C 1461.45 546.931 1462.28 548.958 1461.14 550.349 C 1445 570.022 1412.45 594.49 1394.12 610.802 C 1368.01 634.026 1344.93 655.205 1319.87 676.718 C 1324.26 686.774 1329.39 696.489 1335.23 705.783 C 1351.12 696.284 1363.51 683.753 1379.08 674.253 C 1383.35 671.651 1388.29 673.773 1390.93 677.862 C 1392.49 689.634 1353.3 712.818 1343.03 719.394 C 1349.4 731.639 1356.98 746.532 1364.63 758.018 C 1374.54 753.101 1424.33 726.765 1430.37 727.976 C 1433.21 730.118 1433.22 729.884 1434.8 733.006 C 1435.11 745.036 1383.92 765.664 1372.62 770.726 C 1377.78 782.142 1388.97 799.635 1395.74 811.077 C 1416.46 801.649 1455.01 790.319 1478 782.588 C 1503.43 773.987 1528.9 765.551 1554.44 757.283 C 1563.01 754.474 1571.37 751.066 1579.95 748.318 C 1585.69 746.481 1589.62 745.921 1593.28 751.429 C 1593.47 754.208 1593.5 754.86 1591.69 757.206 C 1584.46 766.59 1427.48 814.359 1403.82 824.024 C 1408.22 833.354 1412.05 840.803 1416.96 849.835 L 1503.95 830.184 C 1507.55 832.891 1510.4 834.479 1512.52 838.391 L 1512.5 840.73 C 1505.8 847.14 1438.42 862.084 1425.52 864.713 C 1434.55 881.365 1443.7 897.954 1452.96 914.479 C 1482.27 909.431 1511.75 905.414 1541.34 902.435 C 1551.08 901.36 1579.66 894.825 1584.52 905.202 C 1584.12 907.803 1583.61 908.684 1581.38 910.201 C 1572.25 916.414 1478.98 924.652 1460.5 927.394 C 1499.17 1004.28 1544.64 1081.49 1588.42 1155.64 L 1628.87 1224.47 C 1634.67 1234.36 1642.39 1246.23 1647.56 1255.98 C 1541.74 1255.57 1435.91 1255.84 1330.09 1256.79 C 1304.07 1257.18 1278.01 1257.18 1252 1258.34 C 1241.73 1258.8 1225.9 1258.56 1216.21 1260.52 C 1283.03 1264.12 1349.82 1268.09 1416.59 1272.43 C 1512.55 1277.42 1608.46 1283.15 1704.33 1289.64 L 1819.78 1299.09 C 1836.96 1300.65 1856.3 1303.24 1873.22 1304.34 C 1875.12 1299.27 1876.72 1295.23 1877.99 1289.92 C 1872.1 1287.69 1868.6 1287.12 1865.72 1281.44 C 1865.4 1270.58 1877.79 1269.74 1885.99 1270.74 C 1889.34 1257.76 1893.05 1241.54 1896.95 1228.98 C 1888.7 1228.99 1878.38 1228.25 1876.87 1218.05 C 1879.21 1207.17 1891.09 1209.17 1898.99 1211.47 L 1900.17 1211.82 C 1903.27 1195.81 1906.23 1180.44 1908.68 1164.32 C 1884.16 1161.92 1889.28 1145.66 1913.55 1144.45 C 1915.13 1130.33 1916.34 1116.16 1917.2 1101.98 C 1890.24 1097.68 1895.05 1085.7 1918.12 1079.36 C 1919.36 1065.92 1919.49 1051.32 1919.33 1037.79 C 1912.17 1037.25 1908.09 1037.76 1902.92 1032.85 C 1899.63 1022.75 1912.67 1019.66 1919.93 1017.38 C 1920.06 1002.04 1919.41 988.105 1918.65 972.748 C 1912.04 973.858 1907.82 974.713 1901.86 971.5 C 1895.08 962.121 1911.02 955.144 1917.63 951.949 L 1913.96 915.718 C 1906.72 918.444 1897.59 920.957 1893.36 912.483 C 1893.12 902.369 1903.57 899.105 1911.41 896.433 C 1909.4 881.787 1906.99 869.097 1904.23 854.593 C 1895.95 855.99 1886.52 858.128 1883.34 848.026 C 1884.92 838.542 1893.13 836.934 1901.3 835.119 C 1899.54 828.385 1894.1 803.94 1890.09 799.955 C 1883.11 799.17 1875.94 799.313 1871.04 794.424 C 1868.06 785.356 1877.73 778.708 1884.56 774.896 C 1882.45 767.915 1875.53 742.067 1871.56 738.271 C 1864.34 737.453 1849.24 737.697 1849.62 728.771 C 1852.96 722.395 1857.36 719.13 1863.11 715.147 C 1857.54 699.261 1853.14 688.416 1845.38 673.104 C 1838.35 675.949 1827.9 679.273 1823.19 670.999 C 1822.26 661.653 1830.09 657.9 1837.2 653.903 C 1831.85 640.861 1826.89 629.706 1819.31 617.768 C 1815.1 620.259 1808.36 624.792 1803.92 622.745 C 1786.39 614.667 1799.92 603.783 1810.29 600.415 C 1803.36 586.373 1796.09 572.049 1787.67 558.829 C 1782.03 561.633 1754.34 574.886 1758.2 552.969 C 1759.2 547.269 1770.02 543.139 1776.11 542.257 C 1767.38 526.531 1759.07 512.194 1747.42 498.243 C 1727.1 521.256 1710.88 498.195 1732.13 485.342 C 1733.71 484.394 1735.29 483.468 1736.89 482.563 C 1726.85 467.194 1721.09 459.967 1708.72 446.377 C 1700.26 456.301 1686.37 464.227 1682.64 443.187 C 1681.51 436.825 1688.84 431.032 1694.29 427.94 C 1684.47 414.597 1669.66 397.997 1657.72 386.238 C 1655.01 391.228 1652.77 396.153 1646.97 397.982 C 1643.3 399.16 1639.3 398.749 1635.94 396.848 C 1628.74 392.744 1626.76 382.935 1631.98 376.257 C 1633.66 374.106 1637.39 371.269 1639.57 369.473 C 1630.27 359.409 1608.15 337.279 1597.38 329.349 C 1594.19 333.209 1589.61 339.164 1584.46 338.928 C 1565.71 338.068 1567.64 322.386 1579.08 313.024 C 1571.87 306.558 1558.93 293.717 1550.53 290.552 L 1548.04 290.752 C 1544.94 294.944 1536.82 307.63 1531.55 306.798 C 1510.74 303.515 1524.53 286.048 1529.57 278.823 C 1522.12 268.758 1505.4 257.684 1494.2 252.422 C 1491.61 259.593 1490.1 266.441 1482.64 269.95 C 1476.53 272.82 1470.4 269.891 1469.29 263.144 C 1467.83 254.345 1473.57 247.867 1479.19 242.135 C 1467.7 234.289 1455.82 226.994 1444.03 219.617 C 1432.01 239.632 1410.35 227.468 1420.86 206.746 C 1413.3 203.992 1403.93 200.925 1397.01 197.108 C 1386.48 220.853 1370.23 208.689 1376.88 186.968 C 1362.9 180.371 1351.48 175.481 1336.7 170.409 C 1335.03 178.061 1334.41 185.229 1327.41 189.937 C 1321.85 193.674 1315.01 192.668 1312.17 186.307 C 1308.22 177.46 1313.26 170.09 1317.64 162.897 C 1303.23 157.122 1286.74 152.448 1271.77 147.942 C 1269.84 157.614 1261.58 177.738 1247.29 162.578 C 1243.04 158.059 1247.83 147.003 1250.38 141.586 C 1235 137.134 1216.14 133.94 1200.13 130.552 C 1199.16 136.82 1197.6 149.657 1191.55 151.857 C 1173.79 158.313 1178.23 133.326 1179.95 126.544 C 1163.65 123.97 1147.31 121.741 1130.92 119.859 C 1130.05 128.548 1127.5 137.969 1118.03 140.836 C 1107.19 139.033 1108.63 119.38 1107.01 118.982 C 1095.09 116.065 1071.52 115.606 1059.05 114.94 C 1057.54 121.542 1056.63 125.653 1051.4 130.114 C 1042.23 131.881 1041.36 119.291 1034.82 115.012 L 1033.22 115.593 C 1032.11 120.678 1031.84 129.064 1027.49 131.796 C 1022.69 134.81 1015.43 132.206 1013.1 127.337 C 1008.5 117.69 1012.97 114.158 1000.09 115.43 z M 1014.79 261.311 C 1020.93 265.277 1031.61 264.695 1038.62 263.137 C 1033.5 259.775 1021.01 260.745 1014.79 261.311 z M 1013.39 285.257 C 1006.42 286.537 1002.47 287.345 995.708 289.418 C 1012.3 291.248 1025.55 292.541 1042.24 290.802 L 1057.97 289.345 C 1044.19 286.185 1027.6 283.209 1013.39 285.257 z M 1019.86 310.384 C 1006.81 312.04 993.875 314.432 981.102 317.547 C 996.154 320.066 1017.69 323.968 1032.34 322.599 C 1045.47 321.136 1060.52 319.142 1073.55 318.54 C 1060.86 314.927 1032.46 308.604 1019.86 310.384 z M 1014.97 339.346 C 997.043 342.139 978.402 345.109 960.777 349.433 C 980.65 350.935 1018.04 355.276 1036.25 353.621 C 1052.74 352.459 1074.29 351.264 1090.57 348.727 C 1070.67 343.242 1035.18 336.728 1014.97 339.346 z M 1012.67 367.379 C 995.305 369.444 961.567 374.55 944.924 379.475 C 970.485 380.684 1017.83 386.827 1040.24 384.641 C 1058.09 383.319 1089.78 381.769 1106.49 378.392 C 1088.06 372.321 1031.03 364.57 1012.67 367.379 z M 1016.08 395.408 C 986.619 398.112 961.701 401.075 932.944 407.348 C 960.412 410.034 1013.8 416.671 1038.96 414.898 C 1064.97 410.597 1097 411.028 1120.47 406.564 C 1096.86 401.944 1039.54 393.199 1016.08 395.408 z M 1005.33 423.5 C 972.92 425.938 950.532 431.013 919.366 435.148 C 959.209 439.201 1007.23 446.071 1046.24 442.841 C 1074.3 440.8 1101.67 437.197 1129.74 435.475 C 1101.13 427.362 1034.74 420.474 1005.33 423.5 z M 1020.13 447.45 C 977.454 449.885 943.449 452.315 902.445 463.74 C 927.18 466.329 963.437 470.337 987.729 471.504 C 981.854 473.346 974.973 473.234 968.702 473.863 C 940.183 476.722 913.9 482.067 886.512 490.612 C 907.614 491.176 937.264 493.425 957.856 497.002 C 931.513 499.258 891.827 502.852 868.67 514.509 C 881.439 515.346 907.138 517.372 918.989 519.901 L 917.752 519.778 L 917.209 520.312 C 895.734 522.026 881.511 525.922 860.587 529.906 C 842.21 562.244 825.155 594.877 807.026 627 C 794.348 649.238 781.993 671.659 769.965 694.255 C 764.584 704.311 756.22 719.324 751.761 729.329 C 765.414 735.876 776.154 739.808 790.383 745.068 C 775.286 744.092 758.882 741.326 744.199 740.693 L 738.868 750.528 C 760.277 758.313 782.628 763.212 805.33 765.095 C 783.247 768.591 766.788 770.705 744.486 772.299 C 785.068 790.047 798.87 784.064 836.438 791.791 C 815.189 794.243 794.865 800.037 774.057 802.035 C 799.436 808.044 826.224 810.123 852.1 813.543 C 862.128 814.869 872.379 815.044 882.285 817.077 C 851.097 818.819 832.11 823.042 801.995 827.15 C 845.507 831.774 888.936 837.143 932.264 843.254 C 901.887 846.998 869.399 846.524 839.194 851.311 C 850.592 853.451 863.286 854.525 874.894 855.368 C 905.808 857.613 937.61 860.693 968.577 861.102 C 1047.69 863.57 1126.87 860.164 1205.48 850.914 C 1180.94 847.675 1136.56 843.911 1111.56 842.868 C 1120.02 840.872 1128.23 840.181 1136.83 839.086 C 1171.08 834.721 1205.75 831.796 1239.93 826.964 C 1216.33 824.085 1189.29 818.085 1167.58 815.867 C 1192.78 812.464 1247.13 807.791 1269.03 800.915 L 1213.33 790.57 C 1226.15 787.632 1241.3 787.151 1254.7 784.554 C 1268.64 781.855 1283.2 777.231 1296.9 774.878 C 1277.58 771.777 1259.2 769.61 1239.97 765.74 C 1261.55 764.797 1284.85 758.543 1306.18 753.801 C 1301.06 751.801 1294.36 749.365 1289.48 747.105 C 1294.9 744.898 1299.51 743.197 1304.6 740.23 C 1290.58 710.281 1267.18 670.758 1250.75 640.778 C 1233.59 609.445 1208.14 557.989 1188.72 529.829 C 1171.12 524.881 1148.97 521.469 1130.56 520.183 C 1143.99 518.946 1163.85 517.46 1176.92 514.47 C 1149.35 500.472 1121.54 498.863 1091.21 497.2 C 1114.62 493.216 1135.27 491.998 1157.86 488.653 C 1135.35 480.192 1081.4 473.984 1056.72 470.925 C 1085.25 468.876 1120.17 466.987 1148.29 463.264 C 1108.38 454.414 1060.92 447.248 1020.13 447.45 z M 685.678 900.45 C 671.082 901.053 659.218 901.752 644.804 905.186 C 660.624 908.827 692.827 913.898 709.221 914.785 C 688.486 918.686 649.449 925.961 629.864 932.338 C 655.46 936.459 679.882 935.872 707.106 940.813 C 691.082 942.884 672.802 946.745 656.84 949.993 C 643.767 952.653 626.218 955.776 613.676 959.273 C 639.081 960.879 671.125 962.966 696.166 966.736 C 665.174 974.39 631.726 977.603 600.443 985.67 C 633.727 986.76 656.726 990.16 689.346 992.861 C 657.583 998.3 615.556 1005.21 584.842 1012.65 C 617.269 1013.62 643.33 1014.92 675.781 1017.07 C 655.817 1022.4 640.809 1025.93 620.337 1029.14 C 603.679 1031.75 582.575 1034.14 566.992 1039.35 C 603.652 1041.42 627.14 1038.91 666.065 1045.46 C 642.945 1049.27 619.883 1053.43 596.89 1057.94 C 581.84 1060.77 566.848 1062.89 552.197 1067.21 C 587.091 1070.15 608.456 1066.84 646.887 1073.1 C 628.754 1075.66 606.686 1081.21 588.411 1085.06 C 573.825 1088.14 551.852 1091.74 538.1 1095.84 C 566.984 1095.87 604.008 1096.05 632.723 1100.26 C 597.258 1108.76 561.794 1115.35 527.208 1123.69 C 539.459 1123.88 551.707 1124.24 563.949 1124.76 C 584.169 1125.17 602.808 1125.81 622.903 1128.94 C 611.242 1130.1 600.142 1132.62 588.82 1135.51 C 563.936 1141.85 538.006 1145.38 513.152 1151.54 C 545.155 1151.69 574.197 1153.98 604.986 1154.47 C 571.276 1162.53 532.19 1170.81 499.264 1180.81 C 527.617 1181.28 552.3 1181.39 580.713 1183.2 C 572.586 1187.26 500.424 1206.13 490.313 1207.41 C 518.45 1208.69 551.784 1207.92 580.281 1208.01 L 715.249 1208.83 C 723.12 1187.31 734.23 1158.82 740.519 1137.23 C 700.777 1137.16 660.413 1137.6 620.734 1137.11 L 646.241 1082.16 C 651.218 1071.36 660.298 1053.31 662.569 1042.59 C 700.718 1045.34 745.41 1043.31 784.194 1043.73 C 792.708 1025.4 799.478 1006.54 807.775 988.276 C 771.86 987.634 735.917 988.272 700.022 987.991 C 704.905 982.84 708.649 976.792 712.226 970.69 C 725.582 947.912 737.475 924.284 751.757 902.052 C 731.437 901.192 705.631 899.632 685.678 900.45 z M 772.103 903.202 C 761.07 924.696 744.99 950.584 735.288 971.06 C 754.103 972.479 777.159 971.971 796.346 971.974 L 891.5 971.945 L 912.181 971.91 C 916.957 949.62 921.988 927.386 927.274 905.211 C 900.91 905.168 874.546 904.976 848.184 904.634 C 823.144 904.149 796.999 903.049 772.103 903.202 z M 1296.94 904.173 C 1302.01 916.324 1329.38 978.265 1329.72 986.657 C 1326.29 989.896 1315.14 989.49 1310.29 989.407 C 1287.23 989.012 1264.16 989.754 1241.1 989.667 C 1247.6 1006.17 1256.45 1026.91 1261.92 1043.41 C 1295.33 1043.13 1346.49 1041.82 1379.03 1043.79 C 1386.57 1060.92 1417.2 1123.1 1417.72 1135.78 C 1416.68 1138.03 1417.45 1137.47 1415.29 1138.27 C 1405.87 1141.79 1325.78 1139.5 1309.9 1139.43 L 1335.19 1207.93 L 1470.93 1209.1 C 1477.55 1209.11 1512.87 1209.43 1517.55 1208.32 C 1510.19 1205.69 1482.18 1204.58 1473.05 1203.52 L 1472.77 1202.78 C 1486.7 1200.45 1540.23 1201.77 1554.32 1203.63 C 1546.83 1200.06 1536.41 1197.63 1528.21 1195.54 C 1512.38 1191.47 1496.5 1187.6 1480.57 1183.92 C 1471.53 1181.84 1457.92 1179.16 1449.62 1176.21 C 1481.7 1175.36 1512.5 1178.38 1543.59 1177.88 C 1504.3 1164.47 1472.52 1161.47 1435.73 1150.91 C 1456.1 1150.14 1475.84 1150.72 1496.2 1150.87 C 1504.81 1150.94 1518.04 1151.53 1526.39 1150.77 C 1500.25 1141.38 1447.86 1132.03 1419.75 1126.25 C 1443.18 1122.87 1463.21 1124.66 1486.72 1125.44 C 1491.61 1125.6 1506.01 1127.1 1509.36 1126.69 L 1509.78 1125.22 C 1505.37 1122.22 1444.63 1108.51 1435.6 1106.32 C 1425.84 1103.8 1415.21 1101.45 1405.65 1098.86 C 1436.02 1096.51 1471.27 1101.53 1500.99 1101.03 C 1465.67 1087.88 1425.22 1085.88 1393 1073.98 C 1412.53 1074.58 1432.14 1074.89 1451.67 1074.67 C 1458.73 1074.59 1479.25 1075.91 1484.61 1075.01 C 1481.39 1070.94 1463.78 1068.12 1458.43 1067.22 C 1433.24 1062.97 1409.37 1055.27 1384.64 1049.1 C 1395.65 1047.81 1409.25 1049.56 1420.54 1049.66 C 1437.66 1049.82 1454.68 1050.43 1471.76 1051.58 L 1471.75 1050.34 C 1462.7 1043.98 1386.04 1029.2 1367.73 1023.98 C 1396.68 1022.89 1436.94 1027.73 1463.68 1025.76 C 1451.28 1020.99 1438.53 1019.55 1426.37 1015.59 C 1404.18 1008.35 1376.88 1005.32 1355.36 998.343 L 1356.94 998.276 C 1367.99 997.866 1443.18 1003.83 1446.55 1001.58 C 1438.98 993.393 1365.2 979.684 1348.33 974.392 C 1363.08 973.881 1423.14 978.866 1431.87 976.497 L 1432.23 975.244 C 1423.09 968.877 1354.64 953.561 1340.77 950.12 L 1342.52 950.067 C 1362.47 949.558 1385.44 952.765 1405.65 952.989 C 1410.01 953.037 1416.03 954.613 1419.76 953.726 C 1419.64 951.658 1417.74 948.829 1416.88 948.505 C 1395.2 940.349 1357.96 933.508 1337.31 925.888 C 1345.76 926.163 1404.33 931.07 1407.18 929.808 C 1406.99 927.724 1405.2 924.374 1403.98 923.854 C 1389 917.475 1359.91 910.251 1345.05 906.55 C 1355.55 906.564 1366.03 906.601 1376.53 906.696 C 1381.3 906.739 1388.07 907.576 1392.48 907.071 L 1392.28 905.969 C 1385.22 903.023 1308.8 903.764 1296.94 904.173 z M 947.529 905.075 C 943.497 927.225 937.652 950.288 934.001 972.006 L 1106.25 972.051 L 1118.68 971.977 C 1114.96 949.446 1108.61 927.423 1104.45 905.196 C 1052.56 904.803 999.387 904.578 947.529 905.075 z M 1122.35 905.03 C 1127.36 927.404 1133.29 949.585 1137.64 972.087 C 1193.16 972.061 1250.69 972.794 1306.06 971.808 C 1296.3 949.597 1286.69 927.319 1277.23 904.975 L 1122.35 905.03 z M 826.712 988.445 C 820.903 1005.68 812.13 1027.16 804.922 1044.15 C 866.763 1044.6 928.607 1044.66 990.449 1044.32 L 1012.96 1044.05 L 1012.94 988.924 C 950.353 987.676 888.82 989.144 826.712 988.445 z M 1033.27 988.956 L 1032.91 1044.19 C 1102.21 1045.43 1171.52 1045.37 1240.81 1044 C 1241.45 1038.39 1223.49 997.285 1220.23 988.899 L 1033.27 988.956 z M 679.046 1060.07 L 652.177 1119.16 L 890.906 1121.3 L 902.816 1121.26 C 907.686 1101.03 913.015 1080.89 917.785 1060.68 C 838.205 1060.89 758.624 1060.69 679.046 1060.07 z M 939.444 1060.48 L 923.826 1121.64 C 987.047 1122.42 1050.27 1122.61 1113.5 1122.22 L 1129.38 1122.12 C 1125.53 1101.6 1121.48 1081.13 1117.24 1060.69 L 939.444 1060.48 z M 1221.71 1060.51 C 1193.41 1060.63 1164.62 1060.46 1136.37 1060.87 C 1139.74 1081.27 1144.53 1101.54 1147.98 1122.26 L 1310.25 1122.26 C 1337.57 1122.07 1366.17 1122.26 1393.37 1121.36 C 1384.93 1100.33 1374.53 1080.66 1366.36 1060.42 C 1318.14 1060.2 1269.92 1060.23 1221.71 1060.51 z M 763.275 1138.01 C 753.862 1161.12 745.602 1185.11 736.97 1208.56 C 818.821 1209.38 903.809 1208.92 985.75 1208.33 L 1013.92 1208.36 L 1013.12 1139 L 763.275 1138.01 z M 1033.98 1138.95 C 1033.94 1161.85 1034.14 1185.26 1033.81 1208.13 L 1314.55 1208.02 C 1307.27 1187.4 1297.88 1158.35 1289.09 1138.81 C 1204.55 1138.9 1118.38 1138.04 1033.98 1138.95 z M 841.447 1288.46 C 627.503 1295.66 414.21 1316.09 202.791 1349.64 C 170.745 1354.78 141.775 1362.46 111.781 1367.57 C 128.593 1368.37 148.757 1364.86 165.919 1363.55 C 187.695 1362.1 209.483 1360.82 231.279 1359.72 C 255.395 1358.45 283.638 1356.89 307.761 1358.42 C 246.608 1371.64 157.552 1384.11 101.234 1407.72 C 164.297 1403.38 237.617 1391.38 300.342 1394.19 C 252.194 1408.03 199.226 1414.57 150.774 1428.96 C 136.293 1433.27 119.372 1437.58 106.373 1445.26 C 168.908 1442.4 236.901 1427.88 300.227 1430.26 C 251.295 1444.36 203.261 1452.01 154.908 1466.92 C 142.303 1470.81 123.355 1476.11 112.084 1482.31 C 174.975 1476.6 241.862 1465.7 304.887 1465.18 C 279.654 1474.48 242.093 1483.02 215.522 1490.19 C 185.336 1498.65 155.424 1508.05 125.833 1518.4 C 166.64 1512.8 207.549 1507.96 248.538 1503.9 C 267.866 1502.1 290.123 1499.77 309.404 1500.13 C 273.941 1512.18 239.086 1521.98 203.422 1533.22 C 182.4 1539.85 159.884 1550.05 139.445 1556.15 C 148.13 1555.71 159.46 1553.49 168.156 1551.6 C 214.281 1541.58 260.177 1539.96 306.816 1535.79 C 294.334 1542.6 235.724 1558.77 219.012 1564.01 C 190.11 1573.07 163.544 1584.02 135.403 1593.85 C 191.153 1584.89 247.248 1578.22 303.545 1573.86 C 246.6 1595.71 186.433 1605.72 127.266 1630.41 C 186.479 1624.4 245.039 1614.8 304.434 1612.15 C 265.263 1628.3 213.209 1637.89 172.059 1650.38 C 155.082 1655.53 131.775 1661.5 115.996 1669.03 C 176.516 1663.08 241.67 1651.76 301.18 1649.87 C 283.032 1658.37 255.764 1664.14 236.279 1669.74 C 195.365 1681.49 146.874 1691.78 107.35 1706.59 C 165.305 1702.89 223.379 1691.35 281.173 1685.88 C 290.73 1684.97 300.742 1684.94 310.338 1685.03 C 259.667 1701.92 206.452 1713.6 155.193 1728.63 C 139.102 1733.35 116.476 1738.82 101.232 1744.62 C 123.092 1742.73 147.678 1739.01 169.526 1735.99 L 295.509 1718.28 C 442.77 1697.31 590.519 1679.94 738.627 1666.17 C 852.516 1655.97 968.332 1646.03 1082.79 1653.44 C 1102.41 1654.71 1121.98 1656.51 1141.55 1658.4 C 1257.04 1668.62 1371.26 1683.33 1486.39 1696.35 C 1568.32 1705.61 1651.75 1709.34 1733.98 1718.23 C 1779.64 1723.42 1825.27 1728.93 1870.85 1734.78 C 1893.48 1737.73 1922.15 1742.46 1944.24 1744.18 L 1942.93 1743.57 C 1931.72 1738.39 1907.06 1731.88 1894.55 1728.3 C 1868.49 1720.7 1842.3 1713.53 1816.01 1706.8 C 1806.7 1704.42 1751.55 1691.62 1747.76 1687.02 C 1754.12 1682.93 1796.88 1689.4 1806.43 1690.52 L 1900.53 1701.16 C 1912.83 1702.46 1928.8 1704.78 1940.75 1705.44 C 1913.33 1696.38 1885.6 1688.26 1857.62 1681.1 C 1838.54 1676.2 1756.19 1657.89 1743.01 1650.04 C 1742.76 1649.9 1742.51 1649.76 1742.26 1649.62 C 1759.88 1647.81 1803.28 1653.54 1821.95 1655.68 C 1859.02 1659.9 1896.12 1663.87 1933.24 1667.57 C 1907.97 1655.38 1753.37 1619.05 1747.88 1612.12 C 1750.71 1609.11 1762.05 1611.28 1766.34 1611.87 C 1819.08 1619.1 1872.68 1622.62 1925.37 1629.87 C 1906.31 1622.5 1877.28 1614.54 1859.17 1608.03 C 1845.94 1603.28 1749.66 1579.08 1746.25 1575.24 C 1750.54 1570.95 1782.51 1576.71 1789.84 1577.45 C 1831.86 1581.85 1873.85 1586.66 1915.78 1591.87 C 1899.79 1586.22 1883.7 1580.81 1867.54 1575.64 C 1853.94 1571.36 1755.08 1542.38 1751.44 1539.47 C 1758.53 1534.64 1889.07 1550.2 1906.25 1553.45 C 1908.02 1553.78 1909.78 1554.13 1911.54 1554.51 C 1869.74 1538.01 1826.96 1524.11 1783.44 1512.89 C 1778.53 1511.64 1753.94 1505.87 1751.55 1502.9 C 1754.72 1499.12 1776.2 1502.3 1781.49 1503.04 C 1827 1509.4 1875 1510.62 1920.23 1517.85 C 1896.46 1504.84 1755.2 1468.47 1753.52 1466.55 L 1754.04 1465.32 C 1762.57 1462.76 1792.29 1467.71 1802.5 1468.8 C 1832.82 1472.17 1863.19 1475.12 1893.59 1477.66 C 1905.8 1478.74 1924.76 1481.08 1936.5 1481.27 C 1879.07 1457.86 1812.56 1450.71 1757.24 1431.04 C 1774.63 1427.77 1819.44 1434.09 1838.25 1436.04 C 1862.95 1438.53 1887.67 1440.82 1912.4 1442.92 C 1916.56 1443.29 1934.62 1445.39 1937.51 1444.31 L 1937.37 1442.78 C 1929.53 1437.99 1913.49 1434.48 1904.28 1431.64 C 1873.97 1422.26 1842.55 1416.64 1811.73 1409.44 C 1795.17 1405.57 1769.36 1401.21 1754.32 1394.81 C 1777.59 1392.86 1807.83 1396.39 1831.33 1398.27 C 1869.44 1401.31 1909.25 1405.83 1947.41 1407.05 C 1904.42 1391.67 1860.67 1383.97 1816.2 1374.08 C 1798.22 1370.08 1774.12 1366.19 1756.82 1360.42 C 1815.98 1359.03 1881.45 1368.38 1939.8 1367.02 C 1872.82 1351.81 1779.33 1343.77 1710.35 1338.67 C 1591.37 1329.87 1470.79 1325.55 1351.65 1317.91 C 1269.6 1312.45 1187.6 1306.31 1105.65 1299.5 C 1017.18 1292.54 930.434 1285.83 841.447 1288.46 z M 53.7474 1378.47 C 51.9635 1380.25 51.1825 1380.24 51.5179 1382.11 C 54.4936 1398.69 59.5181 1416.63 62.4476 1433.17 C 66.6178 1456.71 67.9449 1480.22 68.9584 1503.88 C 70.7154 1540.94 69.9737 1578.07 66.7382 1615.03 C 61.5202 1670.16 49.6297 1731.92 42.1025 1787.47 L 52.698 1790.16 C 54.6105 1786.98 58.0785 1750.56 59.3307 1743.58 C 78.7267 1635.44 95.1239 1526.03 69.1558 1417.27 C 67.1863 1409.02 60.796 1383.29 53.7474 1378.47 z M 1994.66 1379.28 C 1985.77 1402.28 1978.08 1426.65 1974.71 1451.21 C 1966.12 1513.87 1966.55 1578.8 1974.07 1641.49 C 1979.93 1690.29 1989.93 1738.61 1992.38 1787.53 C 1993.02 1788.43 1993.19 1788.93 1994.03 1789.44 C 1998.61 1789 1999.3 1789.69 2002.48 1787.42 C 2003.05 1781.48 2002.46 1775.41 2002.04 1769.46 C 1999.39 1732.17 1992.92 1695.17 1988.19 1658.11 C 1981.65 1607.62 1979.62 1556.66 1982.11 1505.81 C 1983.82 1471.63 1986.29 1438.66 1994.23 1405.37 C 1995.67 1399.34 2000.15 1387.09 1998.02 1381.52 C 1996.5 1380.32 1996.38 1379.97 1994.66 1379.28 z M 916.186 1711.09 C 919.07 1720.31 921.908 1729.71 924.916 1738.88 C 928.176 1735.41 933.329 1730.24 936.128 1726.62 C 940.37 1721.61 945.152 1716.17 949.079 1710.98 L 916.186 1711.09 z M 976.734 1711.03 C 981.612 1722.88 986.975 1734.24 992.375 1745.86 L 1001.23 1733.09 C 1005.5 1726.52 1010.23 1719.53 1014.2 1712.84 C 1001.71 1712.34 989.218 1711.73 976.734 1711.03 z M 872.275 1712.51 C 865.76 1712.9 859.238 1713.15 852.713 1713.28 C 853.206 1718.67 853.622 1723.74 854.502 1729.09 C 860.59 1723.98 866.573 1718.73 872.45 1713.37 L 872.275 1712.51 z M 894.888 1711.95 C 881.693 1722.73 867.431 1736.68 854.722 1746.6 C 855.439 1768.31 857.592 1793.45 859.553 1815.22 L 866.491 1806.8 C 881.816 1787.67 897.466 1768.81 913.432 1750.21 C 910.69 1741.67 904.283 1717.97 899.577 1712.65 C 897.309 1712.04 897.22 1712 894.888 1711.95 z M 1038.67 1712.74 C 1046.08 1722.86 1053.24 1733.17 1060.13 1743.65 L 1063.95 1735.19 L 1073.51 1713.79 L 1038.67 1712.74 z M 835.961 1714.41 C 799.697 1717.33 800.671 1719.86 771.204 1743.61 C 773.596 1761.75 774.289 1780.61 776.856 1798.34 C 797.7 1781.23 820.363 1759.04 840.258 1740.42 C 839.739 1733.81 839.139 1721.2 837.506 1715.28 L 835.961 1714.41 z M 1088.01 1714.51 C 1081.97 1728.79 1075.61 1742.92 1068.93 1756.91 C 1080.79 1774.73 1092.88 1792.39 1105.19 1809.9 C 1112.22 1793.15 1118.89 1773.94 1124.66 1756.66 C 1112.73 1742.23 1100.15 1728.68 1088.01 1714.51 z M 963.411 1715.9 C 953.459 1726.66 938.95 1741.8 930.211 1753.51 C 933.061 1762.41 946.024 1803.72 949.471 1809.24 C 960.319 1792.32 972.433 1774.64 982.579 1757.53 C 976.577 1744.3 969.931 1728.68 963.411 1715.9 z M 1107.32 1715.72 C 1115.08 1724.14 1121.72 1732.54 1128.87 1741.45 L 1129.82 1741.41 C 1130.71 1739.55 1131.38 1738.19 1132.15 1736.27 L 1138.6 1716.75 C 1128.21 1715.74 1117.76 1715.4 1107.32 1715.72 z M 777.684 1718.05 C 772.851 1718.81 773.994 1717.95 770.71 1720.73 C 770.008 1722.97 770.046 1721.78 771.381 1724.36 L 772.751 1725.11 C 775.584 1723.11 778.828 1721.53 780.098 1718.77 L 777.684 1718.05 z M 1177.3 1717.9 C 1180.41 1721.18 1196.39 1739.03 1199.32 1739.31 C 1199.48 1732.39 1199.72 1725.48 1200.03 1718.57 C 1192.28 1718.2 1185.06 1717.92 1177.3 1717.9 z M 1154.02 1718.37 C 1149.31 1730.32 1144.68 1742.3 1140.11 1754.31 C 1157.33 1771.74 1173.75 1789.72 1191.01 1806.97 L 1196.96 1813.75 C 1197.01 1795.31 1196.78 1775.97 1197.57 1757.62 C 1190.04 1750.5 1160.48 1721.9 1154.02 1718.37 z M 1213.91 1719.37 C 1212.62 1728.26 1212.12 1740.16 1211.7 1749.33 L 1267.05 1806.72 C 1268.72 1803.85 1268.03 1750.95 1267.49 1744.21 C 1259.54 1736.15 1250.92 1728.6 1242.5 1721.01 C 1232.51 1719.93 1223.91 1719.67 1213.91 1719.37 z M 746.728 1720.61 C 731.539 1722.19 714.944 1724.09 699.698 1724.33 C 694.437 1735.49 670.332 1791.25 664.171 1794.18 C 657.827 1787.31 667.444 1765.35 669.464 1756.78 C 671.215 1749.36 682.76 1733.45 683.409 1726.66 C 672.089 1724.4 595.883 1781.7 582.162 1781.52 C 579.535 1781.49 579.447 1781.1 578.103 1779.1 C 577.145 1770.15 587.405 1765.79 594.015 1761.91 C 612.519 1751.05 630.689 1739.28 649.233 1728.53 C 620.299 1731.32 591.253 1734.72 562.285 1737.69 C 542.073 1739.76 509.614 1740.75 490.645 1744.25 C 494.575 1756.31 491.3 1758.88 482.835 1767.33 C 494.112 1776.06 513.124 1789.76 525.687 1796.12 C 529.236 1789.66 531.608 1784.31 539.273 1782.33 C 547.565 1780.2 551.778 1786.42 551.269 1793.79 C 550.92 1798.82 546.968 1803.65 544.272 1807.7 C 558.65 1816.03 572.082 1823.41 587.301 1830.21 C 590.224 1824.92 595.309 1815.44 601.493 1815.16 C 620.661 1814.33 612.312 1832.44 606.815 1839.82 C 622.344 1847.4 639.689 1855.32 656.112 1860.81 C 658.921 1853.1 660.801 1845.28 669.031 1841.7 C 674.778 1839.2 680.642 1841.9 682.159 1847.99 C 684.38 1856.9 679.742 1862.54 674.559 1869.04 L 724.317 1886.42 C 725.823 1878.86 726.856 1870.82 733.875 1866.23 C 738.889 1862.94 745.54 1863.73 747.936 1869.88 C 751.087 1877.97 746.597 1885.86 742.655 1892.7 C 759.583 1897.32 776.597 1901.62 793.688 1905.6 C 794.666 1897 794.524 1889.35 801.597 1883.31 C 806.954 1878.74 813.152 1880.63 815.836 1886.78 C 819.284 1894.68 815.981 1902.46 812.998 1909.91 C 829.44 1913.77 848.264 1917.1 865.033 1919.74 C 865.223 1911.45 864.888 1903.2 871.5 1897.11 C 876.635 1892.38 883.343 1893.75 886.53 1899.83 C 890.565 1907.52 887.65 1915.15 885.456 1922.86 C 902.922 1926.02 920.378 1927.68 938.039 1929.32 C 936.849 1920.8 934.655 1902.81 948.518 1902.76 C 951.311 1902.76 953.967 1903.97 955.811 1906.07 C 961.81 1912.78 958.426 1922.86 955.394 1930.09 C 972.973 1931.49 991.21 1932.07 1008.88 1932.83 C 1007.91 1926.24 1006.53 1920.22 1010.64 1914.28 C 1014.71 1908.41 1021.15 1907.38 1026.05 1913.13 C 1031.37 1919.38 1029.51 1925.84 1028.58 1933.28 C 1043.87 1932.92 1059.73 1932.23 1074.94 1932.1 C 1073.67 1925.54 1071.58 1919.64 1075.4 1913.43 C 1081.47 1903.58 1092.76 1907.92 1094.67 1917.86 C 1095.31 1921.2 1094.02 1927.41 1093.53 1930.95 C 1111.18 1929.59 1128.79 1927.89 1146.37 1925.83 C 1144.23 1919.09 1141.18 1911.81 1144.78 1905.15 C 1151.03 1893.61 1164.1 1900.88 1165.62 1911.23 C 1166.24 1915.42 1165.96 1919.43 1165.81 1923.58 C 1183.41 1921.31 1200.24 1916.7 1217.17 1914.48 C 1213.8 1907.13 1209.73 1900.51 1212.91 1892.27 C 1215.2 1886.33 1221.5 1884.2 1226.85 1887.5 C 1235.32 1892.72 1235.53 1901.87 1236.18 1910.6 C 1251.69 1906.67 1271.08 1902.23 1285.97 1897.3 C 1281.71 1890.45 1277.66 1885.25 1279.83 1876.7 C 1281.32 1870.82 1286.81 1867.36 1292.56 1870.2 C 1301.25 1874.49 1302.39 1883.6 1304.12 1892 C 1320.31 1886.85 1336.41 1881.4 1352.4 1875.65 C 1348.61 1868.45 1339.62 1844.74 1360 1848.84 C 1366.48 1850.14 1369.79 1862.61 1371.69 1868.82 C 1386.39 1862.51 1402.99 1855.75 1417.27 1848.88 C 1414.43 1845.35 1411.06 1841.49 1408.82 1837.62 C 1414.45 1811.93 1430.4 1819.31 1436.2 1840.77 L 1476.55 1819.2 C 1473.6 1813.42 1465.35 1800.73 1469.26 1795.49 C 1480.45 1780.49 1492.73 1800.3 1496 1807.13 C 1506 1801.25 1518.91 1794.04 1527.96 1787.07 C 1509.62 1752.65 1541.81 1756.02 1554.21 1775.84 C 1561.25 1769.67 1574.91 1760.97 1577.66 1754.03 C 1577.27 1750.49 1578.05 1751.87 1576.06 1749.41 C 1567.56 1747.31 1557.76 1747.2 1549.01 1746.73 C 1519.62 1745.15 1490.35 1745.11 1461.09 1741.53 L 1459.77 1742.48 C 1463.36 1749.47 1465.49 1752.48 1464.98 1760.43 L 1463.7 1762.56 C 1453.2 1763.96 1446 1747.4 1442.48 1739.41 C 1423.95 1737.68 1402.01 1736.16 1383.85 1733.43 C 1393.96 1740.69 1430.34 1759.01 1426.16 1770.39 C 1415.03 1778.08 1374.49 1742.92 1362.8 1735.14 C 1363.22 1748.38 1365.61 1760.68 1367.39 1773.71 C 1368.71 1783.33 1372.02 1790.95 1361.91 1795.84 C 1351.78 1793.64 1349.1 1741.77 1347.35 1730.29 C 1338.19 1729.05 1287.31 1721.99 1280.72 1724.09 C 1274.3 1732.33 1286.86 1744.62 1292.46 1750.18 C 1313.43 1771.01 1334.34 1791.87 1355.9 1812.1 C 1360.14 1816.07 1368.6 1823.17 1365.26 1829.17 C 1362.09 1830.39 1357.48 1830.24 1355.13 1828.51 C 1330.76 1810.61 1303.02 1776.66 1281.13 1757.48 C 1281.1 1767.66 1285.01 1807.9 1279.86 1813.37 C 1277.94 1815.4 1275.14 1815.35 1272.52 1815.51 C 1273.94 1821.14 1283.7 1832.46 1270.6 1834.35 C 1266.52 1833.34 1259.99 1823.78 1257.19 1819.91 C 1243.18 1800.63 1226.71 1784.17 1210.07 1767.15 C 1210.03 1793.5 1206.77 1825.18 1212.31 1850.26 C 1206.67 1845.25 1201.55 1839.81 1196.42 1834.29 C 1176.04 1812.37 1156.11 1789.63 1135.01 1768.41 C 1127.92 1787.29 1120.14 1806.96 1113.39 1825.83 C 1114.67 1829.49 1116.69 1833.84 1116.3 1837.53 C 1112.79 1841.05 1109.44 1840.65 1104.72 1840.58 C 1099.24 1849.88 1094.31 1859.75 1088.39 1868.75 C 1084.66 1874.43 1080.32 1881.89 1072.92 1878.2 C 1071.88 1876.68 1070.07 1874.46 1071.02 1872.54 C 1078.48 1857.52 1090.14 1838.37 1097.95 1823.73 C 1086.52 1806.53 1074.61 1789.54 1063.3 1772.33 C 1055.8 1789.08 1048.66 1806 1041.88 1823.06 C 1037.58 1834 1032.98 1847.99 1027.55 1858.03 C 1014.24 1830.5 1002.7 1801.6 988.742 1773.32 L 956.928 1823.55 C 962.994 1836.75 976.529 1862.81 974.026 1876.59 C 971.493 1879.82 967.279 1879.9 965.292 1876.74 C 957.937 1865.06 953.637 1851.18 947.546 1838.73 C 944.914 1841.59 943.754 1843.46 940.05 1844.58 C 932.412 1843.29 937.651 1829.21 938.995 1824.13 C 932.789 1804.19 924.817 1785.1 918.733 1765.55 C 907.036 1778.88 895.539 1792.39 884.243 1806.07 C 877.491 1814.22 852.011 1846.45 845.647 1850.52 C 840.468 1847.84 844.507 1836.57 847.036 1832.87 C 843.958 1811.65 842.502 1780.62 840.922 1758.54 C 830.189 1769.31 763.132 1831.37 752.377 1835.75 C 749.514 1835.17 750.717 1835.86 748.805 1833.36 C 748.529 1827.28 760.691 1815.91 765.399 1810.64 C 762.406 1790.85 760.846 1772 759.073 1752.06 C 748.569 1760.43 685.443 1810.03 677.645 1810.29 C 674.554 1808.75 675.542 1809.92 674.45 1806.79 C 676.846 1795.58 703.078 1777.8 713.053 1770.24 C 728.111 1759.02 742.949 1747.51 757.559 1735.71 C 757.528 1730.13 758.417 1724.54 755.316 1720.49 C 752.285 1719.43 749.955 1720.14 746.728 1720.61 z M 1026.64 1719.78 C 1018.39 1731.95 1007.87 1748.42 998.995 1759.66 C 1005.62 1776.56 1018.44 1805.47 1027.3 1821.35 C 1035.38 1804.71 1047.63 1775.73 1052.76 1757.84 C 1045.65 1748.16 1032.45 1726.45 1026.64 1719.78 z M 1262.33 1721.74 L 1266.49 1725.12 L 1267.72 1724.54 L 1267.84 1722.59 C 1265.38 1721.53 1265.08 1721.76 1262.33 1721.74 z M 461.701 1748.17 C 463.997 1751.62 463.132 1751.49 466.294 1752.74 L 467.87 1752.54 L 468.536 1748.58 C 466.385 1747.23 464.885 1747.95 461.701 1748.17 z M 362.534 1753.39 C 307.656 1760.21 253.413 1765.17 199.665 1778.45 C 178.574 1783.66 156.988 1787.82 135.806 1792.94 C 153.073 1792.39 175.408 1789.2 192.919 1787.1 C 240.322 1781.41 291.609 1776.29 339.189 1784.15 C 326.928 1787.48 313.472 1787.96 300.876 1789.55 C 254.18 1795.44 207.78 1804.26 161.753 1814.07 C 142.24 1818.24 116.261 1821.84 97.8534 1828.46 C 168.29 1821.74 237.865 1807.49 309.053 1814.31 C 315.897 1814.96 330.902 1815.92 337.079 1817.53 C 330.117 1818.53 324.256 1819.32 317.247 1819.83 C 271.915 1821.99 217.557 1830.73 172.811 1837.52 C 157.391 1839.86 135.213 1842.77 120.519 1845.92 C 179.913 1842.83 253.325 1840.2 311.662 1848.21 C 299.689 1849.87 286.761 1850.71 274.653 1851.41 C 237.355 1853.56 200.432 1858.73 163.357 1863.12 C 158.03 1863.75 152.859 1864.32 147.626 1865.52 C 149.367 1867.14 227.758 1865.46 237.99 1864.86 C 281.937 1862.28 346.1 1865.43 377.219 1901.58 C 376.843 1889.55 369.023 1757.15 367.459 1753.46 C 364.544 1752.52 365.751 1752.68 362.534 1753.39 z M 1681.69 1754.41 C 1677.59 1801.2 1674.68 1851.57 1672.16 1898.62 C 1724.3 1863.85 1749.08 1862.82 1810.5 1863.21 C 1840.06 1863.39 1878.72 1862.62 1908.28 1860.46 L 1836.06 1854.58 C 1797.6 1851.14 1760.61 1847.43 1721.98 1849.52 C 1732.86 1845.24 1741.01 1844.5 1752.64 1843.3 C 1810.22 1837.39 1868.71 1839.61 1926.16 1833.13 C 1905.74 1830.41 1879.32 1829.62 1858.24 1828.12 C 1826.42 1825.73 1794.64 1822.92 1762.89 1819.7 C 1751.11 1818.47 1730.2 1816.77 1719.31 1814.24 C 1727.97 1813.07 1737.31 1812.46 1746.07 1812.19 C 1797.07 1810.62 1848.03 1808.35 1899.03 1806.84 C 1906.44 1806.62 1913.53 1806.2 1920.89 1805.35 C 1871.68 1800.26 1821.84 1796.95 1772.66 1790.64 C 1764.7 1789.62 1733.29 1786.6 1727.35 1783.98 L 1727.65 1782.93 C 1738.69 1778.93 1838.75 1777.46 1859.16 1776.6 C 1836.07 1772.51 1809.4 1771.52 1785.81 1767.93 C 1750.28 1762.52 1717.81 1756.62 1681.69 1754.41 z M 1636.87 1771 C 1576.3 1821.28 1526.47 1851.23 1455.23 1885.02 C 1292.37 1962.81 1111.42 1994.84 931.76 1977.69 C 789.431 1964.51 650.523 1922.34 525.327 1852.43 C 485.774 1830.34 450.806 1805.31 414.473 1778.56 L 415.096 1802.2 C 503.607 1872.86 613.382 1920.96 720.327 1955.31 C 736.245 1960.53 752.312 1965.28 768.508 1969.56 C 787.777 1974.59 812.902 1979.99 830.311 1988.42 C 853.733 1985.88 879.581 1989.01 902.617 1992.36 C 1004.95 2007.2 1105.65 1999.4 1207.57 1986.51 C 1217.29 1985.28 1229.81 1988.83 1238.82 1985.31 L 1240.63 1984.61 C 1248.33 1981.6 1258.09 1975.77 1265.22 1973.56 C 1278.47 1969.45 1292.43 1965.75 1305.81 1961.89 C 1322.04 1957.09 1338.12 1951.81 1354.04 1946.05 C 1439.52 1915.5 1529.97 1874.2 1603.19 1820.56 C 1612.22 1813.95 1628.68 1801.72 1636.6 1794.11 C 1636.77 1789.09 1637.52 1775.29 1636.87 1771 z M 1908.11 1827.45 C 1921.58 1831.93 1938.58 1829.94 1952.56 1828.48 C 1949.95 1825.67 1914.15 1827.04 1908.11 1827.45 z M 1739.75 1893.26 L 1737.8 1895.89 C 1738.45 1899.21 1741.23 1901.62 1743.59 1904.23 C 1745.48 1901 1743.57 1895.02 1739.75 1893.26 z M 1721.72 1898.74 C 1717.36 1901.47 1713.37 1903.86 1709.29 1907.01 C 1730.64 1926.07 1738.5 1932.37 1765.39 1944.68 C 1767.51 1945.72 1771.87 1948.39 1773.65 1948 C 1772.14 1945.23 1765.23 1941.1 1762.15 1937.57 C 1751.7 1925.6 1736.54 1906.01 1721.72 1898.74 z M 1693.96 1918.53 C 1692.24 1921.64 1690.29 1924.14 1690.53 1927.53 C 1693.57 1931.86 1698.2 1944.87 1699.6 1946.01 C 1718.24 1961.25 1751.31 1969.08 1774.61 1973.85 C 1776.14 1974.16 1777.67 1974.46 1779.2 1974.74 L 1780.62 1974.34 C 1777.39 1969.8 1714.26 1937.4 1706.42 1929.91 C 1704.86 1928.42 1695.22 1919.2 1693.96 1918.53 z M 360.709 1925.77 C 353.757 1933.82 340.493 1939.86 330.83 1944.34 C 308.998 1954.45 288.2 1966.18 266.776 1977.08 L 267.391 1977.81 L 270.233 1977.7 C 292.859 1974.47 341.089 1967.26 354.965 1949.02 C 361.24 1940.77 357.83 1937.87 363.905 1932.18 C 363.68 1929.53 362.814 1927.74 360.709 1925.77 z M 1679.33 1950.68 C 1682.98 1967.21 1688.05 1971.9 1701.84 1982.01 C 1715.23 1991.83 1771.15 2003.7 1787.65 2002.82 C 1781.02 1999.14 1761.58 1992.79 1753.29 1989.65 C 1723.06 1978.22 1705.37 1969.89 1679.33 1950.68 z M 368.452 1963.82 C 352.088 1978.87 251.995 2000.87 250.731 2005.99 C 287.522 2001.53 336.621 1999.9 366.646 1972.29 C 368.774 1970.34 369.574 1967.68 369.46 1964.87 L 368.452 1963.82 z" fill="rgb(239,235,228)" transform="translate(0,0)"></path>
<path d="M 935.786 240.761 L 932.551 241.007 C 924.292 235.905 925.067 191.579 923.322 180.57 C 922.422 174.891 924.265 172.327 927.936 168.583 C 931.683 169.628 931.524 169.537 934.632 171.862 C 938.692 178.563 941.598 221.47 941.874 232.011 C 941.981 236.082 938.882 238.002 935.786 240.761 z" fill="rgb(239,235,228)" transform="translate(0,0)"></path>
<path d="M 1115 242.275 C 1111.15 241.122 1107.12 239.714 1106.95 234.878 C 1107.11 226.709 1107.94 216.019 1109.65 208.052 C 1111.93 197.446 1111.63 176.343 1118.58 168.554 C 1122.29 168.818 1122.2 168.88 1125.47 170.172 C 1130.62 177.726 1121.9 219.595 1121.08 230.592 C 1120.69 235.886 1119.19 239.032 1115 242.275 z" fill="rgb(239,235,228)" transform="translate(0,0)"></path>
<path d="M 870.275 265.766 C 867.709 265.896 864.696 266.246 862.421 265.042 C 859.59 263.374 858.231 258.048 857.522 255.002 C 854.084 239.633 850.569 224.206 847.421 208.774 C 845.631 199.999 842.088 189.881 846.761 181.859 C 850.019 181.817 851.243 181.506 854.076 183.137 C 858.954 189.433 868.545 239.167 871.421 250.364 C 872.918 256.191 873.732 260.697 870.275 265.766 z" fill="rgb(239,235,228)" transform="translate(0,0)"></path>
<path d="M 1188.97 261.569 C 1186.95 261.704 1185.16 261.628 1183.14 261.593 C 1181.24 260.475 1179.44 259.652 1179.17 257.014 C 1178.04 245.921 1188.9 197.079 1192.61 188.741 C 1196.98 188.431 1196.83 188.366 1201.03 189.509 C 1202.74 191.067 1204.4 192.099 1204.11 194.823 C 1203.01 205.343 1193.67 255.193 1188.97 261.569 z" fill="rgb(239,235,228)" transform="translate(0,0)"></path>
<path d="M 821.42 368.628 C 818.323 368.665 818.373 368.558 815.369 367.627 C 812.816 365.454 811.727 362.977 810.482 359.923 C 794.627 321.035 781.456 281.015 766.676 241.701 C 762.838 231.494 758.891 221.001 755.971 210.537 C 754.98 206.988 757.223 204.262 759.141 201.538 C 766.717 202.606 767.59 203.867 770.402 211.416 C 788.897 261.067 807.416 310.925 824.87 360.902 C 825.785 363.521 822.938 366.743 821.42 368.628 z" fill="rgb(239,235,228)" transform="translate(0,0)"></path>
<path d="M 1349.05 295.778 C 1345.19 294.573 1344.2 294.367 1341.6 291.205 C 1341.1 289.735 1340.43 287.193 1341.03 285.692 C 1346.43 272.109 1365.43 226.676 1375.84 219.651 C 1379.33 220.874 1383.09 222.368 1383.66 226.545 C 1383.89 228.214 1383.66 229.828 1382.87 231.323 C 1374.92 246.244 1367.34 261.349 1359.96 276.555 C 1356.83 282.96 1353.73 290.544 1349.05 295.778 z" fill="rgb(239,235,228)" transform="translate(0,0)"></path>
<path d="M 707.344 295.463 C 693.062 296.236 676.794 246.403 671.377 234.175 C 670.043 231.162 672.302 227.998 673.866 225.635 C 676.96 225.648 676.901 225.599 679.848 226.478 C 685.869 232.464 707.901 277.446 710.764 287.766 C 711.523 290.502 709.112 293.226 707.344 295.463 z" fill="rgb(239,235,228)" transform="translate(0,0)"></path>
<path d="M 1297.1 541.407 C 1294.33 541.227 1290.82 540.851 1288.6 539.037 C 1287.29 537.968 1286.63 535.61 1286.89 533.968 C 1287.48 530.268 1416.87 327.074 1429.37 308.818 C 1430.9 306.587 1432.69 304.719 1434.79 303.024 C 1438.57 302.707 1438.68 302.507 1442.45 303.608 C 1446.39 307.901 1444.16 310.623 1441.41 315.295 C 1429.67 335.274 1416.92 354.65 1404.53 374.227 L 1343.96 470.311 C 1337.24 480.878 1303.55 535.275 1297.1 541.407 z" fill="rgb(239,235,228)" transform="translate(0,0)"></path>
<path d="M 1300.89 392.477 C 1296.01 391.586 1294.29 391.298 1291.89 386.75 C 1292.36 380.299 1324.71 315.899 1330.08 309.857 C 1334.54 310.222 1334.84 310.022 1337.63 312.641 C 1337.95 313.562 1338.89 316.389 1338.55 317.3 C 1332.86 332.232 1311.5 384.349 1300.89 392.477 z" fill="rgb(239,235,228)" transform="translate(0,0)"></path>
<path d="M 749.079 388.437 C 738.049 386.561 728.194 358.194 722.961 347.984 C 717.902 338.112 707.712 321.484 717.969 313.346 C 718.431 313.56 720.776 314.58 721.101 314.979 C 727.695 323.051 752.951 375.059 753.915 381.311 C 753.189 385.072 751.87 385.785 749.079 388.437 z" fill="rgb(239,235,228)" transform="translate(0,0)"></path>
<path d="M 620.572 451.603 C 618.329 451.9 615.495 452.258 613.358 451.372 C 608.418 449.325 524.738 346.806 522.826 340.545 C 522.885 337.092 523.651 336.583 525.76 333.858 C 528.972 333.805 529.263 333.858 532.43 334.469 C 537.509 338.061 622.211 439.397 624.019 444.325 C 623.949 447.938 622.829 448.746 620.572 451.603 z" fill="rgb(239,235,228)" transform="translate(0,0)"></path>
<path d="M 1430.69 455.209 C 1427 453.671 1421.1 448.647 1424.22 445.338 C 1439.75 428.845 1500.37 340.238 1515.21 333.798 C 1518.86 335.041 1524.31 339.793 1521.45 343.658 C 1494.61 379.809 1466.31 415.26 1438.36 450.609 C 1436.7 452.705 1433.12 454.248 1430.69 455.209 z" fill="rgb(239,235,228)" transform="translate(0,0)"></path>
<path d="M 509.673 477.575 C 508.141 477.461 504.426 477.1 503.427 476.156 C 492.374 465.707 438.823 423.19 436.051 411.599 C 436.261 408.057 437.484 407.207 439.795 404.473 C 441.151 404.703 442.524 404.888 443.816 405.384 C 450.278 407.868 510.956 463.044 512.567 468.431 C 513.539 471.683 511.331 474.976 509.673 477.575 z" fill="rgb(239,235,228)" transform="translate(0,0)"></path>
<path d="M 815.582 519.608 C 809.098 520.064 802.9 516.873 800.248 510.962 C 786.614 480.58 773.69 449.677 760.066 419.245 C 757.826 414.242 759.247 410.929 761.52 406.46 C 763.782 406.621 766.674 406.605 768.592 407.953 C 772.261 410.531 816.71 501.645 818.561 510.137 C 819.424 514.097 817.652 516.485 815.582 519.608 z" fill="rgb(239,235,228)" transform="translate(0,0)"></path>
<path d="M 1244.29 510.248 C 1240.34 508.935 1239.79 508.981 1237.08 506.051 C 1236.6 504.865 1235.57 502.521 1236.13 501.055 C 1246.99 472.88 1262.58 444.462 1275.26 416.792 C 1276.26 414.613 1279.66 411.709 1281.09 410.517 C 1295.51 414.339 1287.23 425.878 1283.06 434.496 C 1271.78 457.87 1261.41 481.714 1249.93 504.984 C 1248.61 507.643 1246.74 508.809 1244.29 510.248 z" fill="rgb(239,235,228)" transform="translate(0,0)"></path>
<path d="M 1546.6 477.159 C 1542.93 477.832 1541.22 477.762 1538.02 475.88 C 1537.44 474.288 1536.57 472.57 1537.38 470.858 C 1542.65 459.755 1588.76 420.176 1598.07 413.913 C 1601.79 413.692 1603.66 413.657 1606.5 416.049 C 1607.11 417.701 1608.01 419.322 1607.1 421.127 C 1601.02 433.137 1555.86 471.365 1546.6 477.159 z" fill="rgb(239,235,228)" transform="translate(0,0)"></path>
<path d="M 1814.93 460.254 L 1814.01 460.07 L 1814.93 460.254 z" fill="rgb(239,235,228)" transform="translate(0,0)"></path>
<path d="M 1347.5 564.525 C 1344.15 563.125 1342.05 561.991 1339.59 559.346 C 1338.33 557.978 1337.11 554.842 1337.94 553.345 C 1345.77 539.115 1397.21 474.611 1405.95 467.85 C 1411.22 469.126 1413.28 469.61 1415.43 474.722 C 1415.34 477.569 1414.07 479.283 1412.38 481.468 C 1395.24 503.665 1376.87 524.935 1360 547.356 C 1355.68 553.103 1352.11 558.972 1347.5 564.525 z" fill="rgb(239,235,228)" transform="translate(0,0)"></path>
<path d="M 562.318 523.852 C 554.141 522.253 522.071 494.53 521.204 486.657 C 521.972 482.962 523.882 481.433 526.408 478.585 C 533.688 482.171 566.429 509.97 566.999 516.924 C 566.084 520.592 564.996 521.211 562.318 523.852 z" fill="rgb(239,235,228)" transform="translate(0,0)"></path>
<path d="M 1485.26 532.887 C 1479.86 532.513 1478.41 531.383 1476.88 526.374 C 1478.65 515.512 1509.48 491.225 1519.28 482.706 C 1524.81 482.515 1526.26 483.299 1528.1 488.142 C 1527.34 497.99 1494.47 524.922 1485.26 532.887 z" fill="rgb(239,235,228)" transform="translate(0,0)"></path>
<path d="M 458.358 552.59 C 444.449 550.455 388.931 507.183 373.713 497.558 C 368.588 494.316 372.045 488.121 375.494 484.567 C 383.848 486.543 453.253 533.493 463.092 543.453 C 464.503 544.882 460.821 549.799 458.358 552.59 z" fill="rgb(239,235,228)" transform="translate(0,0)"></path>
<path d="M 1593.09 551.153 C 1588.42 550.678 1584.6 548.452 1583.16 543.82 C 1585.6 536.944 1648.67 495.044 1659.37 487.981 C 1664.2 488.161 1668.53 489.624 1669.81 494.644 C 1667.77 502.533 1603.34 545.003 1593.09 551.153 z" fill="rgb(239,235,228)" transform="translate(0,0)"></path>
<path d="M 846.535 589.441 C 888.747 543.709 946.125 520.414 1007.48 516.416 C 1017.98 515.845 1028.49 515.777 1038.99 516.213 C 1099.93 519.004 1162.83 542.755 1204.49 588.406 C 1166.22 566.95 1114.95 539.703 1069.62 541.297 C 1080.45 544.574 1092.25 546.891 1103.01 550.54 C 1138.74 562.65 1172.38 579.73 1201.36 604.137 C 1209.9 611.324 1219.3 621.093 1227.5 628.97 C 1217.01 621.412 1206.52 615.938 1195.63 609.405 C 1146.6 579.986 1103.73 567.503 1047.09 562.591 C 1044.01 562.278 1040.93 562.073 1037.84 561.976 C 975.431 559.594 913.683 575.438 860.134 607.573 C 847.149 615.235 836.185 621.328 825.067 631.636 C 863.547 579.192 917.861 560.025 977.377 541.347 C 928.223 544.394 887.844 564.531 846.535 589.441 z" fill="rgb(239,235,228)" transform="translate(0,0)"></path>
<path d="M 673.084 621.647 C 667.696 623.429 664.613 624.055 660.719 619.581 C 636.62 591.887 606.041 569.911 581.881 542.434 C 579.718 539.974 582.942 534.003 584.115 531.693 C 586.206 531.747 589.148 531.944 590.654 533.465 C 601.694 544.617 675.789 607.866 677.171 614.446 C 676.598 617.808 675.222 618.984 673.084 621.647 z" fill="rgb(239,235,228)" transform="translate(0,0)"></path>
<path d="M 1412.88 671.017 C 1407.82 671.005 1404.76 669.496 1403.09 664.538 C 1403.73 661.67 1404.08 660.087 1406.65 658.189 C 1456.31 621.409 1511.56 590.748 1561.6 554.678 C 1567.23 555.07 1570.49 557.238 1572.17 562.643 C 1570.76 566.481 1570.14 566.661 1566.57 569.173 C 1536.74 589.764 1506.03 608.999 1475.81 629.042 C 1455.19 642.715 1433.99 658.369 1412.88 671.017 z" fill="rgb(239,235,228)" transform="translate(0,0)"></path>
<path d="M 1632.99 637.835 C 1629.74 637.706 1626.63 636.859 1624.25 634.55 C 1624.05 633.07 1623.54 631.787 1624.23 630.384 C 1628.97 620.78 1695.72 589.513 1708.6 583.931 C 1712.52 583.71 1713.99 583.679 1717.12 585.835 C 1719.05 589.44 1718.69 587.585 1718.32 591.582 C 1717.26 593.485 1715.98 595.395 1714.02 596.425 C 1687.58 610.303 1659.89 625.164 1632.99 637.835 z" fill="rgb(239,235,228)" transform="translate(0,0)"></path>
<path d="M 422.558 639.114 C 418.734 639.066 413.232 637.533 410.079 635.495 C 399.584 628.71 355.568 612 351.898 601.621 C 352.348 598.066 353.5 597.22 355.792 594.464 C 364.858 594.527 405.289 617.33 416.274 622.042 C 420.546 623.875 425.473 626.27 426.932 630.834 C 426.474 634.613 424.87 636.065 422.558 639.114 z" fill="rgb(239,235,228)" transform="translate(0,0)"></path>
<path d="M 780.37 718.36 L 781.251 717.293 C 834.998 652.94 918.062 602.926 1002.46 595.402 C 1008.5 594.556 1023.17 594.545 1029.44 594.563 C 1100.53 594.757 1170.65 630.101 1223.15 676.255 C 1244.99 695.453 1254.82 710.163 1273.79 729.749 C 1252.05 715.517 1230.74 709.086 1205.84 702.287 C 1198.15 710.371 1190.83 722.332 1181.87 731.47 C 1144.01 770.069 1109.4 785.825 1057.23 793.756 C 990.291 801.505 922.795 785.647 873.706 737.467 C 862.098 726.075 853.587 713.501 842.571 702.064 C 841.412 700.859 839.191 700.685 837.547 701.288 C 818.541 708.256 799.919 713.382 780.37 718.36 z M 1051.44 627.792 C 1037.61 630.744 1028.83 644.393 1031.88 658.202 C 1034.93 672.01 1048.64 680.695 1062.42 677.551 C 1076.08 674.438 1084.66 660.892 1081.64 647.218 C 1078.62 633.545 1065.13 624.87 1051.44 627.792 z M 1092.63 630.288 C 1102.6 653.869 1106.04 673.363 1095.99 698.17 C 1088.73 716.431 1074.39 730.979 1056.23 738.508 C 1015.99 755.339 964.238 736.927 948.033 695.242 C 939.356 672.919 943.276 654.236 949.893 632.12 C 919.468 640.254 886.51 656.881 863.179 678.165 C 869.755 694.854 876.583 705.935 887.655 719.989 C 947.061 785.562 1043.95 796.16 1121.32 755.467 C 1150.23 740.261 1171.59 713.234 1187.1 685.045 C 1162.17 657.289 1129.1 638.124 1092.63 630.288 z" fill="rgb(239,235,228)" transform="translate(0,0)"></path>
<path d="M 1458.51 727.272 C 1453.27 726.913 1452.23 725.947 1449.14 722.041 C 1447.96 716.038 1452.36 714.169 1457.39 711.549 C 1493.88 692.556 1530.8 674.416 1567.03 654.907 C 1578.11 648.941 1589.57 642.86 1601.14 637.899 C 1605.43 637.812 1606.5 638.678 1609.3 641.857 C 1610.57 647.966 1607.72 650.032 1602.57 652.88 C 1583.44 663.466 1563.67 672.959 1544.33 683.199 L 1491.02 710.982 C 1481.32 716.036 1468.19 723.518 1458.51 727.272 z" fill="rgb(239,235,228)" transform="translate(0,0)"></path>
<path d="M 608.288 735.516 C 602.454 733.687 585.654 724.419 579.42 721.194 L 521.075 691.021 C 505.389 682.871 489.649 674.825 473.856 666.884 C 464.166 661.994 453.728 657.018 444.55 651.309 C 441.281 649.276 441.589 649.491 441.101 646.715 C 442.418 642.812 444.246 641.498 447.201 638.433 C 456.146 640.997 471.396 649.073 480.149 653.471 L 541.897 685.27 C 564.487 696.755 589.726 707.438 611.004 721.374 C 617.131 725.387 612.638 731.934 608.288 735.516 z" fill="rgb(239,235,228)" transform="translate(0,0)"></path>
<path d="M 427.12 749.408 C 418.105 748.041 315.469 712.4 310.056 708.432 C 307.879 706.836 307.376 705.534 306.8 702.982 C 307.3 699.385 308.343 698.565 310.572 695.721 C 318.142 696.52 333.058 702.122 340.866 704.9 C 369.826 715.301 399.881 723.74 428.224 735.638 C 434.473 738.261 429.379 745.907 427.12 749.408 z" fill="rgb(239,235,228)" transform="translate(0,0)"></path>
<path d="M 1618.65 749.817 C 1613.38 749.274 1608.85 745.47 1610.9 739.881 C 1618.33 733.455 1714.55 701.517 1732.12 696.083 C 1736.3 695.984 1737.41 696.21 1740.03 699.502 C 1741.21 705.838 1738.06 708.716 1732.41 710.877 C 1704.25 721.633 1675.51 730.942 1647.07 740.93 C 1637.68 744.23 1628.4 747.75 1618.65 749.817 z" fill="rgb(239,235,228)" transform="translate(0,0)"></path>
<path d="M 1709.25 793.668 C 1704.01 793.022 1700.18 791.817 1701.1 785.614 C 1704.16 780.698 1711.87 778.399 1717.25 777.116 C 1737.85 772.204 1758.87 768.799 1779.28 763.112 C 1783.1 763.109 1783.81 764.363 1786.06 766.56 C 1789.66 779.023 1759.53 783.084 1750.79 785.183 C 1737.57 788.36 1722.68 792.064 1709.25 793.668 z" fill="rgb(239,235,228)" transform="translate(0,0)"></path>
<path d="M 353.842 799.813 C 332.902 797.208 279.404 782.283 256.982 776.123 C 254.952 775.565 254.008 772.967 253.48 770.939 C 254.148 767.113 254.97 766.696 257.665 763.944 C 265.979 763.791 346.064 782.894 354.722 786.528 C 357.873 790.161 356.99 788.163 357.881 792.547 C 356.969 796.432 356.522 796.658 353.842 799.813 z" fill="rgb(239,235,228)" transform="translate(0,0)"></path>
<path d="M 871.351 775.107 C 882.557 781.531 894.111 787.328 905.96 792.47 C 976.885 823.504 1049.07 825.964 1122.08 800.356 C 1137.62 794.905 1152.51 786.521 1167.77 780.54 C 1163.9 785.121 1155.47 791.334 1150.5 794.851 C 1069.07 852.572 959.862 845.172 883.024 785.303 L 871.351 775.107 z" fill="rgb(239,235,228)" transform="translate(0,0)"></path>
<path d="M 1168.88 779.898 L 1169.85 779.158 L 1168.88 779.898 z" fill="rgb(239,235,228)" transform="translate(0,0)"></path>
<path d="M 1167.77 780.54 L 1168.88 779.898 L 1167.77 780.54 z" fill="rgb(239,235,228)" transform="translate(0,0)"></path>
<path d="M 1536.11 838.695 C 1532.2 839.665 1531.48 839.832 1527.49 839.961 C 1520.79 835.895 1526.71 825.051 1531.91 823.637 C 1546.13 819.775 1560.59 816.526 1574.91 812.981 C 1605.81 805.547 1636.59 797.598 1667.22 789.137 C 1674.83 788.304 1682.54 789.676 1678.9 799.569 C 1671.05 806.393 1554.73 833.417 1536.11 838.695 z" fill="rgb(239,235,228)" transform="translate(0,0)"></path>
<path d="M 513.506 835.485 C 511.087 836.59 509.131 836.673 506.556 835.999 C 472.178 827.003 437.381 819.62 402.858 811.202 C 394.78 809.232 386.506 807.852 378.719 804.899 C 376.667 801.928 377.171 803.519 377.061 799.982 C 378.795 795.959 379.218 795.821 382.636 792.856 C 395.898 793.893 503.064 817.742 515.661 823.359 C 518.463 824.609 520.625 825.537 521.754 828.508 C 520.021 831.555 516.512 833.449 513.506 835.485 z" fill="rgb(239,235,228)" transform="translate(0,0)"></path>
<path d="M 1646.44 904.556 C 1643.67 904.874 1643.76 904.738 1641.04 903.928 C 1634.89 897.838 1638.63 891.397 1646.05 890.191 C 1661.55 887.671 1677.41 886.225 1693.04 884.428 C 1722.4 881.196 1751.7 877.517 1780.95 873.391 C 1782.57 873.212 1783.6 873.424 1785.26 873.566 C 1788.44 875.437 1788.21 875.311 1789.99 878.582 C 1790.21 884.292 1788.09 887.029 1782.35 887.654 C 1737.65 892.523 1690.98 900.411 1646.44 904.556 z" fill="rgb(239,235,228)" transform="translate(0,0)"></path>
<path d="M 382.93 900.077 C 381.628 900.414 378.786 901.033 377.041 900.83 C 339.145 896.427 300.054 893.396 262.537 887.064 C 260.637 886.743 259.676 884.033 259.173 882.461 C 259.572 878.483 260.407 877.917 262.867 874.813 C 276.001 875.056 306.404 879.285 320.387 880.545 C 332.927 881.674 374.502 885.132 384.827 888.012 C 387.144 890.21 387.214 889.978 387.86 893.05 C 387.052 896.526 385.478 897.548 382.93 900.077 z" fill="rgb(239,235,228)" transform="translate(0,0)"></path>
<path d="M 1610.22 909.952 C 1609.1 909.964 1607.98 909.967 1606.86 909.963 C 1599.35 909.911 1596.25 909.518 1590.69 903.845 C 1588.85 897.296 1593.54 896.015 1598.99 894.193 C 1607.72 893.308 1611.61 892.313 1618.24 898.819 C 1620.38 905.485 1615.55 907.454 1610.22 909.952 z" fill="rgb(239,235,228)" transform="translate(0,0)"></path>
<path d="M 272.807 1002.76 C 289.338 974.072 304.63 942.751 320.478 915.735 C 322.732 918.657 331.041 937.896 333.385 942.585 C 343.623 963.074 353.559 983.951 364.952 1003.85 C 394.32 1004.48 430.542 1008.05 460.407 1010.29 C 435.709 1031.02 411.377 1057.18 385.915 1077.39 C 392.943 1107.1 402.489 1140.15 410.207 1170.26 C 404.967 1168.24 394.628 1162.3 389.254 1159.46 C 375.333 1152.19 361.355 1145.03 347.32 1137.98 C 339.4 1133.98 331.037 1129.67 322.839 1126.23 C 319.638 1124.89 319.119 1125.79 316.516 1127.13 C 287.732 1143.33 256.271 1158.65 226.818 1175 C 233.95 1145.65 247.139 1102.27 251.624 1073.34 C 232.608 1057.43 214.406 1040.58 195.655 1024.36 C 188.84 1018.47 182.044 1012.57 175.828 1006.04 C 206.87 1004.67 242.058 1002.6 272.807 1002.76 z M 230.494 1018.47 C 235.474 1021.55 289.889 1036.94 298.394 1039.29 L 298.995 1039.75 L 298.394 1039.29 C 291.253 1032.48 284.231 1025.1 277.319 1018.02 C 262.578 1017.85 244.995 1017.68 230.494 1018.47 z M 328.313 1054.28 C 330.824 1058.78 343.297 1074.1 347.129 1078.82 C 359.345 1093.9 373.219 1114.83 386.239 1128.42 L 386.748 1128.99 L 386.239 1128.42 C 383.688 1115.47 373.104 1083.58 368.955 1069.75 C 355.607 1064.53 341.817 1058.93 328.313 1054.28 z M 319.391 949.751 C 314.754 968.489 305.15 1002.27 301.949 1020.22 C 305.943 1025.88 310.032 1031.47 314.215 1036.99 C 316.621 1040.1 319.147 1043.5 321.639 1046.51 C 322.711 1034.8 323.061 958.93 320.119 950.46 L 319.391 949.751 z M 355.843 1019.06 C 348.617 1025.55 343.397 1032.05 336.773 1038.9 L 371.574 1028.17 C 382.221 1024.94 389.933 1023.63 400.203 1020.96 C 385.468 1019.44 370.654 1018.8 355.843 1019.06 z M 229.623 1033.77 L 258.581 1058.4 C 281.278 1054.97 290.98 1053.25 314.161 1054.07 C 301.695 1061.17 279.283 1070.92 270.034 1076.99 C 265.181 1086.76 257.133 1117.31 253.909 1128.56 C 263.024 1124.03 309.686 1065.31 315.319 1053.19 C 303.397 1048.18 244.33 1035.14 229.623 1033.77 z M 409.738 1037.21 C 401.678 1041.51 372.932 1053.44 369.116 1058.03 C 370.778 1059.62 370.015 1059.25 372.091 1059.95 C 375.156 1061.29 378.795 1062.77 381.635 1064.41 C 385.505 1061.23 409.114 1040.33 409.738 1037.21 z M 314.557 1068.72 C 305.511 1083.18 289.091 1108.92 277.022 1120.91 L 277.028 1121.93 C 290.049 1116.52 299.522 1112.14 312.123 1105.41 C 312.876 1098.16 315.897 1074.69 314.557 1068.72 z" fill="rgb(239,235,228)" transform="translate(0,0)"></path>
<path d="M 1682.97 1007.81 C 1691.23 990.257 1698.41 970.073 1706.53 952.299 C 1710.21 944.222 1714.23 932.682 1719.24 925.675 C 1721.48 925.84 1721.64 925.956 1723.84 926.492 C 1730.09 932.585 1756.03 994.08 1760.76 1005.85 C 1787.06 1006.82 1827.19 1009.47 1853.26 1012.34 C 1829.46 1032.92 1808.38 1055.05 1783.78 1074.35 C 1792.05 1105.61 1799.44 1137.1 1805.94 1168.78 C 1790.89 1161.98 1733.03 1125.62 1723.53 1123.68 L 1673.32 1152.28 C 1665.89 1156.59 1646.58 1170.78 1639.05 1167.74 C 1637.47 1164.8 1637.59 1161.6 1638.48 1158.44 C 1646.25 1130.85 1657.4 1104.11 1664.42 1076.28 C 1652.88 1065.21 1603.41 1025.92 1598.88 1016.4 C 1598.87 1013.91 1598.58 1012.73 1600.73 1010.99 C 1607.75 1005.29 1670.43 1007.35 1682.97 1007.81 z M 1788.54 1032.89 C 1775.85 1033.42 1734.03 1038.85 1725.39 1045.83 C 1731.9 1046.97 1782.74 1035.81 1788.54 1032.89 L 1788.99 1032.25 L 1788.54 1032.89 z M 1637.25 1021.19 L 1637.08 1021.38 L 1637.57 1022.35 C 1653.52 1024.97 1665.04 1030.36 1680.13 1035.57 C 1689.77 1038.89 1699.47 1041.17 1709.44 1043.29 L 1709.87 1043.74 L 1709.44 1043.29 C 1704.94 1037.23 1693.11 1023.62 1687.26 1019.28 C 1670.72 1020.13 1653.83 1020.58 1637.25 1021.19 z M 1666.79 1118.38 L 1666.25 1118.99 L 1666.79 1118.38 C 1678.06 1103.95 1695.12 1075.52 1707.15 1058.54 C 1700.16 1060.86 1688.38 1068.78 1682.22 1073.08 C 1677.15 1088.74 1670.71 1101.54 1666.79 1118.38 z M 1724.65 955.539 C 1724.83 982.676 1725.29 1014.3 1724.12 1041.23 C 1728.07 1035.59 1731.48 1030.87 1735.79 1025.53 C 1740.2 1019.71 1744.87 1013.74 1748.91 1007.69 C 1746.6 999.706 1729.38 961.365 1724.65 955.539 z M 1714.43 964.793 C 1709.98 975.524 1695.71 1004.88 1698.16 1015.17 C 1698.85 1018.1 1707.98 1027.2 1710.83 1031.18 C 1712.93 1034.92 1715.23 1038.86 1717.19 1042.65 C 1715.62 1031.56 1716.89 968.534 1714.43 964.793 z M 1624.42 1023.89 C 1638.35 1036.04 1658.16 1053.51 1673.82 1063.04 C 1682.19 1059.52 1691.46 1055.37 1699.9 1052.27 C 1703.56 1051.1 1707.27 1049.84 1710.99 1048.9 C 1701.19 1046.5 1691.74 1044.22 1682.23 1040.78 C 1664.32 1034.29 1643.84 1024.44 1624.42 1023.89 z M 1727.44 1052.18 C 1736.37 1055.13 1764.62 1067.56 1769.78 1068.18 C 1758.97 1061.92 1739.96 1051.3 1727.44 1052.18 z M 1717.44 1056.6 C 1712.01 1067.23 1666.76 1139.82 1666.89 1140.59 L 1668.5 1139.98 C 1686.48 1130.56 1704.3 1120.83 1721.94 1110.8 C 1721.68 1102.45 1720.61 1060.83 1717.44 1056.6 z M 1769.26 1068.5 L 1770.49 1068.5 L 1769.26 1068.5 z" fill="rgb(239,235,228)" transform="translate(0,0)"></path>
<path d="M 767.928 1320.63 C 799.172 1318.59 831.773 1317.63 863.107 1316.55 C 874.98 1315.85 888.841 1315.52 900.57 1316.94 C 943.945 1322.16 970.237 1362.49 969.458 1404.25 C 968.851 1436.72 958.792 1456.26 936.123 1478.53 C 939.939 1503.72 946.138 1530.19 951.124 1555.27 C 954.175 1570.62 956.961 1588.38 961.815 1602.98 C 966.657 1617.55 980.257 1620.33 992.91 1626.07 L 991.922 1626.21 C 981.046 1627.89 967.018 1627.53 955.748 1627.73 C 935.268 1628.2 914.782 1628.41 894.296 1628.34 L 899.888 1620.46 C 899.188 1604.75 894.969 1586.14 891.946 1570.36 L 877.178 1495.09 L 862.75 1495.39 L 845.198 1495.35 C 844.455 1524.79 845.074 1554.54 844.716 1584.01 C 844.506 1601.28 844.125 1614.57 855.197 1628.68 C 842.62 1630.93 820.962 1631.76 807.691 1632.57 C 794.511 1633.37 773.75 1635.05 761.062 1634.5 L 759.858 1632.76 C 762.562 1628.97 773.522 1625.36 776.981 1619.58 C 778.482 1617.49 780.825 1613.02 780.848 1610.45 C 781.112 1581.86 780.987 1553.23 781.024 1524.63 C 781.034 1516.86 781.549 1506.07 780.512 1498.63 C 779.814 1498.66 776.292 1498.77 775.946 1498.3 C 767.411 1486.66 760.515 1473.63 750.786 1462.94 C 760.036 1457.17 771.337 1451.06 780.941 1445.62 C 780.903 1408.05 779.819 1370.84 779.207 1333.29 C 775.327 1327.37 773.052 1325.5 767.928 1320.63 z M 865.127 1369.45 L 845.015 1370.07 C 844.13 1393.5 843.976 1416.94 844.555 1440.38 C 854.013 1440.36 877.144 1440.92 885.464 1438.9 C 912.473 1426.73 914.488 1381.19 885.168 1370.89 C 879.411 1368.86 871.335 1369.24 865.127 1369.45 z" fill="rgb(239,235,228)" transform="translate(0,0)"></path>
<path d="M 1052.96 1334.26 C 1050.33 1329.7 1043.9 1322.71 1043.12 1320.3 C 1069.84 1322.01 1205.75 1337.4 1222.46 1333.16 C 1222.92 1354.03 1222.59 1377.55 1222.03 1398.34 C 1221.79 1398.14 1221.55 1397.95 1221.31 1397.75 L 1220.09 1396.78 C 1217.68 1394.84 1214.04 1391.85 1211.03 1391.26 C 1182.58 1385.74 1148.96 1384.39 1120.11 1382.12 C 1120.65 1402.97 1120.95 1423.83 1121.01 1444.68 C 1143.68 1445.72 1169.11 1451.14 1191.74 1450.34 C 1194.08 1450.26 1193.56 1449.78 1196.4 1450.13 C 1197.63 1460.48 1196.32 1500.89 1196.14 1513.47 C 1179.3 1503.07 1143.14 1502.9 1122.03 1501.27 C 1122.04 1523.74 1121.72 1547.15 1122.34 1569.54 C 1124.12 1571.78 1124.97 1571.15 1128.79 1571.74 C 1148.95 1572.97 1168.99 1575.62 1189.1 1577.25 C 1203.24 1578.4 1216.82 1581.99 1230.06 1576.15 C 1230.55 1598.49 1230.67 1620.83 1230.4 1643.18 C 1220.65 1635.2 1191.48 1635.39 1178.49 1634.44 C 1152.54 1632.55 1126.56 1630.98 1100.57 1629.73 C 1082.3 1628.88 1062.27 1628.46 1044.2 1626.62 C 1047.05 1623.53 1052.37 1617.72 1053.05 1613.67 C 1055.3 1600.28 1054.38 1582.52 1054.36 1568.8 L 1054.24 1493.97 L 1046.01 1500.78 C 1041.5 1480.9 1037.29 1460.96 1033.38 1440.95 C 1040.32 1440.96 1046.61 1441.6 1053.52 1442.21 L 1052.96 1334.26 z" fill="rgb(239,235,228)" transform="translate(0,0)"></path>
<path d="M 528.136 1337.54 C 546.945 1334.73 573.767 1333.25 593.095 1331.82 L 704.997 1323.6 L 705.517 1324.23 C 696.934 1340.26 699.727 1368.21 699.761 1387.25 C 697.664 1386.34 691.874 1383.87 689.917 1383.79 C 664.672 1382.76 633.002 1386.26 607.788 1388.14 C 607.849 1410.23 606.941 1433 606.918 1455.41 C 626.635 1454.67 653.291 1454.75 670.271 1446.54 L 669.825 1512.86 C 652.711 1503.79 625.807 1510.28 606.954 1512.18 C 606.923 1530.14 604.577 1619 608.97 1629.52 C 611.843 1636.4 620.238 1638.65 626.61 1641.02 C 609.545 1643.55 590.36 1644.82 573.024 1646.31 C 553.9 1648.3 534.765 1650.16 515.617 1651.9 C 524.591 1645.82 536.669 1639.63 538.238 1627.91 C 540.131 1613.76 539.472 1598.87 539.443 1584.55 L 539.24 1511.73 C 529.972 1500.56 520.904 1489.32 510.853 1478.85 C 520.089 1472.64 530.215 1466.98 539.866 1461.36 C 538.182 1428.16 539.934 1393.1 539.045 1359.71 C 538.71 1347.14 536.512 1345.3 528.136 1337.54 z" fill="rgb(239,235,228)" transform="translate(0,0)"></path>
<path d="M 1291.83 1348.02 C 1288.6 1344.56 1286.21 1342.53 1284.38 1338.17 C 1319.49 1342.46 1357.04 1345.87 1392.32 1349.33 C 1410.09 1351.08 1464.28 1359.39 1477.95 1357.01 C 1478.02 1377.78 1478.65 1403.5 1477.22 1423.86 C 1457.69 1411.66 1389.19 1404.49 1364.29 1402.7 C 1364.9 1424.03 1365.24 1445.37 1365.31 1466.71 C 1381.16 1468.77 1429.89 1477.1 1442.04 1473.32 C 1442.01 1490.21 1441.1 1523.15 1442.85 1538.39 C 1425.19 1528.16 1386.66 1525.41 1365.43 1523.28 C 1365.76 1545.24 1366.21 1567.21 1366.8 1589.18 C 1367.15 1590.14 1367.05 1591 1368.3 1591.18 C 1399.9 1595.49 1432.61 1599.05 1464.4 1601.93 C 1467.63 1602.22 1475.39 1598.57 1478.02 1597.43 C 1477.97 1620.16 1478.15 1642.89 1478.56 1665.61 C 1437.45 1658.6 1392.41 1654.82 1350.75 1649.54 C 1329.49 1646.84 1306.34 1646.18 1285.29 1642.76 L 1286.32 1641.98 L 1287.89 1640.77 C 1298.58 1632.66 1296.12 1620.14 1296.06 1607.4 C 1295.92 1577.69 1296.47 1547.77 1295.5 1518.09 C 1291.72 1519.23 1291.28 1519.43 1287.4 1519.5 C 1284.21 1516.46 1274.13 1467.44 1272.33 1459.76 C 1279.94 1460.76 1286.9 1461.93 1294.46 1463.29 L 1291.83 1348.02 z" fill="rgb(239,235,228)" transform="translate(0,0)"></path>
<path d="M 338.739 1910.66 L 338.223 1910.01 L 338.739 1910.66 z" fill="rgb(239,235,228)" transform="translate(0,0)"></path>
<metadata><recraft-signature>{"signed_by": "recraft", "signature_b64": "XZXhA4TZlPpvGVbU6CC197y56XIVZGbxOfRYe+TlWOaSd5AozMifzTHyGmo7fgQHp4jGgnf7edB+NuDQtXC3AQ==", "signing_algo": "Ed25519", "generation_timestamp": 1776598966, "identifier": "90c832f3-f9f2-4d97-9cd6-570cd88fa510"}</recraft-signature></metadata></svg>
